<svg xmlns="http://www.w3.org/2000/svg" width="416" height="518" fill="none"><mask id="a" width="416" height="518" x="0" y="0" maskUnits="userSpaceOnUse" style="mask-type:alpha"><path fill="#FCFAF9" d="M0 97.97C0 43.862 39.234 0 87.632 0h240.736C376.766 0 416 43.862 416 97.97c0 33.358-14.913 62.823-37.693 80.515C401.087 196.177 416 225.641 416 259s-14.913 62.823-37.693 80.515C401.087 357.207 416 386.672 416 420.03c0 54.108-39.234 97.97-87.632 97.97H87.632C39.234 518 0 474.138 0 420.03c0-33.358 14.913-62.823 37.693-80.515C14.913 321.823 0 292.358 0 259c0-33.359 14.913-62.823 37.693-80.515C14.913 160.793 0 131.328 0 97.97Z"/></mask><g mask="url(#a)"><path fill="#1B1F21" d="M0 0h416v518H0z"/><path stroke="#434343" stroke-dasharray="43 42" stroke-linecap="round" stroke-width="15" d="M218.511-291.014c92.241 65.969 420.267 433.803 273.75 540.042C304.253 385.353-35.198 141.678 76.131 17.535 223.528-146.826 587.541 316.594 466.77 460.71 345.999 604.826 91.348 540.512-195.469 171.916"/><path fill="#FE6D44" d="M209.765 294.728 92.053 420.033l265.323-37.166-147.611-88.139Z"/><path fill="#1B1F21" fill-rule="evenodd" d="m333.652 375.377-6.256.877a2.2 2.2 0 0 0 .61 4.357l6.257-.876a2.2 2.2 0 0 0-.611-4.358Zm-25.026 3.506-12.512 1.753a2.199 2.199 0 1 0 .61 4.357l12.513-1.753a2.199 2.199 0 1 0-.611-4.357Zm-31.282 4.382-12.513 1.753a2.199 2.199 0 1 0 .611 4.357l12.513-1.753a2.199 2.199 0 1 0-.611-4.357Zm-31.282 4.382-12.513 1.753a2.2 2.2 0 1 0 .61 4.357l12.513-1.753a2.2 2.2 0 1 0-.61-4.357Zm-31.282 4.382-12.513 1.752a2.2 2.2 0 0 0 .61 4.358l12.513-1.753a2.2 2.2 0 0 0-.61-4.357Zm-31.283 4.382-12.513 1.752a2.2 2.2 0 0 0 .611 4.358l12.513-1.753a2.2 2.2 0 1 0-.611-4.357Zm-31.282 4.382-12.513 1.752a2.2 2.2 0 0 0 .61 4.358l12.513-1.753a2.2 2.2 0 1 0-.61-4.357Zm-31.282 4.382-6.257.876a2.2 2.2 0 0 0 .611 4.357l6.256-.876a2.2 2.2 0 1 0-.61-4.357Z" clip-rule="evenodd"/><path fill="#FE6D44" d="m213.205 313.891 144.171 68.974-24.5-174.906-119.671 105.932Z"/><path fill="#FCFAF9" fill-opacity=".12" d="m213.205 313.891 144.171 68.974-24.5-174.906-119.671 105.932Z"/><path fill="#1B1F21" fill-rule="evenodd" d="M347.561 367.998a2.2 2.2 0 0 0 .891-2.089l-1.006-7.181a2.199 2.199 0 1 0-4.357.611l.428 3.056-2.632-1.302a2.2 2.2 0 1 0-1.951 3.944l6.364 3.149a2.2 2.2 0 0 0 2.263-.188Zm-4-21.148a2.2 2.2 0 0 0 1.874-2.483l-2.012-14.362a2.201 2.201 0 0 0-4.358.61l2.012 14.362a2.2 2.2 0 0 0 2.484 1.873Zm-4.024-28.723a2.199 2.199 0 0 0 1.874-2.484l-2.012-14.361a2.2 2.2 0 0 0-4.357.61l2.012 14.362a2.198 2.198 0 0 0 2.483 1.873Zm-4.023-28.723a2.2 2.2 0 0 0 1.874-2.484l-2.012-14.361a2.2 2.2 0 0 0-4.358.61l2.012 14.362a2.2 2.2 0 0 0 2.484 1.873Zm-4.023-28.723a2.2 2.2 0 0 0 1.873-2.484l-1.006-7.181a2.199 2.199 0 1 0-4.357.611l1.006 7.181a2.199 2.199 0 0 0 2.484 1.873Zm-2.337 97.061a2.199 2.199 0 0 0-.996-2.947l-12.728-6.299a2.2 2.2 0 0 0-1.952 3.944l12.728 6.298a2.2 2.2 0 0 0 2.948-.996Zm-25.456-12.597a2.2 2.2 0 0 0-.996-2.948l-12.727-6.298a2.2 2.2 0 0 0-1.952 3.943l12.728 6.299a2.2 2.2 0 0 0 2.947-.996Zm-25.455-12.597a2.2 2.2 0 0 0-.996-2.948l-12.728-6.298a2.2 2.2 0 1 0-1.951 3.943l12.728 6.299a2.2 2.2 0 0 0 2.947-.996Zm-25.455-12.597a2.2 2.2 0 0 0-.996-2.948l-6.364-3.149a2.2 2.2 0 0 0-1.952 3.943l6.364 3.15a2.2 2.2 0 0 0 2.948-.996Z" clip-rule="evenodd"/><path fill="#FE6D44" d="M211.723 314.101 92.053 420.033l-24.5-174.906 144.17 68.974Z"/><path fill="#FCFAF9" fill-opacity=".12" d="M211.723 314.101 92.053 420.033l-24.5-174.906 144.17 68.974Z"/><path fill="#1B1F21" fill-rule="evenodd" d="M78.317 259.405a2.2 2.2 0 0 1 2.487 1.87l.983 6.945a2.2 2.2 0 0 1-4.357.617l-.983-6.946a2.2 2.2 0 0 1 1.87-2.486Zm2.95 20.836a2.2 2.2 0 0 1 2.486 1.87l1.966 13.891a2.2 2.2 0 1 1-4.356.617l-1.967-13.891a2.2 2.2 0 0 1 1.87-2.487Zm3.932 27.782a2.2 2.2 0 0 1 2.486 1.87l1.966 13.892a2.2 2.2 0 1 1-4.356.616l-1.966-13.891a2.2 2.2 0 0 1 1.87-2.487Zm3.932 27.783a2.2 2.2 0 0 1 2.486 1.87l1.966 13.891a2.2 2.2 0 1 1-4.356.616l-1.966-13.891a2.2 2.2 0 0 1 1.87-2.486Zm3.932 27.782a2.2 2.2 0 0 1 2.486 1.87l1.967 13.891a2.2 2.2 0 0 1-4.357.617l-1.966-13.892a2.2 2.2 0 0 1 1.87-2.486Zm3.932 27.782a2.2 2.2 0 0 1 2.487 1.87l.4 2.83 2.178-1.981a2.2 2.2 0 0 1 2.96 3.256l-5.254 4.777a2.2 2.2 0 0 1-3.658-1.32l-.983-6.945a2.2 2.2 0 0 1 1.87-2.487Zm15.424-3.726a2.2 2.2 0 0 1 .148-3.108l10.507-9.553a2.2 2.2 0 0 1 2.96 3.256l-10.507 9.553a2.2 2.2 0 0 1-3.108-.148Zm21.015-19.106a2.2 2.2 0 0 1 .148-3.108l10.507-9.553a2.2 2.2 0 1 1 2.96 3.255l-10.507 9.553a2.2 2.2 0 0 1-3.108-.147Zm21.014-19.107a2.2 2.2 0 0 1 .148-3.108l10.507-9.553a2.2 2.2 0 0 1 2.96 3.256l-10.507 9.553a2.2 2.2 0 0 1-3.108-.148Zm21.014-19.106a2.2 2.2 0 0 1 .148-3.108l5.254-4.777a2.2 2.2 0 0 1 2.96 3.256l-5.254 4.776a2.2 2.2 0 0 1-3.108-.147Z" clip-rule="evenodd"/><path fill="#FE6D44" d="M215.164 333.265 67.553 245.126l265.323-37.166-117.712 125.305Z"/><path fill="#FCFAF9" fill-opacity=".25" d="M215.164 333.265 67.553 245.126l265.323-37.166-117.712 125.305Z"/><path fill="#1B1F21" fill-rule="evenodd" d="M320.89 205.882a2.5 2.5 0 0 1 .111 3.534l-4.246 4.519a2.5 2.5 0 1 1-3.645-3.423l4.246-4.52a2.5 2.5 0 0 1 3.534-.11ZM78.505 239.835a2.5 2.5 0 0 1 3.428-.865l5.325 3.179a2.5 2.5 0 1 1-2.563 4.293l-5.325-3.179a2.5 2.5 0 0 1-.865-3.428ZM307.5 220.137a2.5 2.5 0 0 1 .11 3.534l-8.492 9.039a2.5 2.5 0 1 1-3.644-3.423l8.492-9.04a2.5 2.5 0 0 1 3.534-.11ZM95.298 249.861a2.5 2.5 0 0 1 3.428-.864l10.649 6.358a2.5 2.5 0 1 1-2.563 4.293l-10.65-6.358a2.501 2.501 0 0 1-.864-3.429Zm194.564-10.949a2.5 2.5 0 0 1 .11 3.534l-8.492 9.039a2.5 2.5 0 1 1-3.644-3.423l8.492-9.04a2.5 2.5 0 0 1 3.534-.11Zm-172.447 24.156a2.5 2.5 0 0 1 3.428-.865l10.649 6.358a2.5 2.5 0 1 1-2.563 4.293l-10.649-6.358a2.5 2.5 0 0 1-.865-3.428Zm154.809-5.381a2.5 2.5 0 0 1 .111 3.534l-8.492 9.039a2.5 2.5 0 1 1-3.645-3.423l8.493-9.04a2.499 2.499 0 0 1 3.533-.11Zm-132.692 18.587a2.5 2.5 0 0 1 3.428-.865l10.649 6.359a2.5 2.5 0 1 1-2.563 4.293l-10.649-6.359a2.5 2.5 0 0 1-.865-3.428Zm115.055.188a2.499 2.499 0 0 1 .11 3.533l-8.492 9.04a2.499 2.499 0 1 1-3.644-3.423l8.492-9.04a2.5 2.5 0 0 1 3.534-.11Zm-92.938 13.018a2.502 2.502 0 0 1 3.429-.865l10.649 6.359a2.5 2.5 0 0 1-2.564 4.293l-10.649-6.359a2.501 2.501 0 0 1-.865-3.428Zm75.301 5.757a2.499 2.499 0 0 1 .11 3.533l-8.492 9.04a2.5 2.5 0 1 1-3.644-3.423l8.492-9.04a2.5 2.5 0 0 1 3.534-.11Zm-53.183 7.449a2.5 2.5 0 0 1 3.428-.864l10.649 6.358a2.501 2.501 0 0 1-2.564 4.293l-10.649-6.358a2.501 2.501 0 0 1-.864-3.429Zm22.117 13.207a2.5 2.5 0 0 1 3.428-.865l3.598 2.148 2.869-3.054a2.499 2.499 0 1 1 3.644 3.423l-4.246 4.52a2.5 2.5 0 0 1-3.104.435l-5.324-3.179a2.5 2.5 0 0 1-.865-3.428Z" clip-rule="evenodd"/><circle cx="329.07" cy="213.419" r="30.485" fill="#57ACBC" transform="rotate(-7.974 329.07 213.419)"/><path fill="#FFFFFE" d="m341.111 218.071.819 5.848-20.126 2.82-.819-5.849 6.321-.885-1.655-11.81-6.321.885-.617-4.405c1.718-.344 3.595-1.058 5.631-2.144 2.032-1.11 3.777-2.297 5.235-3.56l2.598-.363 2.846 20.316 6.088-.853Z"/><g filter="url(#b)" opacity=".62"><path fill="#FE6D44" d="M217.109 113.019 168 134.695l80.802 21.651-31.693-43.327Z"/><path fill="#1B1F21" fill-rule="evenodd" d="m242.901 151.28-1.905-.51a.71.71 0 1 0-.368 1.371l1.906.51a.71.71 0 1 0 .367-1.371Zm-7.622-2.042-3.81-1.021a.71.71 0 1 0-.368 1.371l3.811 1.021a.708.708 0 1 0 .367-1.371Zm-9.526-2.553-3.811-1.021a.71.71 0 0 0-.368 1.371l3.811 1.021a.71.71 0 1 0 .368-1.371Zm-9.527-2.552-3.811-1.022a.71.71 0 0 0-.367 1.372l3.81 1.021a.71.71 0 1 0 .368-1.371Zm-9.527-2.553-3.811-1.021a.709.709 0 1 0-.367 1.371l3.811 1.021a.71.71 0 0 0 .367-1.371Zm-9.527-2.553-3.811-1.021a.71.71 0 0 0-.367 1.371l3.811 1.021a.709.709 0 1 0 .367-1.371Zm-9.527-2.553-3.81-1.021a.71.71 0 1 0-.368 1.371l3.811 1.022a.71.71 0 0 0 .367-1.372Zm-9.527-2.552-1.905-.511a.71.71 0 1 0-.367 1.371l1.905.511a.71.71 0 1 0 .367-1.371Z" clip-rule="evenodd"/><path fill="#FE6D44" d="m215.763 118.948 33.039 37.398 14.273-53.267-47.312 15.869Z"/><path fill="#FCFAF9" fill-opacity=".12" d="m215.763 118.948 33.039 37.398 14.273-53.267-47.312 15.869Z"/><path fill="#1B1F21" fill-rule="evenodd" d="M247.798 150.898a.71.71 0 0 0 .527-.508l.586-2.187a.71.71 0 1 0-1.371-.368l-.238.89-.57-.663a.71.71 0 1 0-1.076.926l1.446 1.681a.711.711 0 0 0 .696.229Zm1.416-6.567a.71.71 0 0 0 .869-.502l1.172-4.374a.709.709 0 1 0-1.371-.367l-1.172 4.374a.71.71 0 0 0 .502.869Zm2.344-8.748a.71.71 0 0 0 .869-.501l1.172-4.374a.71.71 0 0 0-1.371-.368l-1.172 4.374a.708.708 0 0 0 .502.869Zm2.344-8.747a.71.71 0 0 0 .869-.502l1.172-4.374a.71.71 0 0 0-1.371-.367l-1.172 4.374a.709.709 0 0 0 .502.869Zm2.344-8.747a.71.71 0 0 0 .869-.502l.586-2.187a.71.71 0 0 0-1.371-.368l-.586 2.187a.71.71 0 0 0 .502.87Zm-12.48 27.612a.71.71 0 0 0 .075-1.001l-2.891-3.361a.71.71 0 1 0-1.076.925l2.891 3.362a.71.71 0 0 0 1.001.075Zm-5.783-6.723a.71.71 0 0 0 .076-1.001l-2.892-3.362a.71.71 0 1 0-1.076.926l2.891 3.361a.71.71 0 0 0 1.001.076Zm-5.782-6.724a.71.71 0 0 0 .075-1.001l-2.891-3.362a.71.71 0 0 0-1.076.926l2.891 3.362a.71.71 0 0 0 1.001.075Zm-5.783-6.723a.71.71 0 0 0 .076-1.001l-1.446-1.681a.71.71 0 0 0-1.076.925l1.445 1.681a.71.71 0 0 0 1.001.076Z" clip-rule="evenodd"/><path fill="#FE6D44" d="M215.311 118.827 168 134.695l14.272-53.266 33.039 37.398Z"/><path fill="#FCFAF9" fill-opacity=".12" d="M215.311 118.827 168 134.695l14.272-53.266 33.039 37.398Z"/><path fill="#1B1F21" fill-rule="evenodd" d="M183.633 86.823c.379.1.604.49.503.868l-.564 2.117a.71.71 0 1 1-1.372-.366l.564-2.116a.71.71 0 0 1 .869-.503Zm-1.692 6.349a.71.71 0 0 1 .503.868l-1.127 4.233a.71.71 0 0 1-1.372-.365l1.128-4.233a.71.71 0 0 1 .868-.503Zm-2.255 8.466a.71.71 0 0 1 .503.868l-1.128 4.233a.71.71 0 1 1-1.371-.365l1.127-4.233a.71.71 0 0 1 .869-.503Zm-2.256 8.466a.71.71 0 0 1 .504.868l-1.128 4.233a.71.71 0 0 1-1.372-.365l1.128-4.233a.71.71 0 0 1 .868-.503Zm-2.255 8.465a.71.71 0 0 1 .503.869l-1.128 4.233a.709.709 0 1 1-1.371-.366l1.127-4.232a.711.711 0 0 1 .869-.504Zm-2.256 8.466a.71.71 0 0 1 .504.869l-.219.82.827-.289a.71.71 0 0 1 .469 1.34l-2.092.732a.709.709 0 0 1-.921-.852l.564-2.117a.71.71 0 0 1 .868-.503Zm4.861.839a.712.712 0 0 1 .435-.905l4.185-1.466a.71.71 0 0 1 .469 1.34l-4.184 1.466a.712.712 0 0 1-.905-.435Zm8.37-2.932a.71.71 0 0 1 .435-.905l4.185-1.465a.708.708 0 1 1 .469 1.339l-4.185 1.466a.708.708 0 0 1-.904-.435Zm8.369-2.932a.71.71 0 0 1 .436-.904l4.184-1.466a.71.71 0 0 1 .47 1.34l-4.185 1.466a.711.711 0 0 1-.905-.436Zm8.37-2.931a.71.71 0 0 1 .435-.905l2.093-.732a.71.71 0 1 1 .469 1.339l-2.093.733a.708.708 0 0 1-.904-.435Z" clip-rule="evenodd"/><path fill="#FE6D44" d="m213.965 124.756-31.693-43.327 80.803 21.651-49.11 21.676Z"/><path fill="#FCFAF9" fill-opacity=".25" d="m213.965 124.756-31.693-43.327 80.803 21.651-49.11 21.676Z"/><path fill="#1B1F21" fill-rule="evenodd" d="M259.907 101.011a.808.808 0 0 1-.413 1.064l-1.771.781a.806.806 0 1 1-.651-1.475l1.771-.782a.806.806 0 0 1 1.064.412Zm-73.856-19.79a.806.806 0 0 1 1.127.175l1.143 1.563a.806.806 0 1 1-1.302.952l-1.143-1.563a.806.806 0 0 1 .175-1.127Zm68.269 22.256a.806.806 0 0 1-.413 1.063l-3.542 1.564a.806.806 0 1 1-.652-1.475l3.543-1.564a.806.806 0 0 1 1.064.412ZM189.656 86.15a.806.806 0 0 1 1.127.175l2.287 3.126a.807.807 0 0 1-1.302.952l-2.287-3.125a.807.807 0 0 1 .175-1.128Zm57.305 20.575a.806.806 0 0 1-.412 1.063l-3.543 1.564a.806.806 0 0 1-.651-1.476l3.543-1.563a.806.806 0 0 1 1.063.412Zm-52.556-14.083a.806.806 0 0 1 1.127.175l2.286 3.126a.806.806 0 1 1-1.302.952l-2.286-3.126a.806.806 0 0 1 .175-1.127Zm45.198 17.331a.806.806 0 0 1-.412 1.063l-3.543 1.564a.807.807 0 0 1-.652-1.476l3.543-1.564a.808.808 0 0 1 1.064.413Zm-40.45-10.839a.808.808 0 0 1 1.128.175l2.286 3.126a.806.806 0 1 1-1.302.952l-2.286-3.126a.807.807 0 0 1 .174-1.127Zm33.092 14.086a.808.808 0 0 1-.413 1.064l-3.543 1.564a.806.806 0 0 1-.651-1.476l3.543-1.564a.807.807 0 0 1 1.064.412Zm-28.343-7.594a.806.806 0 0 1 1.127.175l2.286 3.126a.807.807 0 1 1-1.301.952l-2.287-3.126a.806.806 0 0 1 .175-1.127Zm20.984 10.842a.806.806 0 0 1-.412 1.064l-3.543 1.564a.806.806 0 0 1-.651-1.476l3.543-1.564a.806.806 0 0 1 1.063.412Zm-16.235-4.35a.806.806 0 0 1 1.127.175l2.286 3.125a.807.807 0 0 1-1.302.953l-2.286-3.126a.806.806 0 0 1 .175-1.127Zm4.748 6.492a.806.806 0 0 1 1.127.175l.76 1.039 1.178-.52a.806.806 0 1 1 .652 1.476l-1.772.781a.805.805 0 0 1-.976-.261l-1.144-1.563a.807.807 0 0 1 .175-1.127Z" clip-rule="evenodd"/></g></g><defs><filter id="b" width="111.075" height="91.281" x="160" y="73.066" color-interpolation-filters="sRGB" filterUnits="userSpaceOnUse"><feFlood flood-opacity="0" result="BackgroundImageFix"/><feBlend in="SourceGraphic" in2="BackgroundImageFix" result="shape"/><feGaussianBlur result="effect1_foregroundBlur_2_2207" stdDeviation="4"/></filter></defs></svg>