<svg xmlns="http://www.w3.org/2000/svg" width="304" height="400" fill="none"><mask id="a" width="304" height="400" x="0" y="0" maskUnits="userSpaceOnUse" style="mask-type:alpha"><path fill="#1B1F21" fill-rule="evenodd" d="M100 0C44.772 0 0 44.772 0 100v200c0 55.228 44.772 100 100 100 19.046 0 36.849-5.325 52-14.566C167.151 394.675 184.954 400 204 400c55.228 0 100-44.772 100-100V100C304 44.772 259.228 0 204 0c-19.046 0-36.849 5.325-52 14.566C136.849 5.325 119.046 0 100 0Z" clip-rule="evenodd"/></mask><g mask="url(#a)"><path fill="#1B1F21" fill-rule="evenodd" d="M100 0C44.772 0 0 44.772 0 100v200c0 55.228 44.772 100 100 100 19.046 0 36.849-5.325 52-14.566C167.151 394.675 184.954 400 204 400c55.228 0 100-44.772 100-100V100C304 44.772 259.228 0 204 0c-19.046 0-36.849 5.325-52 14.566C136.849 5.325 119.046 0 100 0Z" clip-rule="evenodd"/><path fill="#434343" fill-rule="evenodd" d="M293.827-25.354a841.279 841.279 0 0 0-17.71-25.817c-1.844-2.587-1.043-6.314 1.791-8.325 2.833-2.01 6.624-1.544 8.469 1.042a853.269 853.269 0 0 1 17.932 26.141c1.746 2.654.815 6.363-2.079 8.284-2.895 1.922-6.657 1.328-8.403-1.325ZM266.467-75c-2.779 2.085-6.592 1.726-8.517-.801a1070.344 1070.344 0 0 0-19.389-24.679c-1.999-2.47-1.41-6.217 1.316-8.369 2.726-2.153 6.556-1.895 8.556.576a1081.004 1081.004 0 0 1 19.579 24.921c1.925 2.528 1.234 6.267-1.545 8.352Zm46.028 67.295c2.962-1.814 6.684-1.072 8.313 1.656 5.55 9.297 10.769 18.58 15.576 27.782 1.473 2.819.2 6.457-2.843 8.126-3.043 1.67-6.704.737-8.176-2.082C320.66 18.772 315.54 9.665 310.081.52c-1.629-2.729-.548-6.41 2.414-8.224ZM227.542-123.67c-2.675 2.213-6.519 2.049-8.586-.367a1115.965 1115.965 0 0 0-20.709-23.534c-2.134-2.358-1.74-6.114.881-8.389 2.621-2.274 6.476-2.206 8.611.152a1126.729 1126.729 0 0 1 20.905 23.757c2.067 2.416 1.573 6.168-1.102 8.381ZM341.885 47.247c3.136-1.473 6.701-.295 7.963 2.631 4.429 10.27 8.215 20.372 11.225 30.203.937 3.061-.936 6.49-4.184 7.659-3.248 1.168-6.641-.365-7.578-3.426-2.877-9.397-6.52-19.128-10.82-29.1-1.262-2.927.257-6.494 3.394-7.967ZM185.929-170.118c-2.561 2.339-6.426 2.376-8.633.082-7.757-8.065-15.192-15.503-22.154-22.197-2.297-2.209-2.149-5.961.332-8.381 2.48-2.42 6.352-2.591 8.65-.382 7.07 6.798 14.602 14.335 22.446 22.489 2.207 2.294 1.92 6.05-.641 8.389Zm-44.809-43.597c-2.338 2.547-6.213 2.941-8.654.88-4.465-3.769-8.484-6.949-11.99-9.494-2.594-1.884-2.939-5.584-.77-8.265 2.168-2.681 6.028-3.327 8.622-1.444 3.773 2.74 8.003 6.092 12.608 9.979 2.44 2.061 2.523 5.796.184 8.344Zm220.088 320.504c3.356-.662 6.404 1.402 6.808 4.611 1.503 11.958 1.445 23.41-.578 34.074-.619 3.26-3.815 5.637-7.138 5.31-3.323-.328-5.516-3.236-4.898-6.496 1.744-9.188 1.854-19.4.459-30.49-.403-3.209 1.99-6.347 5.347-7.009Zm-9.205 62.752c2.586 1.893 2.917 5.595.74 8.27-3.884 4.77-8.481 9.11-13.815 12.982a155.133 155.133 0 0 1-15.463 9.885 6.63 6.63 0 0 1-2.921.848c3.712 8.728 7.001 17.407 9.815 25.97.998 3.038-.81 6.495-4.04 7.721-3.23 1.227-6.658-.242-7.656-3.28-3.396-10.336-7.528-20.897-12.305-31.554-1.303-2.906.169-6.488 3.288-8 2.091-1.013 4.39-.839 6.071.26a6.797 6.797 0 0 1 2.32-2.121 141.683 141.683 0 0 0 14.094-9.011c4.408-3.2 8.133-6.73 11.247-10.555 2.177-2.674 6.039-3.308 8.625-1.415Zm-75.742-36.213c2.907-1.903 6.662-1.284 8.388 1.383a482.64 482.64 0 0 1 17.829 29.806c1.531 2.786.329 6.442-2.685 8.166-3.014 1.723-6.698.861-8.229-1.926a472.848 472.848 0 0 0-17.44-29.154c-1.726-2.667-.77-6.372 2.137-8.275Zm-12.566-18.073c-2.797 2.059-6.604 1.663-8.501-.885a506.926 506.926 0 0 0-21.196-26.566c-2.065-2.417-1.57-6.17 1.106-8.382 2.676-2.211 6.52-2.045 8.585.372a517.542 517.542 0 0 1 21.637 27.118c1.897 2.548 1.167 6.283-1.631 8.343Zm-43.458-52.072c-2.538 2.362-6.405 2.437-8.638.167-8.124-8.259-16.427-16.059-24.826-23.293-2.42-2.084-2.467-5.823-.106-8.35 2.361-2.529 6.237-2.89 8.656-.805 8.637 7.439 17.152 15.44 25.467 23.893 2.233 2.27 1.986 6.025-.553 8.388Zm-51.048-45.156c-2.125 2.71-5.979 3.418-8.608 1.579-9.746-6.819-19.482-12.733-29.087-17.598-2.888-1.463-3.805-5.025-2.047-7.957 1.757-2.932 5.522-4.122 8.41-2.66 10.136 5.134 20.316 11.327 30.42 18.396 2.629 1.84 3.037 5.528.912 8.24Zm162.718 238.739c3.333-.817 6.494 1.093 7.06 4.266 2.238 12.551 3.193 24.691 2.627 36.154-.162 3.274-3.031 6.024-6.407 6.141-3.377.118-5.983-2.441-5.821-5.715.516-10.442-.346-21.721-2.469-33.621-.565-3.173 1.678-6.408 5.01-7.225Zm-36.569-49.78c.729 3.129-1.356 6.453-4.657 7.425-11.462 3.374-23.234 5.498-35.15 6.52-3.381.289-6.134-2.121-6.15-5.385-.016-3.263 2.712-6.144 6.092-6.433 11.127-.954 22.028-2.93 32.569-6.033 3.301-.972 6.567.777 7.296 3.906ZM108.415-14.231c-1.128 3.17-4.626 5.065-7.813 4.234-11.802-3.078-23.01-4.108-33.425-2.925-3.378.385-6.21-1.942-6.323-5.195-.114-3.254 2.532-6.203 5.911-6.587 12.269-1.395 25.02-.135 37.923 3.23 3.187.831 4.856 4.074 3.727 7.243Zm221.873 340.134c3.073 1.109 4.424 4.508 3.017 7.591-2.791 6.115-6.32 11.833-10.648 17.059a163.897 163.897 0 0 1-13.193 14.168c-2.51 2.39-6.38 2.512-8.645.272-2.264-2.24-2.065-5.994.445-8.385a150.288 150.288 0 0 0 12.099-12.996c3.536-4.27 6.463-8.992 8.811-14.136 1.407-3.083 5.04-4.683 8.114-3.573ZM228.355 215.54c-.55 3.266-3.7 5.702-7.036 5.441-11.363-.888-22.74-2.634-34.001-5.125-3.226-.713-5.023-3.884-4.013-7.081 1.01-3.198 4.444-5.212 7.67-4.499 10.763 2.38 21.583 4.038 32.337 4.878 3.335.261 5.593 3.12 5.043 6.386ZM38.482-9.695c1.84 2.59 1.034 6.316-1.802 8.323-4.437 3.142-8.708 6.967-12.774 11.549-3.671 4.137-6.576 8.442-8.79 12.877-1.518 3.04-5.197 4.515-8.217 3.295-3.021-1.221-4.24-4.675-2.722-7.716C6.922 13.136 10.49 7.87 14.913 2.885c4.712-5.31 9.756-9.847 15.102-13.633 2.836-2.008 6.627-1.536 8.467 1.053Zm125.09 212.831c-1.373 3.095-4.991 4.732-8.08 3.656a308.2 308.2 0 0 1-30.977-12.737c-2.929-1.394-3.934-4.927-2.245-7.892 1.688-2.966 5.431-4.24 8.36-2.847a296.628 296.628 0 0 0 29.836 12.269c3.089 1.076 4.48 4.457 3.106 7.551Zm118.134 175.975c1.485 2.812.226 6.455-2.811 8.135-11.237 6.215-23.275 10.914-36.035 14.047-3.333.818-6.494-1.091-7.061-4.263-.568-3.173 1.674-6.408 5.007-7.226 11.642-2.858 22.559-7.127 32.713-12.744 3.038-1.68 6.703-.762 8.187 2.051Zm-177.192-202.54c-1.964 2.816-5.787 3.743-8.538 2.069a304.167 304.167 0 0 1-27.236-18.637c-2.538-1.951-2.786-5.666-.553-8.298 2.233-2.633 6.1-3.186 8.639-1.235a293.371 293.371 0 0 0 26.263 17.971c2.751 1.673 3.389 5.313 1.425 8.13ZM3.075 46.677c3.375-.47 6.276 1.776 6.48 5.018.59 9.37 3.237 19.205 7.768 29.248 1.31 2.903-.155 6.487-3.271 8.005-3.117 1.518-6.705.395-8.015-2.508C1.09 75.475-1.975 64.36-2.665 53.4c-.204-3.241 2.366-6.252 5.74-6.723Zm50.026 91.994c-2.5 2.4-6.371 2.538-8.646.309-8.125-7.962-15.423-16.227-21.715-24.66-1.9-2.547-1.173-6.282 1.623-8.344 2.796-2.061 6.603-1.669 8.503.878 5.935 7.954 12.866 15.813 20.642 23.433 2.275 2.23 2.093 5.983-.407 8.384ZM212.65 399.889c-.226 3.276-3.143 5.977-6.516 6.033-11.816.195-24.076-.753-36.737-2.86-3.274-.545-5.249-3.606-4.409-6.837.839-3.23 4.175-5.407 7.449-4.862 12.001 1.997 23.515 2.878 34.514 2.696 3.373-.056 5.925 2.555 5.699 5.83Zm-69.6-8.985c-1.274 3.127-4.845 4.871-7.976 3.895-10.86-3.386-21.972-7.551-33.316-12.509-2.98-1.302-4.098-4.795-2.5-7.801 1.598-3.007 5.309-4.389 8.288-3.087 10.994 4.805 21.714 8.821 32.141 12.071 3.132.977 4.637 4.303 3.363 7.431Zm-63.679-26.197c-1.835 2.891-5.625 3.984-8.464 2.442-9.877-5.365-19.912-11.302-30.092-17.818-2.709-1.733-3.265-5.393-1.242-8.173 2.023-2.78 5.858-3.628 8.567-1.894 9.973 6.384 19.782 12.185 29.414 17.417 2.839 1.542 3.652 5.136 1.817 8.026Zm-57.905-35.93c-2.167 2.681-6.027 3.329-8.622 1.446a679.484 679.484 0 0 1-27.466-21.048c-2.489-2.007-2.652-5.734-.364-8.323 2.287-2.589 6.16-3.061 8.648-1.054a669.073 669.073 0 0 0 27.03 20.715c2.595 1.882 2.941 5.582.774 8.264Zm-53.12-41.991c-2.385 2.507-6.26 2.831-8.657.722a890.3 890.3 0 0 1-25.4-23.26c-2.31-2.197-2.18-5.948.288-8.379 2.468-2.431 6.342-2.62 8.651-.424a878.181 878.181 0 0 0 25.097 22.983c2.396 2.108 2.405 5.85.02 8.358Zm-49.333-46.241c-2.539 2.362-6.406 2.436-8.638.165a1114.12 1114.12 0 0 1-23.589-24.756c-2.16-2.336-1.803-6.092.798-8.389 2.601-2.297 6.46-2.265 8.619.071 7.84 8.481 15.63 16.653 23.365 24.521 2.232 2.27 1.984 6.026-.555 8.388Zm-45.968-49.151c-2.653 2.238-6.502 2.113-8.597-.28a1353.323 1353.323 0 0 1-22.186-26.011c-2.033-2.444-1.49-6.194 1.211-8.376 2.701-2.182 6.539-1.97 8.571.474a1343.979 1343.979 0 0 0 22.013 25.808c2.095 2.393 1.642 6.147-1.012 8.385Zm-43.285-51.551c-2.743 2.131-6.568 1.841-8.544-.648a1568.172 1568.172 0 0 1-10.638-13.551c-1.948-2.51-1.287-6.252 1.475-8.358 2.763-2.106 6.582-1.778 8.53.732 3.529 4.547 7.051 9.034 10.566 13.461 1.976 2.488 1.354 6.233-1.389 8.364Z" clip-rule="evenodd"/><path fill="#FE6D44" d="m149.407 238.86-84.093 89.518 189.546-26.551-105.453-62.967Z"/><path fill="#1B1F21" fill-rule="evenodd" d="m237.912 296.476-4.469.626a1.573 1.573 0 0 0 .436 3.113l4.469-.626a1.572 1.572 0 1 0-.436-3.113Zm-17.878 2.505-8.94 1.252a1.572 1.572 0 0 0 .437 3.113l8.939-1.252a1.572 1.572 0 0 0-.436-3.113Zm-22.348 3.13-8.94 1.252a1.573 1.573 0 0 0 .436 3.113l8.94-1.252a1.571 1.571 0 1 0-.436-3.113Zm-22.348 3.131-8.94 1.252a1.572 1.572 0 0 0 .436 3.113l8.94-1.253a1.57 1.57 0 1 0-.436-3.112Zm-22.348 3.13-8.94 1.252a1.572 1.572 0 0 0 .436 3.113l8.94-1.252a1.572 1.572 0 0 0-.436-3.113Zm-22.349 3.13-8.939 1.253a1.571 1.571 0 1 0 .436 3.113l8.94-1.253a1.571 1.571 0 1 0-.437-3.113Zm-22.348 3.131-8.939 1.252a1.572 1.572 0 0 0 .436 3.113l8.939-1.252a1.573 1.573 0 0 0-.436-3.113Zm-22.348 3.13-4.47.627a1.57 1.57 0 1 0 .437 3.112l4.47-.626a1.571 1.571 0 1 0-.437-3.113Z" clip-rule="evenodd"/><path fill="#FE6D44" d="m151.865 252.551 102.995 49.275-17.503-124.952-85.492 75.677Z"/><path fill="#FCFAF9" fill-opacity=".12" d="m151.865 252.551 102.995 49.275-17.503-124.952-85.492 75.677Z"/><path fill="#1B1F21" fill-rule="evenodd" d="M247.848 291.205c.473-.341.718-.916.637-1.493l-.719-5.13a1.571 1.571 0 1 0-3.113.436l.306 2.184-1.88-.93a1.57 1.57 0 1 0-1.394 2.817l4.546 2.25a1.572 1.572 0 0 0 1.617-.134Zm-2.857-15.108a1.572 1.572 0 0 0 1.338-1.775l-1.437-10.26a1.572 1.572 0 0 0-3.113.437l1.437 10.259c.121.86.915 1.459 1.775 1.339Zm-2.875-20.52a1.572 1.572 0 0 0 1.339-1.774l-1.437-10.26a1.573 1.573 0 0 0-3.113.436l1.437 10.26c.12.859.915 1.458 1.774 1.338Zm-2.874-20.52a1.57 1.57 0 0 0 1.338-1.774l-1.437-10.26a1.572 1.572 0 1 0-3.113.436l1.437 10.26a1.572 1.572 0 0 0 1.775 1.338Zm-2.874-20.52a1.571 1.571 0 0 0 1.338-1.774l-.719-5.13a1.571 1.571 0 0 0-3.113.436l.719 5.13c.121.86.915 1.459 1.775 1.338Zm-1.67 69.341a1.572 1.572 0 0 0-.711-2.106l-9.093-4.5a1.572 1.572 0 0 0-1.394 2.818l9.092 4.499a1.572 1.572 0 0 0 2.106-.711Zm-18.185-9a1.571 1.571 0 0 0-.712-2.105l-9.092-4.5a1.572 1.572 0 0 0-1.394 2.817l9.092 4.5a1.572 1.572 0 0 0 2.106-.712Zm-18.185-8.999a1.572 1.572 0 0 0-.712-2.106l-9.093-4.499a1.57 1.57 0 1 0-1.394 2.817l9.093 4.5a1.572 1.572 0 0 0 2.106-.712Zm-18.186-8.999a1.572 1.572 0 0 0-.711-2.106l-4.546-2.25a1.572 1.572 0 0 0-1.395 2.817l4.547 2.25a1.57 1.57 0 0 0 2.105-.711Z" clip-rule="evenodd"/><path fill="#FE6D44" d="m150.806 252.7-85.492 75.678L47.81 203.425 150.806 252.7Z"/><path fill="#FCFAF9" fill-opacity=".12" d="m150.806 252.7-85.492 75.678L47.81 203.425 150.806 252.7Z"/><path fill="#1B1F21" fill-rule="evenodd" d="M55.5 213.625a1.573 1.573 0 0 1 1.777 1.336l.703 4.962a1.572 1.572 0 0 1-3.113.441l-.702-4.962a1.572 1.572 0 0 1 1.336-1.777Zm2.108 14.886a1.571 1.571 0 0 1 1.776 1.336l1.405 9.924a1.571 1.571 0 1 1-3.113.44l-1.404-9.924a1.572 1.572 0 0 1 1.336-1.776Zm2.809 19.848a1.571 1.571 0 0 1 1.776 1.336l1.405 9.923a1.572 1.572 0 0 1-3.112.441l-1.405-9.924a1.571 1.571 0 0 1 1.336-1.776Zm2.809 19.847a1.573 1.573 0 0 1 1.776 1.336l1.405 9.924a1.571 1.571 0 1 1-3.112.44l-1.405-9.923a1.572 1.572 0 0 1 1.336-1.777Zm2.81 19.848a1.571 1.571 0 0 1 1.775 1.336l1.405 9.924a1.572 1.572 0 0 1-3.112.44l-1.405-9.924a1.571 1.571 0 0 1 1.336-1.776Zm2.808 19.847a1.573 1.573 0 0 1 1.777 1.336l.286 2.022 1.556-1.415a1.572 1.572 0 0 1 2.114 2.326l-3.753 3.412a1.572 1.572 0 0 1-2.613-.942l-.703-4.962a1.572 1.572 0 0 1 1.336-1.777Zm11.02-2.661a1.573 1.573 0 0 1 .105-2.221l7.506-6.824a1.572 1.572 0 0 1 2.115 2.325l-7.506 6.825a1.572 1.572 0 0 1-2.22-.105Zm15.012-13.65a1.572 1.572 0 0 1 .106-2.22l7.506-6.825a1.572 1.572 0 1 1 2.115 2.326l-7.507 6.824a1.572 1.572 0 0 1-2.22-.105Zm15.013-13.65a1.572 1.572 0 0 1 .105-2.22l7.507-6.825a1.572 1.572 0 0 1 2.114 2.326l-7.506 6.825a1.572 1.572 0 0 1-2.22-.106Zm15.012-13.649a1.573 1.573 0 0 1 .106-2.221l3.753-3.412a1.57 1.57 0 1 1 2.115 2.326l-3.754 3.412a1.572 1.572 0 0 1-2.22-.105Z" clip-rule="evenodd"/><path fill="#FE6D44" d="M153.264 266.391 47.811 203.425l189.546-26.552-84.093 89.518Z"/><path fill="#FCFAF9" fill-opacity=".25" d="M153.264 266.391 47.811 203.425l189.546-26.552-84.093 89.518Z"/><path fill="#1B1F21" fill-rule="evenodd" d="M228.795 175.388c.719.676.754 1.806.079 2.525l-3.034 3.229a1.786 1.786 0 1 1-2.603-2.446l3.033-3.229a1.787 1.787 0 0 1 2.525-.079Zm-173.16 24.256a1.787 1.787 0 0 1 2.45-.618l3.803 2.272a1.786 1.786 0 1 1-1.831 3.067l-3.804-2.272a1.786 1.786 0 0 1-.618-2.449Zm163.593-14.072c.719.676.754 1.806.079 2.525l-6.067 6.458a1.786 1.786 0 1 1-2.603-2.446l6.067-6.458a1.786 1.786 0 0 1 2.524-.079ZM67.632 206.807a1.786 1.786 0 0 1 2.45-.617l7.607 4.542a1.786 1.786 0 0 1-1.831 3.067l-7.608-4.542a1.787 1.787 0 0 1-.618-2.45Zm138.996-7.822c.719.675.754 1.806.079 2.525l-6.067 6.458a1.786 1.786 0 0 1-2.603-2.446l6.067-6.458a1.786 1.786 0 0 1 2.524-.079ZM83.433 216.242a1.787 1.787 0 0 1 2.449-.618l7.607 4.543a1.786 1.786 0 1 1-1.831 3.067l-7.608-4.543a1.786 1.786 0 0 1-.617-2.449Zm110.595-3.844c.719.675.754 1.805.079 2.524l-6.067 6.458a1.785 1.785 0 1 1-2.603-2.445l6.067-6.458a1.785 1.785 0 0 1 2.524-.079Zm-94.795 13.279a1.786 1.786 0 0 1 2.449-.618l7.608 4.542a1.787 1.787 0 0 1-1.832 3.067l-7.607-4.542a1.786 1.786 0 0 1-.618-2.449Zm82.195.134c.719.675.754 1.805.079 2.524l-6.067 6.458a1.786 1.786 0 1 1-2.603-2.445l6.066-6.458a1.786 1.786 0 0 1 2.525-.079Zm-66.395 9.3a1.788 1.788 0 0 1 2.45-.618l7.607 4.543a1.786 1.786 0 1 1-1.831 3.067l-7.608-4.543a1.787 1.787 0 0 1-.618-2.449Zm53.795 4.112c.719.676.754 1.806.079 2.525l-6.067 6.458a1.786 1.786 0 1 1-2.603-2.446l6.066-6.458a1.787 1.787 0 0 1 2.525-.079Zm-37.994 5.323a1.786 1.786 0 0 1 2.449-.618l7.608 4.542a1.786 1.786 0 0 1-1.832 3.067l-7.607-4.542a1.786 1.786 0 0 1-.618-2.449Zm15.8 9.434a1.788 1.788 0 0 1 2.45-.618l2.57 1.535 2.049-2.182a1.787 1.787 0 0 1 2.604 2.446l-3.034 3.229a1.786 1.786 0 0 1-2.217.311l-3.804-2.272a1.786 1.786 0 0 1-.618-2.449Z" clip-rule="evenodd"/><circle cx="234.639" cy="180.773" r="21.778" fill="#57ACBC" transform="rotate(-7.974 234.639 180.773)"/><path fill="#FFFFFE" d="m243.241 184.096.585 4.178-14.378 2.014-.585-4.177 4.515-.633-1.182-8.437-4.515.632-.441-3.147c1.227-.245 2.568-.756 4.023-1.531 1.451-.794 2.698-1.641 3.739-2.543l1.856-.26 2.033 14.514 4.35-.61Z"/><g filter="url(#b)" opacity=".62"><path fill="#FE6D44" d="M153.478 92.56 111 111.307l69.89 18.726-27.412-37.475Z"/><path fill="#1B1F21" fill-rule="evenodd" d="m175.785 125.653-1.648-.441a.614.614 0 1 0-.318 1.185l1.648.442a.614.614 0 0 0 .318-1.186Zm-6.592-1.766-3.296-.883a.613.613 0 1 0-.318 1.186l3.296.883a.615.615 0 0 0 .318-1.186Zm-8.24-2.208-3.296-.883a.613.613 0 1 0-.318 1.186l3.296.883a.614.614 0 0 0 .318-1.186Zm-8.24-2.208-3.296-.883a.613.613 0 1 0-.318 1.186l3.296.883a.615.615 0 0 0 .318-1.186Zm-8.24-2.208-3.296-.883a.613.613 0 1 0-.318 1.186l3.296.883a.615.615 0 0 0 .318-1.186Zm-8.241-2.208-3.296-.883a.614.614 0 0 0-.317 1.186l3.296.883a.615.615 0 0 0 .317-1.186Zm-8.24-2.208-3.296-.883a.614.614 0 1 0-.318 1.186l3.297.883a.613.613 0 1 0 .317-1.186Zm-8.24-2.208-1.648-.441a.614.614 0 1 0-.318 1.185l1.648.442a.614.614 0 0 0 .318-1.186Z" clip-rule="evenodd"/><path fill="#FE6D44" d="m152.312 97.688 28.577 32.347 12.345-46.072-40.922 13.725Z"/><path fill="#FCFAF9" fill-opacity=".12" d="m152.312 97.688 28.577 32.347 12.345-46.072-40.922 13.725Z"/><path fill="#000" fill-rule="evenodd" d="M180.021 125.322a.614.614 0 0 0 .456-.439l.507-1.892a.615.615 0 0 0-1.186-.318l-.206.769-.493-.572a.614.614 0 1 0-.931.8l1.251 1.454c.148.173.38.249.602.198Zm1.225-5.68a.612.612 0 0 0 .751-.434l1.014-3.783a.614.614 0 1 0-1.186-.318l-1.013 3.783a.613.613 0 0 0 .434.752Zm2.027-7.566a.614.614 0 0 0 .752-.434l1.013-3.783a.614.614 0 1 0-1.186-.318l-1.013 3.783a.613.613 0 0 0 .434.752Zm2.027-7.566a.614.614 0 0 0 .752-.434l1.014-3.783a.614.614 0 0 0-1.186-.318l-1.014 3.783a.614.614 0 0 0 .434.752Zm2.028-7.566a.613.613 0 0 0 .751-.434l.507-1.892a.613.613 0 1 0-1.186-.317l-.507 1.891a.615.615 0 0 0 .435.752Zm-10.795 23.884a.614.614 0 0 0 .065-.866l-2.5-2.908a.614.614 0 0 0-.931.801l2.5 2.907a.614.614 0 0 0 .866.066Zm-5.001-5.816a.614.614 0 0 0 .065-.866l-2.501-2.907a.614.614 0 1 0-.931.8l2.501 2.908a.614.614 0 0 0 .866.065Zm-5.002-5.815a.614.614 0 0 0 .065-.866l-2.5-2.908a.614.614 0 0 0-.931.801l2.5 2.907a.614.614 0 0 0 .866.066Zm-5.001-5.816a.614.614 0 0 0 .065-.866l-1.251-1.454a.613.613 0 1 0-.93.801l1.25 1.454a.614.614 0 0 0 .866.065Z" clip-rule="evenodd"/><path fill="#FE6D44" d="M151.922 97.582 111 111.308l12.345-46.073 28.577 32.347Z"/><path fill="#FCFAF9" fill-opacity=".12" d="M151.922 97.582 111 111.308l12.345-46.073 28.577 32.347Z"/><path fill="#000" fill-rule="evenodd" d="M124.522 69.902a.614.614 0 0 1 .435.751l-.488 1.83a.613.613 0 1 1-1.186-.315l.488-1.831a.613.613 0 0 1 .751-.435Zm-1.463 5.492a.615.615 0 0 1 .435.75l-.976 3.662a.613.613 0 1 1-1.186-.316l.975-3.661a.615.615 0 0 1 .752-.435Zm-1.951 7.322a.614.614 0 0 1 .435.751l-.975 3.662a.615.615 0 0 1-1.187-.317l.976-3.66a.613.613 0 0 1 .751-.436Zm-1.951 7.323a.614.614 0 0 1 .435.75l-.975 3.662a.614.614 0 0 1-1.187-.316l.976-3.661a.613.613 0 0 1 .751-.436Zm-1.951 7.322a.613.613 0 0 1 .435.751l-.975 3.661a.614.614 0 1 1-1.186-.316l.975-3.66a.614.614 0 0 1 .751-.436Zm-1.951 7.322a.615.615 0 0 1 .436.752l-.19.709.715-.25a.614.614 0 1 1 .406 1.159l-1.809.634a.617.617 0 0 1-.621-.129.618.618 0 0 1-.176-.609l.488-1.83a.614.614 0 0 1 .751-.436Zm4.205.725a.613.613 0 0 1 .376-.782l3.62-1.268a.614.614 0 0 1 .406 1.159l-3.62 1.268a.614.614 0 0 1-.782-.377Zm7.239-2.535a.613.613 0 0 1 .376-.782l3.62-1.268a.613.613 0 1 1 .406 1.159l-3.62 1.267a.613.613 0 0 1-.782-.376Zm7.239-2.536a.613.613 0 0 1 .376-.782l3.62-1.268a.614.614 0 1 1 .406 1.159l-3.62 1.268a.614.614 0 0 1-.782-.377Zm7.239-2.535a.614.614 0 0 1 .377-.783l1.809-.634a.615.615 0 0 1 .406 1.16l-1.81.633a.614.614 0 0 1-.782-.376Z" clip-rule="evenodd"/><path fill="#FE6D44" d="m150.757 102.712-27.412-37.476 69.89 18.727-42.478 18.749Z"/><path fill="#FCFAF9" fill-opacity=".25" d="m150.757 102.712-27.412-37.476 69.89 18.727-42.478 18.749Z"/><path fill="#1B1F21" fill-rule="evenodd" d="M190.494 82.173a.697.697 0 0 1-.356.92l-1.533.676a.697.697 0 1 1-.563-1.276l1.532-.677a.697.697 0 0 1 .92.357Zm-63.881-17.117a.698.698 0 0 1 .975.151l.989 1.352a.698.698 0 0 1-1.126.824l-.989-1.352a.698.698 0 0 1 .151-.975Zm59.049 19.25a.698.698 0 0 1-.357.92l-3.064 1.352a.698.698 0 1 1-.563-1.276l3.064-1.353a.698.698 0 0 1 .92.357Zm-55.93-14.987a.698.698 0 0 1 .975.151l1.977 2.704a.697.697 0 1 1-1.126.824l-1.978-2.704a.698.698 0 0 1 .152-.975Zm49.565 17.796a.697.697 0 0 1-.356.92l-3.065 1.352a.698.698 0 0 1-.563-1.276l3.064-1.353a.697.697 0 0 1 .92.357Zm-45.458-12.18a.698.698 0 0 1 .975.15l1.977 2.704a.697.697 0 1 1-1.126.824l-1.977-2.704a.697.697 0 0 1 .151-.975Zm39.094 14.99a.698.698 0 0 1-.357.919l-3.064 1.353a.697.697 0 1 1-.564-1.277l3.065-1.352a.698.698 0 0 1 .92.356Zm-34.987-9.376a.698.698 0 0 1 .975.152l1.978 2.703a.698.698 0 1 1-1.126.824l-1.978-2.704a.698.698 0 0 1 .151-.975Zm28.622 12.184a.697.697 0 0 1-.356.92l-3.065 1.353a.698.698 0 0 1-.563-1.277l3.064-1.352a.697.697 0 0 1 .92.356Zm-24.515-6.568a.698.698 0 0 1 .975.15l1.978 2.704a.698.698 0 0 1-1.126.824l-1.978-2.704a.699.699 0 0 1 .151-.974Zm18.151 9.377a.698.698 0 0 1-.357.92l-3.064 1.353a.697.697 0 1 1-.564-1.276l3.065-1.353a.698.698 0 0 1 .92.356Zm-14.043-3.762a.698.698 0 0 1 .975.15l1.977 2.704a.697.697 0 1 1-1.126.824l-1.977-2.703a.697.697 0 0 1 .151-.975Zm4.107 5.615a.698.698 0 0 1 .975.151l.657.899 1.019-.45a.697.697 0 1 1 .564 1.276l-1.533.677a.697.697 0 0 1-.844-.226l-.989-1.352a.697.697 0 0 1 .151-.975Z" clip-rule="evenodd"/></g></g><defs><filter id="b" width="98.234" height="81.114" x="103" y="56.921" color-interpolation-filters="sRGB" filterUnits="userSpaceOnUse"><feFlood flood-opacity="0" result="BackgroundImageFix"/><feBlend in="SourceGraphic" in2="BackgroundImageFix" result="shape"/><feGaussianBlur result="effect1_foregroundBlur_3872_1288" stdDeviation="4"/></filter></defs></svg>