<svg xmlns="http://www.w3.org/2000/svg" width="288" height="498" fill="none"><mask id="a" width="288" height="498" x="0" y="0" maskUnits="userSpaceOnUse" style="mask-type:alpha"><path fill="#1B1F21" d="M0 78.411C0 35.106 35.106 0 78.411 0s78.411 35.106 78.411 78.411v341.178c0 43.305-35.106 78.411-78.411 78.411S0 462.894 0 419.589V78.411Z"/><path fill="#1B1F21" d="M131.178 78.411C131.178 35.106 166.284 0 209.589 0S288 35.106 288 78.411v341.178C288 462.894 252.894 498 209.589 498s-78.411-35.106-78.411-78.411V78.411Z"/></mask><g mask="url(#a)"><path fill="#1B1F21" d="M0 0h288v516H0z"/><path fill="#434343" fill-rule="evenodd" d="M285.158 38.555a853.931 853.931 0 0 0-17.836-26.26c-1.857-2.63-1.05-6.422 1.804-8.467 2.853-2.046 6.672-1.571 8.529 1.06a865.987 865.987 0 0 1 18.059 26.59c1.759 2.698.822 6.471-2.093 8.426-2.915 1.954-6.704 1.35-8.463-1.349Zm-27.554-50.497c-2.798 2.12-6.639 1.756-8.578-.815A1086.497 1086.497 0 0 0 229.5-37.859c-2.013-2.513-1.42-6.325 1.325-8.514 2.745-2.189 6.603-1.927 8.617.586a1098.75 1098.75 0 0 1 19.718 25.35c1.939 2.57 1.242 6.374-1.556 8.495Zm46.355 68.45c2.983-1.844 6.731-1.09 8.372 1.686 5.589 9.456 10.846 18.898 15.687 28.258 1.483 2.868.201 6.569-2.864 8.266-3.064 1.698-6.751.75-8.234-2.118-4.738-9.16-9.895-18.424-15.393-27.726-1.64-2.776-.552-6.521 2.432-8.366ZM218.403-61.447c-2.695 2.25-6.566 2.083-8.647-.374A1133.802 1133.802 0 0 0 188.9-85.76c-2.15-2.398-1.753-6.218.886-8.532 2.64-2.314 6.523-2.245 8.673.154a1142.46 1142.46 0 0 1 21.053 24.165c2.082 2.457 1.585 6.274-1.109 8.526Zm115.154 173.851c3.159-1.499 6.749-.301 8.02 2.676 4.46 10.447 8.273 20.721 11.305 30.722.944 3.113-.943 6.601-4.214 7.79-3.271 1.188-6.688-.372-7.632-3.485-2.897-9.559-6.566-19.457-10.897-29.6-1.27-2.977.26-6.605 3.418-8.103ZM176.494-108.695c-2.579 2.38-6.472 2.417-8.694.083-7.813-8.203-15.3-15.769-22.311-22.578-2.314-2.246-2.165-6.063.333-8.524 2.498-2.462 6.398-2.636 8.712-.389 7.12 6.915 14.706 14.581 22.605 22.875 2.223 2.334 1.934 6.154-.645 8.533Zm-45.127-44.346c-2.355 2.591-6.258 2.992-8.716.896-4.497-3.834-8.545-7.068-12.075-9.658-2.612-1.915-2.96-5.679-.776-8.406 2.184-2.727 6.071-3.384 8.683-1.469 3.8 2.788 8.061 6.197 12.698 10.151 2.458 2.096 2.541 5.895.186 8.486Zm221.651 326.009c3.38-.673 6.45 1.427 6.856 4.691 1.514 12.163 1.456 23.812-.582 34.659-.623 3.316-3.841 5.734-7.189 5.4-3.347-.333-5.555-3.291-4.932-6.607 1.756-9.345 1.866-19.733.462-31.014-.406-3.264 2.004-6.455 5.385-7.129Zm-9.271 63.83c2.605 1.926 2.938 5.691.746 8.412-3.911 4.851-8.542 9.266-13.914 13.205a156.171 156.171 0 0 1-15.572 10.055 6.632 6.632 0 0 1-2.942.862c3.739 8.879 7.051 17.706 9.885 26.416 1.005 3.09-.816 6.607-4.069 7.854-3.253 1.247-6.705-.247-7.71-3.337-3.421-10.513-7.582-21.255-12.393-32.095-1.312-2.957.171-6.6 3.312-8.138 2.105-1.03 4.421-.853 6.114.265a6.881 6.881 0 0 1 2.336-2.158 142.433 142.433 0 0 0 14.194-9.165c4.44-3.255 8.191-6.846 11.327-10.737 2.193-2.72 6.082-3.364 8.686-1.439Zm-76.28-36.835c2.928-1.936 6.71-1.306 8.448 1.407a491.814 491.814 0 0 1 17.956 30.318c1.542 2.834.331 6.553-2.704 8.305-3.036 1.753-6.746.877-8.288-1.958a481.46 481.46 0 0 0-17.564-29.655c-1.738-2.713-.775-6.481 2.152-8.417Zm-12.654-18.384c-2.818 2.095-6.651 1.692-8.562-.9a515.263 515.263 0 0 0-21.346-27.022c-2.081-2.458-1.582-6.275 1.113-8.525 2.695-2.25 6.566-2.081 8.647.377a526.185 526.185 0 0 1 21.79 27.584c1.911 2.592 1.175 6.392-1.642 8.486Zm-43.767-52.966c-2.556 2.403-6.451 2.479-8.7.17-8.182-8.4-16.543-16.334-25.002-23.693-2.437-2.119-2.485-5.922-.107-8.494 2.378-2.572 6.281-2.938 8.717-.818 8.699 7.566 17.275 15.705 25.648 24.303 2.249 2.309 2 6.129-.556 8.532Zm-51.411-45.932c-2.14 2.758-6.022 3.477-8.669 1.607-9.815-6.936-19.621-12.952-29.294-17.9-2.909-1.489-3.832-5.112-2.062-8.094 1.77-2.982 5.562-4.193 8.471-2.705 10.207 5.221 20.46 11.52 30.636 18.711 2.647 1.871 3.058 5.623.918 8.381Zm163.874 242.84c3.357-.831 6.54 1.112 7.11 4.339 2.254 12.767 3.216 25.115 2.645 36.775-.163 3.33-3.052 6.127-6.452 6.247-3.401.12-6.026-2.483-5.863-5.813.52-10.622-.348-22.095-2.485-34.199-.57-3.228 1.689-6.518 5.045-7.349Zm-36.829-50.635c.734 3.182-1.366 6.564-4.69 7.552-11.544 3.432-23.399 5.593-35.4 6.632-3.404.295-6.177-2.157-6.193-5.477-.017-3.319 2.73-6.249 6.135-6.544 11.205-.97 22.184-2.98 32.8-6.136 3.324-.989 6.614.79 7.348 3.973ZM98.43 49.87c-1.137 3.223-4.66 5.151-7.869 4.306-11.886-3.13-23.174-4.179-33.663-2.974-3.402.39-6.253-1.976-6.368-5.285-.115-3.31 2.55-6.31 5.953-6.7 12.356-1.42 25.198-.137 38.193 3.285 3.21.846 4.89 4.144 3.754 7.368Zm223.448 345.975c3.095 1.129 4.456 4.586 3.039 7.721-2.811 6.221-6.366 12.036-10.724 17.352a166.111 166.111 0 0 1-13.286 14.412c-2.528 2.431-6.426 2.556-8.707.277-2.28-2.279-2.08-6.097.448-8.529a152.506 152.506 0 0 0 12.185-13.219c3.561-4.344 6.509-9.147 8.874-14.379 1.417-3.136 5.075-4.763 8.171-3.635ZM219.221 283.587c-.554 3.322-3.726 5.8-7.085 5.535-11.445-.904-22.902-2.68-34.243-5.213-3.249-.726-5.059-3.951-4.042-7.204 1.017-3.252 4.475-5.301 7.725-4.575 10.839 2.421 21.736 4.107 32.566 4.962 3.36.265 5.633 3.173 5.079 6.495ZM28 54.484c1.853 2.633 1.04 6.424-1.815 8.466-4.47 3.196-8.77 7.086-12.865 11.747-3.698 4.208-6.623 8.587-8.852 13.098-1.529 3.092-5.234 4.593-8.276 3.351s-4.27-4.755-2.74-7.848C-3.786 77.707-.192 72.35 4.261 67.28c4.746-5.4 9.826-10.017 15.21-13.867 2.856-2.042 6.674-1.563 8.527 1.07ZM153.978 270.97c-1.383 3.148-5.026 4.813-8.137 3.719a308.38 308.38 0 0 1-31.197-12.957c-2.95-1.417-3.962-5.011-2.262-8.027 1.701-3.016 5.471-4.313 8.42-2.895a297.205 297.205 0 0 0 30.048 12.48c3.111 1.094 4.511 4.532 3.128 7.68Zm118.973 178.997c1.495 2.861.228 6.566-2.831 8.275-11.316 6.322-23.441 11.101-36.291 14.288-3.356.832-6.54-1.109-7.111-4.336-.572-3.227 1.686-6.518 5.042-7.35 11.725-2.907 22.719-7.25 32.946-12.963 3.059-1.709 6.751-.775 8.245 2.086ZM94.501 243.948c-1.978 2.865-5.828 3.808-8.6 2.106a306.465 306.465 0 0 1-27.429-18.958c-2.556-1.984-2.805-5.763-.557-8.441 2.25-2.677 6.144-3.24 8.7-1.256a295.468 295.468 0 0 0 26.45 18.28c2.771 1.702 3.414 5.404 1.436 8.269ZM-7.66 111.824c3.399-.479 6.32 1.806 6.526 5.104.594 9.532 3.26 19.535 7.823 29.75 1.319 2.953-.156 6.599-3.295 8.143-3.138 1.544-6.752.402-8.071-2.552-4.982-11.153-8.069-22.458-8.764-33.606-.205-3.298 2.383-6.36 5.781-6.839Zm50.382 93.573c-2.518 2.442-6.417 2.583-8.709.315-8.182-8.098-15.532-16.506-21.869-25.084-1.913-2.59-1.181-6.389 1.635-8.487 2.816-2.097 6.65-1.697 8.563.893 5.977 8.091 12.958 16.085 20.79 23.836 2.29 2.268 2.107 6.086-.41 8.527Zm160.682 265.705c-.228 3.333-3.166 6.08-6.563 6.136-11.9.199-24.246-.765-36.997-2.909-3.298-.554-5.286-3.667-4.441-6.954.846-3.286 4.204-5.5 7.502-4.946 12.086 2.032 23.682 2.928 34.759 2.743 3.397-.057 5.967 2.598 5.74 5.93Zm-70.094-9.14c-1.283 3.182-4.88 4.956-8.033 3.963-10.937-3.444-22.128-7.681-33.553-12.725-3-1.324-4.127-4.876-2.518-7.935 1.61-3.058 5.347-4.463 8.347-3.139 11.072 4.887 21.868 8.972 32.37 12.278 3.153.993 4.67 4.377 3.387 7.558Zm-64.132-26.646c-1.849 2.94-5.665 4.052-8.524 2.484-9.947-5.458-20.053-11.496-30.306-18.124-2.728-1.763-3.288-5.485-1.251-8.313 2.037-2.828 5.9-3.691 8.628-1.927 10.044 6.493 19.922 12.394 29.623 17.716 2.859 1.568 3.678 5.224 1.83 8.164Zm-58.316-36.548c-2.183 2.728-6.07 3.386-8.683 1.471a683.543 683.543 0 0 1-27.662-21.409c-2.506-2.042-2.67-5.832-.367-8.466 2.304-2.634 6.204-3.114 8.71-1.072a673.168 673.168 0 0 0 27.223 21.07c2.613 1.915 2.961 5.679.779 8.406Zm-53.498-42.711c-2.402 2.55-6.305 2.879-8.718.734a899.073 899.073 0 0 1-25.581-23.66c-2.326-2.234-2.196-6.05.29-8.523 2.486-2.472 6.387-2.665 8.713-.43a890.22 890.22 0 0 0 25.275 23.377c2.413 2.144 2.423 5.951.02 8.502Zm-49.683-47.036c-2.557 2.402-6.452 2.478-8.7.168a1130.28 1130.28 0 0 1-23.756-25.181c-2.175-2.376-1.816-6.197.803-8.533 2.62-2.336 6.506-2.304 8.681.072a1116.9 1116.9 0 0 0 23.53 24.942c2.249 2.31 1.999 6.13-.558 8.532Zm-46.295-49.995c-2.672 2.277-6.548 2.149-8.658-.285a1371.914 1371.914 0 0 1-22.344-26.457c-2.046-2.486-1.5-6.301 1.22-8.52 2.721-2.22 6.586-2.004 8.632.482a1358.863 1358.863 0 0 0 22.17 26.251c2.109 2.434 1.653 6.252-1.02 8.529Zm-43.592-52.436c-2.763 2.168-6.615 1.873-8.605-.659a1591.974 1591.974 0 0 1-10.713-13.784c-1.962-2.554-1.297-6.36 1.485-8.501 2.783-2.142 6.629-1.809 8.591.744 3.554 4.626 7.101 9.189 10.64 13.692 1.99 2.531 1.364 6.341-1.398 8.508Z" clip-rule="evenodd"/><path fill="#FE6D44" d="m140.407 312.502-84.093 90.413 189.546-26.817-105.453-63.596Z"/><path fill="#1B1F21" fill-rule="evenodd" d="m228.912 370.694-4.469.632a1.585 1.585 0 0 0-1.339 1.792c.12.869.915 1.474 1.775 1.352l4.469-.632a1.585 1.585 0 0 0 1.339-1.792 1.574 1.574 0 0 0-1.775-1.352Zm-17.878 2.529-8.94 1.265a1.585 1.585 0 0 0-1.338 1.792c.12.868.915 1.474 1.775 1.352l8.939-1.265a1.584 1.584 0 0 0 1.338-1.792 1.574 1.574 0 0 0-1.774-1.352Zm-22.348 3.162-8.94 1.265a1.585 1.585 0 0 0-1.338 1.792c.12.868.915 1.473 1.774 1.352l8.94-1.265a1.585 1.585 0 0 0 1.338-1.792 1.573 1.573 0 0 0-1.774-1.352Zm-22.348 3.162-8.94 1.264a1.586 1.586 0 0 0-1.338 1.793c.12.868.915 1.473 1.774 1.351l8.94-1.264a1.585 1.585 0 0 0 1.338-1.793 1.573 1.573 0 0 0-1.774-1.351Zm-22.348 3.161-8.94 1.265a1.585 1.585 0 0 0-1.338 1.792c.12.869.915 1.474 1.774 1.352l8.94-1.264a1.586 1.586 0 0 0 1.338-1.793 1.575 1.575 0 0 0-1.774-1.352Zm-22.349 3.162-8.939 1.265a1.585 1.585 0 0 0-1.338 1.792c.12.868.915 1.474 1.774 1.352l8.94-1.265a1.585 1.585 0 0 0 1.338-1.792 1.575 1.575 0 0 0-1.775-1.352Zm-22.348 3.162-8.939 1.265a1.584 1.584 0 0 0-1.338 1.792c.12.868.915 1.473 1.774 1.352l8.94-1.265a1.585 1.585 0 0 0 1.338-1.792 1.574 1.574 0 0 0-1.775-1.352Zm-22.348 3.162-4.47.632a1.585 1.585 0 0 0-1.338 1.792c.12.869.915 1.474 1.775 1.352l4.47-.632a1.585 1.585 0 0 0 1.338-1.792 1.574 1.574 0 0 0-1.775-1.352Z" clip-rule="evenodd"/><path fill="#FE6D44" d="m142.865 326.329 102.995 49.768-17.503-126.202-85.492 76.434Z"/><path fill="#FCFAF9" fill-opacity=".12" d="m142.865 326.329 102.995 49.768-17.503-126.202-85.492 76.434Z"/><path fill="#1B1F21" fill-rule="evenodd" d="M238.848 365.37c.473-.345.718-.925.637-1.507l-.719-5.182a1.575 1.575 0 0 0-1.774-1.352 1.586 1.586 0 0 0-1.339 1.793l.306 2.205-1.88-.939a1.564 1.564 0 0 0-2.105.718 1.595 1.595 0 0 0 .711 2.127l4.546 2.272a1.56 1.56 0 0 0 1.617-.135Zm-2.857-15.259a1.585 1.585 0 0 0 1.338-1.792l-1.437-10.363a1.575 1.575 0 0 0-1.775-1.352 1.586 1.586 0 0 0-1.338 1.793l1.437 10.362a1.575 1.575 0 0 0 1.775 1.352Zm-2.875-20.725a1.585 1.585 0 0 0 1.339-1.792l-1.437-10.363a1.576 1.576 0 0 0-1.775-1.352 1.584 1.584 0 0 0-1.338 1.793l1.437 10.362c.12.868.915 1.474 1.774 1.352Zm-2.874-20.725a1.584 1.584 0 0 0 1.338-1.792l-1.437-10.363a1.575 1.575 0 0 0-1.774-1.352 1.586 1.586 0 0 0-1.339 1.793l1.437 10.362a1.575 1.575 0 0 0 1.775 1.352Zm-2.874-20.725a1.585 1.585 0 0 0 1.338-1.792l-.719-5.181a1.573 1.573 0 0 0-1.774-1.352 1.585 1.585 0 0 0-1.339 1.792l.719 5.181a1.575 1.575 0 0 0 1.775 1.352Zm-1.67 70.034a1.595 1.595 0 0 0-.711-2.127l-9.093-4.545a1.565 1.565 0 0 0-2.106.719 1.595 1.595 0 0 0 .712 2.127l9.092 4.544a1.564 1.564 0 0 0 2.106-.718Zm-18.185-9.09a1.594 1.594 0 0 0-.712-2.126l-9.092-4.545a1.565 1.565 0 0 0-2.106.719 1.594 1.594 0 0 0 .712 2.126l9.092 4.545a1.565 1.565 0 0 0 2.106-.719Zm-18.185-9.089a1.595 1.595 0 0 0-.712-2.127l-9.093-4.544a1.564 1.564 0 0 0-2.105.718 1.595 1.595 0 0 0 .711 2.127l9.093 4.545a1.565 1.565 0 0 0 2.106-.719Zm-18.186-9.089a1.595 1.595 0 0 0-.711-2.127l-4.546-2.272a1.564 1.564 0 0 0-2.106.718 1.595 1.595 0 0 0 .711 2.127l4.547 2.272c.778.389 1.72.067 2.105-.718Z" clip-rule="evenodd"/><path fill="#FE6D44" d="m141.806 326.481-85.492 76.434L38.81 276.713l102.995 49.768Z"/><path fill="#FCFAF9" fill-opacity=".12" d="m141.806 326.481-85.492 76.434L38.81 276.713l102.995 49.768Z"/><path fill="#1B1F21" fill-rule="evenodd" d="M46.5 287.015a1.576 1.576 0 0 1 1.777 1.35l.703 5.011a1.584 1.584 0 0 1-1.336 1.794 1.574 1.574 0 0 1-1.777-1.349l-.702-5.011a1.586 1.586 0 0 1 1.336-1.795Zm2.108 15.035a1.574 1.574 0 0 1 1.776 1.349l1.405 10.023a1.586 1.586 0 0 1-1.336 1.795 1.575 1.575 0 0 1-1.777-1.35l-1.404-10.023a1.585 1.585 0 0 1 1.336-1.794Zm2.809 20.046a1.574 1.574 0 0 1 1.776 1.349l1.405 10.023a1.586 1.586 0 0 1-1.336 1.795 1.575 1.575 0 0 1-1.776-1.35L50.08 323.89a1.585 1.585 0 0 1 1.336-1.794Zm2.809 20.046a1.574 1.574 0 0 1 1.776 1.349l1.405 10.023a1.585 1.585 0 0 1-1.336 1.795 1.575 1.575 0 0 1-1.776-1.35l-1.405-10.023a1.585 1.585 0 0 1 1.336-1.794Zm2.81 20.046a1.574 1.574 0 0 1 1.776 1.35l1.404 10.023a1.585 1.585 0 0 1-1.336 1.794 1.574 1.574 0 0 1-1.776-1.35l-1.405-10.023a1.585 1.585 0 0 1 1.336-1.794Zm2.808 20.046a1.575 1.575 0 0 1 1.777 1.35l.286 2.041 1.556-1.428a1.56 1.56 0 0 1 2.22.106 1.6 1.6 0 0 1-.106 2.243l-3.753 3.446a1.56 1.56 0 0 1-1.59.319 1.585 1.585 0 0 1-1.023-1.271l-.703-5.012a1.585 1.585 0 0 1 1.336-1.794Zm11.02-2.688a1.6 1.6 0 0 1 .105-2.243l7.506-6.893a1.561 1.561 0 0 1 2.22.107 1.598 1.598 0 0 1-.105 2.242l-7.506 6.893a1.561 1.561 0 0 1-2.22-.106Zm15.012-13.786a1.6 1.6 0 0 1 .106-2.243l7.506-6.893a1.56 1.56 0 0 1 2.22.107 1.598 1.598 0 0 1-.105 2.242l-7.507 6.893a1.561 1.561 0 0 1-2.22-.106Zm15.013-13.786a1.6 1.6 0 0 1 .105-2.243l7.507-6.893a1.56 1.56 0 0 1 2.22.107 1.598 1.598 0 0 1-.106 2.242l-7.506 6.893a1.56 1.56 0 0 1-2.22-.106Zm15.012-13.787a1.598 1.598 0 0 1 .106-2.242l3.753-3.447a1.561 1.561 0 0 1 2.22.107 1.598 1.598 0 0 1-.105 2.242l-3.754 3.447a1.56 1.56 0 0 1-2.22-.107Z" clip-rule="evenodd"/><path fill="#FE6D44" d="M144.264 340.309 38.811 276.713l189.546-26.817-84.093 90.413Z"/><path fill="#FCFAF9" fill-opacity=".25" d="M144.264 340.309 38.811 276.713l189.546-26.817-84.093 90.413Z"/><path fill="#1B1F21" fill-rule="evenodd" d="M219.795 248.396c.719.682.754 1.824.079 2.55l-3.034 3.261a1.773 1.773 0 0 1-2.524.08 1.817 1.817 0 0 1-.079-2.55l3.033-3.261a1.774 1.774 0 0 1 2.525-.08Zm-173.16 24.499a1.775 1.775 0 0 1 2.45-.624l3.803 2.294a1.813 1.813 0 0 1 .618 2.473 1.775 1.775 0 0 1-2.449.624l-3.804-2.294a1.814 1.814 0 0 1-.618-2.473Zm163.593-14.213c.719.682.754 1.824.079 2.55l-6.067 6.522a1.773 1.773 0 0 1-2.524.08 1.817 1.817 0 0 1-.079-2.55l6.067-6.522a1.772 1.772 0 0 1 2.524-.08ZM58.632 280.13a1.775 1.775 0 0 1 2.45-.624l7.607 4.588a1.813 1.813 0 0 1 .618 2.473 1.776 1.776 0 0 1-2.45.624l-7.607-4.588a1.814 1.814 0 0 1-.618-2.473Zm138.996-7.901c.719.682.754 1.824.079 2.55l-6.067 6.522a1.773 1.773 0 0 1-2.524.08 1.817 1.817 0 0 1-.079-2.55l6.067-6.522a1.772 1.772 0 0 1 2.524-.08ZM74.433 289.658a1.777 1.777 0 0 1 2.449-.624l7.607 4.588a1.815 1.815 0 0 1 .618 2.474 1.776 1.776 0 0 1-2.449.624l-7.608-4.588a1.814 1.814 0 0 1-.617-2.474Zm110.595-3.882c.719.682.754 1.824.079 2.55l-6.067 6.522a1.773 1.773 0 0 1-2.524.08 1.816 1.816 0 0 1-.079-2.55l6.067-6.523a1.773 1.773 0 0 1 2.524-.079Zm-94.795 13.411a1.777 1.777 0 0 1 2.449-.624l7.608 4.588a1.815 1.815 0 0 1 .618 2.474 1.777 1.777 0 0 1-2.45.624l-7.607-4.588a1.814 1.814 0 0 1-.618-2.474Zm82.195.136c.719.682.754 1.823.079 2.55l-6.067 6.522a1.773 1.773 0 0 1-2.524.08 1.816 1.816 0 0 1-.079-2.55l6.066-6.523a1.774 1.774 0 0 1 2.525-.079Zm-66.395 9.393a1.777 1.777 0 0 1 2.45-.624l7.607 4.588a1.814 1.814 0 0 1 .618 2.474 1.777 1.777 0 0 1-2.449.624l-7.608-4.588a1.815 1.815 0 0 1-.618-2.474Zm53.795 4.154c.719.682.754 1.823.079 2.55l-6.067 6.522a1.773 1.773 0 0 1-2.524.08 1.816 1.816 0 0 1-.079-2.55l6.066-6.523a1.774 1.774 0 0 1 2.525-.079Zm-37.994 5.375a1.776 1.776 0 0 1 2.449-.624l7.608 4.588a1.814 1.814 0 0 1 .617 2.474 1.777 1.777 0 0 1-2.449.624l-7.607-4.588a1.814 1.814 0 0 1-.618-2.474Zm15.8 9.529a1.777 1.777 0 0 1 2.45-.624l2.57 1.55 2.049-2.204a1.774 1.774 0 0 1 2.525-.079c.719.682.754 1.823.079 2.549l-3.034 3.262a1.774 1.774 0 0 1-2.217.314l-3.804-2.294a1.815 1.815 0 0 1-.618-2.474Z" clip-rule="evenodd"/><ellipse cx="21.782" cy="21.992" fill="#57ACBC" rx="21.782" ry="21.992" transform="rotate(-8.053 1770.548 -1310.588) skewX(-.157)"/><path fill="#FFFFFE" d="m234.241 257.192.585 4.22-14.378 2.034-.585-4.22 4.515-.639-1.182-8.521-4.515.639-.441-3.179c1.227-.248 2.568-.764 4.023-1.547 1.451-.801 2.698-1.657 3.739-2.568l1.856-.263 2.033 14.659 4.35-.615Z"/><g filter="url(#b)" opacity=".62"><path fill="#FE6D44" d="M144.477 148.845 102 167.781l69.889 18.914-27.412-37.85Z"/><path fill="#1B1F21" fill-rule="evenodd" d="m166.785 182.27-1.648-.446a.614.614 0 0 0-.752.438.622.622 0 0 0 .434.76l1.648.446a.62.62 0 0 0 .318-1.198Zm-6.592-1.784-3.296-.892a.613.613 0 0 0-.752.438.622.622 0 0 0 .434.76l3.296.892a.621.621 0 0 0 .318-1.198Zm-8.24-2.23-3.296-.892a.62.62 0 0 0-.318 1.198l3.296.892a.621.621 0 0 0 .318-1.198Zm-8.24-2.23-3.296-.892a.62.62 0 0 0-.318 1.198l3.296.892a.614.614 0 0 0 .752-.439.622.622 0 0 0-.434-.759Zm-8.241-2.23-3.296-.892a.62.62 0 0 0-.317 1.198l3.296.892a.614.614 0 0 0 .752-.439.622.622 0 0 0-.435-.759Zm-8.24-2.23-3.296-.892a.614.614 0 0 0-.752.438.622.622 0 0 0 .434.76l3.297.892a.62.62 0 0 0 .317-1.198Zm-8.24-2.23-3.296-.892a.614.614 0 0 0-.752.438.622.622 0 0 0 .434.76l3.296.892a.62.62 0 0 0 .318-1.198Zm-8.24-2.23-1.648-.446a.614.614 0 0 0-.752.438.622.622 0 0 0 .434.76l1.648.446a.62.62 0 0 0 .318-1.198Z" clip-rule="evenodd"/><path fill="#FE6D44" d="m143.312 154.026 28.577 32.67 12.345-46.533-40.922 13.863Z"/><path fill="#FCFAF9" fill-opacity=".12" d="m143.312 154.026 28.577 32.67 12.345-46.533-40.922 13.863Z"/><path fill="#000" fill-rule="evenodd" d="M171.02 181.936a.617.617 0 0 0 .457-.444l.507-1.911a.62.62 0 0 0-.434-.759.613.613 0 0 0-.752.438l-.206.777-.493-.579a.61.61 0 0 0-.866-.065.624.624 0 0 0-.065.874l1.25 1.468a.61.61 0 0 0 .602.201Zm1.225-5.737a.614.614 0 0 0 .752-.439l1.014-3.82a.622.622 0 0 0-.434-.76.614.614 0 0 0-.752.439l-1.014 3.82a.622.622 0 0 0 .434.76Zm2.028-7.642a.614.614 0 0 0 .752-.438l1.013-3.821a.62.62 0 0 0-.434-.76.614.614 0 0 0-.752.439l-1.013 3.821a.62.62 0 0 0 .434.759Zm2.027-7.642a.613.613 0 0 0 .752-.438l1.014-3.821a.62.62 0 0 0-.434-.759.612.612 0 0 0-.752.438l-1.014 3.821a.62.62 0 0 0 .434.759Zm2.027-7.641a.614.614 0 0 0 .752-.439l.507-1.91a.62.62 0 0 0-.434-.76.614.614 0 0 0-.752.439l-.507 1.91a.622.622 0 0 0 .434.76Zm-10.794 24.122a.624.624 0 0 0 .065-.874l-2.501-2.937a.609.609 0 0 0-.865-.066.623.623 0 0 0-.065.874l2.5 2.937a.61.61 0 0 0 .866.066Zm-5.001-5.874a.624.624 0 0 0 .065-.874l-2.501-2.937a.61.61 0 0 0-.866-.066.625.625 0 0 0-.065.875l2.501 2.937a.61.61 0 0 0 .866.065Zm-5.002-5.873a.625.625 0 0 0 .065-.875l-2.501-2.936a.608.608 0 0 0-.865-.066.623.623 0 0 0-.065.874l2.5 2.937a.61.61 0 0 0 .866.066Zm-5.001-5.874a.624.624 0 0 0 .065-.874l-1.251-1.469a.61.61 0 0 0-.865-.066.625.625 0 0 0-.066.875l1.251 1.468a.61.61 0 0 0 .866.066Z" clip-rule="evenodd"/><path fill="#FE6D44" d="M142.922 153.919 102 167.781l12.345-46.533 28.577 32.671Z"/><path fill="#FCFAF9" fill-opacity=".12" d="M142.922 153.919 102 167.781l12.345-46.533 28.577 32.671Z"/><path fill="#000" fill-rule="evenodd" d="M115.522 125.961a.621.621 0 0 1 .435.759l-.488 1.849a.612.612 0 0 1-.751.439.62.62 0 0 1-.435-.758l.487-1.849a.615.615 0 0 1 .752-.44Zm-1.463 5.547a.621.621 0 0 1 .435.759l-.976 3.697a.613.613 0 1 1-1.186-.319l.975-3.698a.614.614 0 0 1 .752-.439Zm-1.951 7.396a.62.62 0 0 1 .435.758l-.976 3.698a.613.613 0 1 1-1.186-.319l.975-3.698a.613.613 0 0 1 .752-.439Zm-1.951 7.395a.62.62 0 0 1 .435.759l-.975 3.698a.614.614 0 1 1-1.187-.319l.976-3.698a.613.613 0 0 1 .751-.44Zm-1.951 7.396a.62.62 0 0 1 .435.759l-.975 3.697a.614.614 0 1 1-1.187-.319l.976-3.698a.612.612 0 0 1 .751-.439Zm-1.951 7.396a.619.619 0 0 1 .435.758l-.189.717.715-.253a.613.613 0 0 1 .783.38.623.623 0 0 1-.377.791l-1.81.64a.608.608 0 0 1-.62-.131.624.624 0 0 1-.176-.614l.488-1.849a.612.612 0 0 1 .751-.439Zm4.204.732a.622.622 0 0 1 .377-.79l3.62-1.281a.613.613 0 0 1 .782.38.623.623 0 0 1-.377.791l-3.619 1.28a.614.614 0 0 1-.783-.38Zm7.24-2.561a.621.621 0 0 1 .376-.79l3.62-1.281c.32-.113.67.057.782.38a.622.622 0 0 1-.376.791l-3.62 1.28a.612.612 0 0 1-.782-.38Zm7.239-2.561a.621.621 0 0 1 .376-.79l3.62-1.281c.32-.113.67.057.782.38a.622.622 0 0 1-.376.791l-3.62 1.28a.612.612 0 0 1-.782-.38Zm7.239-2.561a.621.621 0 0 1 .376-.79l1.81-.64a.612.612 0 0 1 .783.38.622.622 0 0 1-.377.79l-1.81.64a.612.612 0 0 1-.782-.38Z" clip-rule="evenodd"/><path fill="#FE6D44" d="m141.757 159.099-27.412-37.85 69.89 18.914-42.478 18.936Z"/><path fill="#FCFAF9" fill-opacity=".25" d="m141.757 159.099-27.412-37.85 69.89 18.914-42.478 18.936Z"/><path fill="#1B1F21" fill-rule="evenodd" d="M181.494 138.355a.707.707 0 0 1-.356.929l-1.533.683a.695.695 0 0 1-.92-.36.707.707 0 0 1 .357-.929l1.532-.683a.695.695 0 0 1 .92.36Zm-63.881-17.288a.693.693 0 0 1 .975.153l.989 1.365a.71.71 0 0 1-.151.985.694.694 0 0 1-.975-.153l-.989-1.365a.71.71 0 0 1 .151-.985Zm59.049 19.442a.707.707 0 0 1-.357.929l-3.064 1.366a.694.694 0 0 1-.92-.36.707.707 0 0 1 .356-.929l3.065-1.366a.695.695 0 0 1 .92.36Zm-55.93-15.136a.692.692 0 0 1 .974.153l1.978 2.73a.71.71 0 0 1-.151.985.693.693 0 0 1-.975-.153l-1.978-2.73a.71.71 0 0 1 .152-.985Zm49.565 17.973a.708.708 0 0 1-.356.93l-3.065 1.366a.695.695 0 0 1-.92-.36.707.707 0 0 1 .357-.929l3.064-1.367a.695.695 0 0 1 .92.36Zm-45.458-12.302a.693.693 0 0 1 .975.153l1.977 2.73a.709.709 0 0 1-.151.985.692.692 0 0 1-.975-.153l-1.977-2.73a.71.71 0 0 1 .151-.985Zm39.094 15.14a.707.707 0 0 1-.357.929l-3.064 1.366a.695.695 0 0 1-.92-.36.707.707 0 0 1 .356-.929l3.065-1.366a.695.695 0 0 1 .92.36Zm-34.987-9.469a.694.694 0 0 1 .975.153l1.978 2.731a.709.709 0 0 1-.152.984.693.693 0 0 1-.975-.152l-1.977-2.731a.71.71 0 0 1 .151-.985Zm28.622 12.306a.707.707 0 0 1-.356.929l-3.065 1.366a.695.695 0 0 1-.92-.36.707.707 0 0 1 .357-.929l3.064-1.366a.695.695 0 0 1 .92.36Zm-24.515-6.634a.693.693 0 0 1 .975.152l1.978 2.731a.71.71 0 0 1-.151.985.694.694 0 0 1-.975-.153l-1.978-2.731a.709.709 0 0 1 .151-.984Zm18.151 9.471a.708.708 0 0 1-.357.929l-3.064 1.366a.694.694 0 0 1-.92-.36.707.707 0 0 1 .356-.929l3.065-1.366a.695.695 0 0 1 .92.36Zm-14.043-3.8a.693.693 0 0 1 .975.153l1.977 2.73a.71.71 0 0 1-.151.985.693.693 0 0 1-.975-.153l-1.978-2.73a.71.71 0 0 1 .152-.985Zm4.107 5.671a.693.693 0 0 1 .975.153l.657.908 1.019-.455a.696.696 0 0 1 .92.361.707.707 0 0 1-.357.929l-1.532.683a.693.693 0 0 1-.844-.229l-.989-1.365a.71.71 0 0 1 .151-.985Z" clip-rule="evenodd"/></g></g><defs><filter id="b" width="98.234" height="81.765" x="94" y="112.931" color-interpolation-filters="sRGB" filterUnits="userSpaceOnUse"><feFlood flood-opacity="0" result="BackgroundImageFix"/><feBlend in="SourceGraphic" in2="BackgroundImageFix" result="shape"/><feGaussianBlur result="effect1_foregroundBlur_1003_2444" stdDeviation="4"/></filter></defs></svg>
