<svg xmlns="http://www.w3.org/2000/svg" width="5217" height="2392" fill="none"><path stroke="#434343" stroke-linecap="round" stroke-width="24" d="M2658.77 1878.78c170.31-133.54 768.8-861.56 486.9-1050.312-361.73-242.209-988.45 250.962-771.91 476.862 286.7 299.09 947.86-613.71 712.45-876.715-235.41-263.004-711.95-118.124-1232.72 607.665M4297.41 90.795c-183.42 114.875-855.22 775.847-594.75 993.225 334.23 278.94 1009.37-145.52 817.81-392.961-253.62-327.608-1007.19 510.531-800.77 796.851 206.42 286.33 695.56 192.41 1289.83-474.53M923.35 2310.31c182.66-116.09 850.03-781.52 588.13-997.16-336.08-276.71-1008.382 152.24-815.182 398.4 255.792 325.91 1003.772-517.23 795.452-802.171-208.32-284.944-696.826-187.775-1286.645 483.101"/></svg>