<?xml version="1.0" encoding="utf-8"?>
<svg xmlns="http://www.w3.org/2000/svg" xmlns:xlink="http://www.w3.org/1999/xlink">
  <symbol id="gaming" viewBox="0 0 180 181">
    <circle cx="90" cy="90.5" r="90" fill="#BEDB39"/>
    <path fill-rule="evenodd" clip-rule="evenodd" d="M90 9.5C45.2649 9.5 9 45.7649 9 90.5C9 135.235 45.2649 171.5 90 171.5C134.735 171.5 171 135.235 171 90.5C171 45.7649 134.735 9.5 90 9.5ZM12.4596 90.5C12.4596 47.6756 47.1756 12.9596 90 12.9596C132.824 12.9596 167.54 47.6756 167.54 90.5C167.54 133.324 132.824 168.04 90 168.04C47.1756 168.04 12.4596 133.324 12.4596 90.5Z" fill="#1B1F21"/>
    <path d="M90 60.5L92.8067 83.5986L105.621 74.5901L96.7759 87.6414L117 90.5L96.7759 93.3586L105.621 106.41L92.8067 97.4014L90 120.5L87.1933 97.4014L74.3794 106.41L83.2241 93.3586L63 90.5L83.2241 87.6414L74.3794 74.5901L87.1933 83.5986L90 60.5Z" fill="#1B1F21"/>
    <path d="M147.29 94.6827C150.495 95.1901 152.242 97.4359 151.781 100.317C151.45 102.381 150.18 103.604 148.305 103.873L148.647 106.734C151.589 106.383 153.84 104.163 154.39 100.73C155.103 96.2757 152.298 92.4797 147.758 91.7609C143.176 91.0356 139.287 93.751 138.574 98.2052C137.894 102.455 140.248 105.782 144.459 106.448L145.794 106.66L147.165 98.0986L144.679 97.7051L143.776 103.344C141.814 102.971 140.787 100.965 141.16 98.6354C141.634 95.6727 144.044 94.1688 147.29 94.6827Z" fill="#1B1F21"/>
    <path d="M137.704 105.339L136.412 107.935L139.831 111.511L137.321 116.555L132.388 116.019L131.041 118.726L147.662 120.308L149.047 117.527L137.704 105.339ZM141.69 113.466L145.455 117.42L140.011 116.84L141.69 113.466Z" fill="#1B1F21"/>
    <path d="M130.803 119.172L128.876 121.117L137.187 129.264L129.62 128.324L129.211 128.737L130.31 136.293L121.954 128.102L120.012 130.061L131.124 140.954L133.256 138.802L132.097 131.247L139.783 132.215L141.915 130.064L130.803 119.172Z" fill="#1B1F21"/>
    <path d="M117.352 131.255L114.913 132.761L123.143 145.944L125.582 144.438L117.352 131.255Z" fill="#1B1F21"/>
    <path d="M112.862 134.392L110.306 135.27L114.056 146.065L103.267 137.689L100.377 138.682L105.472 153.349L108.047 152.464L104.325 141.747L115.067 150.052L117.957 149.059L112.862 134.392Z" fill="#1B1F21"/>
    <path d="M96.0051 147.001C96.0553 150.228 94.1322 152.327 91.1994 152.372C89.0987 152.404 87.6679 151.371 87.0784 149.579L84.3034 150.408C85.1586 153.23 87.7459 155.053 91.2402 154.999C95.7746 154.929 99.0505 151.527 98.9795 146.955C98.9079 142.342 95.5481 139 91.0137 139.069C86.6874 139.136 83.7986 142.015 83.8645 146.256L83.8854 147.601L92.6004 147.467L92.5616 144.964L86.8209 145.052C86.8524 143.065 88.6622 141.713 91.0334 141.676C94.0494 141.63 95.9544 143.732 96.0051 147.001Z" fill="#1B1F21"/>
    <path d="M74.9938 144.811C74.7457 145.543 74.4281 146.092 74.041 146.457C73.6407 146.817 73.197 147.025 72.71 147.08C72.2186 147.149 71.7167 147.097 71.2041 146.925C70.6916 146.753 70.2671 146.494 69.9306 146.149C69.5765 145.812 69.3499 145.379 69.2509 144.851C69.1518 144.323 69.2263 143.693 69.4744 142.961C69.718 142.242 70.04 141.702 70.4403 141.341C70.8406 140.981 71.2864 140.766 71.7779 140.698C72.2561 140.626 72.7515 140.675 73.264 140.847C73.7766 141.019 74.2076 141.28 74.5573 141.63C74.9069 141.98 75.1313 142.419 75.2304 142.947C75.3163 143.471 75.2375 144.092 74.9938 144.811Z" fill="#1B1F21"/>
    <path d="M59.2212 138.098C57.2271 140.645 54.4062 141.082 52.0921 139.289C50.4346 138.005 49.9705 136.308 50.6395 134.545L47.9546 133.461C46.8435 136.194 47.7116 139.226 50.4688 141.362C54.0465 144.134 58.7431 143.524 61.568 139.916C64.4185 136.276 63.9055 131.578 60.3278 128.806C56.9142 126.162 52.849 126.606 50.2285 129.952L49.3977 131.013L56.274 136.34L57.8207 134.365L53.2912 130.856C54.5675 129.327 56.8298 129.401 58.7007 130.85C61.0804 132.694 61.2408 135.519 59.2212 138.098Z" fill="#1B1F21"/>
    <path d="M54.4786 124.586L52.8087 122.213L48.013 123.481L44.7688 118.87L47.6084 114.823L45.867 112.348L36.4959 126.093L38.285 128.636L54.4786 124.586ZM45.3971 124.165L40.102 125.553L43.2263 121.08L45.3971 124.165Z" fill="#1B1F21"/>
    <path d="M45.6293 112.005L44.8411 109.389L33.6622 112.721L38.1293 106.573L37.9621 106.018L30.772 103.345L42.0107 99.995L41.2165 97.3591L26.2714 101.813L27.1433 104.707L34.3612 107.329L29.8125 113.566L30.6843 116.46L45.6293 112.005Z" fill="#1B1F21"/>
    <path d="M41.4584 94.4399L41.3145 91.5883L25.7325 92.3664L25.8764 95.218L41.4584 94.4399Z" fill="#1B1F21"/>
    <path d="M40.8683 88.8123L41.3342 86.1629L30.0232 84.195L42.6175 78.8668L43.1444 75.8709L27.7761 73.1972L27.3065 75.867L38.5356 77.8206L26.0269 83.1427L25.5 86.1385L40.8683 88.8123Z" fill="#1B1F21"/>
    <path d="M37.8875 68.0978C35.0288 66.5702 34.1218 63.8778 35.51 61.308C36.5044 59.4672 38.1084 58.7273 39.9685 59.0871L40.5914 56.2727C37.697 55.642 34.8368 57.0025 33.1827 60.0644C31.0365 64.0376 32.4298 68.54 36.4796 70.704C40.5661 72.8877 45.1368 71.5957 47.283 67.6225C49.3309 63.8316 48.2085 59.9202 44.4519 57.9129L43.2608 57.2764L39.1356 64.9129L41.353 66.0978L44.0703 61.0675C45.7999 62.0622 46.1063 64.2927 44.9839 66.3705C43.5564 69.0132 40.7828 69.6449 37.8875 68.0978Z" fill="#1B1F21"/>
    <path d="M49.8926 51.0013C49.3679 50.4318 49.0383 49.8904 48.9037 49.3769C48.7794 48.8541 48.8106 48.3673 48.9973 47.9166C49.1745 47.4557 49.4625 47.0435 49.8613 46.6801C50.26 46.3166 50.6928 46.0718 51.1597 45.9457C51.6274 45.8 52.1177 45.8115 52.6305 45.9802C53.1434 46.1489 53.6621 46.518 54.1868 47.0874C54.7021 47.6467 55.0219 48.1878 55.1462 48.7106C55.2705 49.2334 55.244 49.7252 55.0668 50.1861C54.8997 50.6377 54.6168 51.0452 54.2181 51.4087C53.8193 51.7721 53.3814 52.0216 52.9043 52.1571C52.4272 52.2926 51.9323 52.276 51.4194 52.1073C50.9168 51.9293 50.4079 51.5606 49.8926 51.0013Z" fill="#1B1F21"/>
    <path d="M63.2124 40.538C61.926 37.5748 62.8965 34.9044 65.5893 33.748C67.5182 32.9196 69.2374 33.3306 70.4705 34.7617L72.7163 32.9409C70.8417 30.6585 67.7505 29.9578 64.542 31.3357C60.3787 33.1237 58.659 37.513 60.4814 41.7108C62.3203 45.9466 66.7093 47.7576 70.8726 45.9696C74.845 44.2637 76.408 40.505 74.7175 36.6111L74.1815 35.3765L66.1795 38.813L67.1773 41.1113L72.4483 38.8477C73.1827 40.6957 72.0298 42.6331 69.8527 43.5681C67.0835 44.7574 64.5153 43.5391 63.2124 40.538Z" fill="#1B1F21"/>
    <path d="M77.4952 42.8107L80.3918 42.5098L81.6041 37.7241L87.2317 37.1394L89.4124 41.5725L92.4331 41.2586L84.8948 26.4403L81.7913 26.7628L77.4952 42.8107ZM82.2715 35.1169L83.6203 29.8387L86.037 34.7257L82.2715 35.1169Z" fill="#1B1F21"/>
    <path d="M93.0185 41.1592L95.7011 41.7424L98.1931 30.4033L101.432 37.2703L102.001 37.394L107.839 32.4368L105.334 43.8366L108.037 44.4242L111.368 29.2649L108.401 28.6199L102.595 33.6264L99.3172 26.645L96.3501 26L93.0185 41.1592Z" fill="#1B1F21"/>
    <path d="M110.491 46.0021L113.069 47.2593L119.939 33.3276L117.361 32.0703L110.491 46.0021Z" fill="#1B1F21"/>
    <path d="M115.523 48.0655L117.632 49.749L124.819 40.8421L123.44 54.385L125.824 56.2887L135.59 44.187L133.464 42.4906L126.329 51.3328L127.673 37.8674L125.288 35.9638L115.523 48.0655Z" fill="#1B1F21"/>
    <path d="M135.502 55.7601C138.227 54.0076 141.035 54.5173 142.628 56.967C143.769 58.7217 143.646 60.4761 142.431 61.9226L144.609 63.8238C146.561 61.6071 146.744 58.459 144.846 55.5402C142.384 51.7528 137.747 50.7929 133.886 53.2757C129.991 55.7809 128.922 60.3858 131.385 64.1733C133.734 67.787 137.72 68.6976 141.301 66.3946L142.436 65.6644L137.703 58.3848L135.59 59.7441L138.707 64.5393C136.996 65.5656 134.885 64.7557 133.597 62.7751C131.959 60.2559 132.742 57.5352 135.502 55.7601Z" fill="#1B1F21"/>
    <path d="M144.683 74.2947C145.438 74.1125 146.074 74.0868 146.591 74.2175C147.111 74.3616 147.525 74.6237 147.832 75.0038C148.152 75.3807 148.376 75.8306 148.503 76.3533C148.631 76.8761 148.638 77.3712 148.523 77.8388C148.426 78.3165 148.179 78.738 147.783 79.1033C147.387 79.4685 146.811 79.7422 146.057 79.9244C145.316 80.1032 144.685 80.1206 144.164 79.9766C143.644 79.8325 143.224 79.572 142.903 79.1951C142.586 78.8316 142.364 78.3885 142.237 77.8657C142.109 77.343 142.101 76.8411 142.212 76.3601C142.323 75.8791 142.576 75.456 142.972 75.0908C143.372 74.7389 143.942 74.4735 144.683 74.2947Z" fill="#1B1F21"/>
  </symbol>
  <symbol id="fashion" viewBox="0 0 180 181">
    <path d="M109.425 28.676L108.585 29.2193L109.425 28.676L92.5186 2.55134C91.3364 0.724528 88.6636 0.724521 87.4814 2.55133L70.5752 28.676C70.318 29.0734 69.8174 29.236 69.3758 29.0657L40.3427 17.8676C38.3125 17.0846 36.1501 18.6556 36.2675 20.8284L37.9458 51.901C37.9713 52.3736 37.6619 52.7994 37.2045 52.9212L7.13415 60.927C5.03144 61.4868 4.20547 64.0289 5.57755 65.7177L25.1993 89.8694C25.4978 90.2368 25.4978 90.7632 25.1993 91.1306L5.57756 115.282C4.20547 116.971 5.03142 119.513 7.13415 120.073L37.2045 128.079C37.6619 128.201 37.9713 128.626 37.9458 129.099L36.2675 160.172C36.1501 162.344 38.3125 163.915 40.3427 163.132L69.3758 151.934C69.8174 151.764 70.318 151.927 70.5752 152.324L87.4814 178.449C88.6636 180.275 91.3364 180.275 92.5186 178.449L109.425 152.324C109.682 151.927 110.183 151.764 110.624 151.934L139.657 163.132C141.687 163.915 143.85 162.344 143.733 160.172L142.054 129.099C142.029 128.626 142.338 128.201 142.796 128.079L172.866 120.073C174.969 119.513 175.795 116.971 174.422 115.282L154.801 91.1306C154.502 90.7632 154.502 90.2368 154.801 89.8694L174.422 65.7177C175.795 64.0289 174.969 61.4868 172.866 60.927L142.796 52.9212C142.338 52.7994 142.029 52.3736 142.054 51.901L143.733 20.8285C143.85 18.6556 141.688 17.0846 139.657 17.8676L110.624 29.0657C110.183 29.236 109.682 29.0734 109.425 28.676Z" fill="#90EECB" stroke="#90EECB" stroke-width="2"/>
    <path fill-rule="evenodd" clip-rule="evenodd" d="M89.6336 14.3406L75.4056 36.3267C74.1197 38.3138 71.6168 39.127 69.4085 38.2753L44.9747 28.8512L46.3871 55.0013C46.5148 57.3647 44.9679 59.4938 42.6808 60.1027L17.374 66.8402L33.8874 87.166C35.3798 89.0029 35.3798 91.6346 33.8874 93.4716L17.374 113.797L42.6808 120.535C44.9679 121.144 46.5148 123.273 46.3871 125.636L44.9747 151.786L69.4085 142.362C71.6168 141.511 74.1197 142.324 75.4055 144.311L89.6336 166.297L103.862 144.311C105.147 142.324 107.65 141.511 109.859 142.362L134.292 151.786L132.88 125.636C132.752 123.273 134.299 121.144 136.586 120.535L161.893 113.797L145.38 93.4716C143.887 91.6346 143.887 89.0029 145.38 87.166L161.893 66.8402L136.586 60.1027C134.299 59.4938 132.752 57.3647 132.88 55.0013L134.292 28.8512L109.859 38.2753C107.65 39.127 105.147 38.3138 103.862 36.3267L89.6336 14.3406ZM91.3126 11.4134C90.5245 10.1955 88.7426 10.1955 87.9545 11.4134L72.8869 34.6969C72.3726 35.4917 71.3714 35.817 70.4881 35.4763L44.6126 25.4961C43.2591 24.974 41.8175 26.0214 41.8957 27.4699L43.3915 55.1631C43.4426 56.1085 42.8238 56.9601 41.909 57.2037L15.109 64.3388C13.7071 64.712 13.1565 66.4067 14.0712 67.5326L31.559 89.0576C32.1559 89.7924 32.1559 90.8451 31.559 91.5799L14.0712 113.105C13.1565 114.231 13.7071 115.926 15.109 116.299L41.909 123.434C42.8238 123.677 43.4426 124.529 43.3915 125.474L41.8957 153.168C41.8175 154.616 43.2591 155.664 44.6126 155.141L70.4881 145.161C71.3714 144.821 72.3726 145.146 72.8869 145.941L87.9545 169.224C88.7426 170.442 90.5245 170.442 91.3126 169.224L106.38 145.941C106.895 145.146 107.896 144.821 108.779 145.161L134.655 155.141C136.008 155.664 137.45 154.616 137.371 153.168L135.876 125.474C135.825 124.529 136.443 123.677 137.358 123.434L164.158 116.299C165.56 115.926 166.111 114.231 165.196 113.105L147.708 91.5799C147.111 90.8451 147.111 89.7924 147.708 89.0576L165.196 67.5326C166.111 66.4067 165.56 64.712 164.158 64.3388L137.358 57.2037C136.443 56.9601 135.825 56.1085 135.876 55.1631L137.371 27.4699C137.45 26.0214 136.008 24.974 134.655 25.4961L108.779 35.4763C107.896 35.817 106.895 35.4917 106.38 34.6969L91.3126 11.4134Z" fill="#1B1F21"/>
    <path d="M51.6221 76.3033V63.6967H59.8712V65.8604H54.3082V68.936H59.49V71.0997H54.3082V76.3033H51.6221Z" fill="#1B1F21"/>
    <path d="M59.188 76.3033L64.803 63.6967H66.9693L72.5843 76.3033H69.8808L68.737 73.5674H63.0353L61.9089 76.3033H59.188ZM65.8602 66.6472L63.9365 71.4037H67.8531L65.8948 66.6472H65.8602Z" fill="#1B1F21"/>
    <path d="M77.8551 76.5C76.8961 76.5 75.9892 76.3748 75.1342 76.1245C74.2908 75.8741 73.5861 75.5344 73.02 75.1052L73.7998 72.9237C74.3428 73.3171 74.9609 73.627 75.6542 73.8535C76.3589 74.08 77.0926 74.1933 77.8551 74.1933C78.6869 74.1933 79.2819 74.0621 79.6401 73.7999C80.0098 73.5257 80.1947 73.1859 80.1947 72.7806C80.1947 72.4349 80.0676 72.1607 79.8134 71.958C79.5592 71.7554 79.1144 71.5825 78.479 71.4395L76.5207 71.0103C74.3371 70.5335 73.2453 69.3652 73.2453 67.5055C73.2453 66.7068 73.4532 66.0094 73.8691 65.4133C74.2851 64.8054 74.8627 64.3345 75.6022 64.0007C76.3531 63.6669 77.2196 63.5 78.2017 63.5C79.0451 63.5 79.8365 63.6252 80.5759 63.8755C81.3153 64.1259 81.9277 64.4775 82.4129 64.9305L81.6331 66.9691C80.6857 66.1942 79.5361 65.8067 78.1844 65.8067C77.4565 65.8067 76.8904 65.9558 76.486 66.2538C76.0932 66.5399 75.8968 66.9154 75.8968 67.3803C75.8968 67.726 76.0181 68.0062 76.2607 68.2208C76.5033 68.4354 76.925 68.6082 77.5258 68.7393L79.4841 69.1685C81.7255 69.6692 82.8462 70.8017 82.8462 72.566C82.8462 73.3528 82.6382 74.0442 82.2223 74.6403C81.8179 75.2244 81.2402 75.6834 80.4893 76.0172C79.7498 76.3391 78.8718 76.5 77.8551 76.5Z" fill="#1B1F21"/>
    <path d="M84.59 76.3033V63.6967H87.2762V68.7572H92.9605V63.6967H95.6467V76.3033H92.9605V71.064H87.2762V76.3033H84.59Z" fill="#1B1F21"/>
    <path d="M98.1123 76.3033V63.6967H100.798V76.3033H98.1123Z" fill="#1B1F21"/>
    <path d="M108.907 76.5C107.706 76.5 106.649 76.2318 105.736 75.6953C104.835 75.147 104.13 74.39 103.622 73.4243C103.125 72.4468 102.876 71.3024 102.876 69.9911C102.876 68.6797 103.125 67.5413 103.622 66.5757C104.13 65.5981 104.835 64.8411 105.736 64.3047C106.637 63.7682 107.694 63.5 108.907 63.5C110.12 63.5 111.177 63.7682 112.079 64.3047C112.991 64.8411 113.696 65.5981 114.193 66.5757C114.701 67.5413 114.955 68.6738 114.955 69.9732C114.955 71.2845 114.701 72.4289 114.193 73.4065C113.696 74.384 112.991 75.147 112.079 75.6953C111.177 76.2318 110.12 76.5 108.907 76.5ZM108.907 74.1396C109.924 74.1396 110.715 73.776 111.281 73.0488C111.859 72.3097 112.148 71.2905 112.148 69.9911C112.148 68.6797 111.865 67.6664 111.299 66.9512C110.733 66.224 109.936 65.8604 108.907 65.8604C107.902 65.8604 107.111 66.224 106.533 66.9512C105.967 67.6664 105.684 68.6797 105.684 69.9911C105.684 71.2905 105.967 72.3097 106.533 73.0488C107.111 73.776 107.902 74.1396 108.907 74.1396Z" fill="#1B1F21"/>
    <path d="M117.033 76.3033V63.6967H119.026L125.127 71.7256V63.6967H127.622V76.3033H125.646L119.529 68.2565V76.3033H117.033Z" fill="#1B1F21"/>
    <path d="M51.6221 97.3033V84.6967H59.8712V86.8604H54.3082V89.936H59.49V92.0997H54.3082V97.3033H51.6221Z" fill="#1B1F21"/>
    <path d="M59.188 97.3033L64.803 84.6967H66.9693L72.5843 97.3033H69.8808L68.737 94.5674H63.0353L61.9089 97.3033H59.188ZM65.8602 87.6472L63.9365 92.4037H67.8531L65.8948 87.6472H65.8602Z" fill="#1B1F21"/>
    <path d="M77.8551 97.5C76.8961 97.5 75.9892 97.3748 75.1342 97.1245C74.2908 96.8741 73.5861 96.5344 73.02 96.1052L73.7998 93.9237C74.3428 94.3171 74.9609 94.627 75.6542 94.8535C76.3589 95.08 77.0926 95.1933 77.8551 95.1933C78.6869 95.1933 79.2819 95.0621 79.6401 94.7999C80.0098 94.5257 80.1947 94.1859 80.1947 93.7806C80.1947 93.4349 80.0676 93.1607 79.8134 92.958C79.5592 92.7554 79.1144 92.5825 78.479 92.4395L76.5207 92.0103C74.3371 91.5335 73.2453 90.3652 73.2453 88.5055C73.2453 87.7068 73.4532 87.0094 73.8691 86.4133C74.2851 85.8054 74.8627 85.3345 75.6022 85.0007C76.3531 84.6669 77.2196 84.5 78.2017 84.5C79.0451 84.5 79.8365 84.6252 80.5759 84.8755C81.3153 85.1259 81.9277 85.4775 82.4129 85.9305L81.6331 87.9691C80.6857 87.1942 79.5361 86.8067 78.1844 86.8067C77.4565 86.8067 76.8904 86.9558 76.486 87.2538C76.0932 87.5399 75.8968 87.9154 75.8968 88.3803C75.8968 88.726 76.0181 89.0062 76.2607 89.2208C76.5033 89.4354 76.925 89.6082 77.5258 89.7393L79.4841 90.1685C81.7255 90.6692 82.8462 91.8017 82.8462 93.566C82.8462 94.3528 82.6382 95.0442 82.2223 95.6403C81.8179 96.2244 81.2402 96.6834 80.4893 97.0172C79.7498 97.3391 78.8718 97.5 77.8551 97.5Z" fill="#1B1F21"/>
    <path d="M84.59 97.3033V84.6967H87.2762V89.7572H92.9605V84.6967H95.6467V97.3033H92.9605V92.064H87.2762V97.3033H84.59Z" fill="#1B1F21"/>
    <path d="M98.1123 97.3033V84.6967H100.798V97.3033H98.1123Z" fill="#1B1F21"/>
    <path d="M108.907 97.5C107.706 97.5 106.649 97.2318 105.736 96.6953C104.835 96.1469 104.13 95.39 103.622 94.4243C103.125 93.4468 102.876 92.3024 102.876 90.9911C102.876 89.6797 103.125 88.5413 103.622 87.5757C104.13 86.5981 104.835 85.8411 105.736 85.3047C106.637 84.7682 107.694 84.5 108.907 84.5C110.12 84.5 111.177 84.7682 112.079 85.3047C112.991 85.8411 113.696 86.5981 114.193 87.5757C114.701 88.5413 114.955 89.6738 114.955 90.9732C114.955 92.2845 114.701 93.4289 114.193 94.4065C113.696 95.384 112.991 96.1469 112.079 96.6953C111.177 97.2318 110.12 97.5 108.907 97.5ZM108.907 95.1396C109.924 95.1396 110.715 94.776 111.281 94.0488C111.859 93.3097 112.148 92.2905 112.148 90.9911C112.148 89.6797 111.865 88.6664 111.299 87.9512C110.733 87.224 109.936 86.8604 108.907 86.8604C107.902 86.8604 107.111 87.224 106.533 87.9512C105.967 88.6664 105.684 89.6797 105.684 90.9911C105.684 92.2905 105.967 93.3097 106.533 94.0488C107.111 94.776 107.902 95.1396 108.907 95.1396Z" fill="#1B1F21"/>
    <path d="M117.033 97.3033V84.6967H119.026L125.127 92.7256V84.6967H127.622V97.3033H125.646L119.529 89.2565V97.3033H117.033Z" fill="#1B1F21"/>
    <path d="M51.6221 117.318V105.682H59.8712V107.679H54.3082V110.518H59.49V112.515H54.3082V117.318H51.6221Z" fill="#1B1F21"/>
    <path d="M59.188 117.318L64.803 105.682H66.9693L72.5843 117.318H69.8808L68.737 114.793H63.0353L61.9089 117.318H59.188ZM65.8602 108.405L63.9365 112.796H67.8531L65.8948 108.405H65.8602Z" fill="#1B1F21"/>
    <path d="M77.8551 117.5C76.8961 117.5 75.9892 117.384 75.1342 117.153C74.2908 116.922 73.5861 116.609 73.02 116.213L73.7998 114.199C74.3428 114.562 74.9609 114.848 75.6542 115.057C76.3589 115.266 77.0926 115.371 77.8551 115.371C78.6869 115.371 79.2819 115.25 79.6401 115.008C80.0098 114.754 80.1947 114.441 80.1947 114.067C80.1947 113.748 80.0676 113.494 79.8134 113.307C79.5592 113.12 79.1144 112.961 78.479 112.829L76.5207 112.433C74.3371 111.992 73.2453 110.914 73.2453 109.197C73.2453 108.46 73.4532 107.816 73.8691 107.266C74.2851 106.705 74.8627 106.27 75.6022 105.962C76.3531 105.654 77.2196 105.5 78.2017 105.5C79.0451 105.5 79.8365 105.616 80.5759 105.847C81.3153 106.078 81.9277 106.402 82.4129 106.82L81.6331 108.702C80.6857 107.987 79.5361 107.629 78.1844 107.629C77.4565 107.629 76.8904 107.767 76.486 108.042C76.0932 108.306 75.8968 108.653 75.8968 109.082C75.8968 109.401 76.0181 109.66 76.2607 109.858C76.5033 110.056 76.925 110.215 77.5258 110.336L79.4841 110.732C81.7255 111.195 82.8462 112.24 82.8462 113.869C82.8462 114.595 82.6382 115.233 82.2223 115.783C81.8179 116.323 81.2402 116.746 80.4893 117.054C79.7498 117.351 78.8718 117.5 77.8551 117.5Z" fill="#1B1F21"/>
    <path d="M84.59 117.318V105.682H87.2762V110.353H92.9605V105.682H95.6467V117.318H92.9605V112.482H87.2762V117.318H84.59Z" fill="#1B1F21"/>
    <path d="M98.1123 117.318V105.682H100.798V117.318H98.1123Z" fill="#1B1F21"/>
    <path d="M108.907 117.5C107.706 117.5 106.649 117.252 105.736 116.757C104.835 116.251 104.13 115.552 103.622 114.661C103.125 113.759 102.876 112.702 102.876 111.492C102.876 110.281 103.125 109.23 103.622 108.339C104.13 107.437 104.835 106.738 105.736 106.243C106.637 105.748 107.694 105.5 108.907 105.5C110.12 105.5 111.177 105.748 112.079 106.243C112.991 106.738 113.696 107.437 114.193 108.339C114.701 109.23 114.955 110.276 114.955 111.475C114.955 112.686 114.701 113.742 114.193 114.644C113.696 115.547 112.991 116.251 112.079 116.757C111.177 117.252 110.12 117.5 108.907 117.5ZM108.907 115.321C109.924 115.321 110.715 114.986 111.281 114.314C111.859 113.632 112.148 112.691 112.148 111.492C112.148 110.281 111.865 109.346 111.299 108.686C110.733 108.014 109.936 107.679 108.907 107.679C107.902 107.679 107.111 108.014 106.533 108.686C105.967 109.346 105.684 110.281 105.684 111.492C105.684 112.691 105.967 113.632 106.533 114.314C107.111 114.986 107.902 115.321 108.907 115.321Z" fill="#1B1F21"/>
    <path d="M117.033 117.318V105.682H119.026L125.127 113.093V105.682H127.622V117.318H125.646L119.529 109.891V117.318H117.033Z" fill="#1B1F21"/>
  </symbol>
  <symbol id="design" viewBox="0 0 180 180">
    <path d="M81.5672 3.83863C86.0242 -1.27954 93.9758 -1.27954 98.4328 3.83863L99.8441 5.45933C103.187 9.298 108.7 10.3947 113.258 8.12744L115.182 7.17019C121.258 4.14721 128.604 7.19018 130.763 13.6244L131.447 15.6618C133.066 20.4874 137.74 23.6106 142.818 23.2599L144.962 23.1118C151.733 22.6443 157.356 28.267 156.888 35.0376L156.74 37.1815C156.389 42.2596 159.513 46.9336 164.338 48.5529L166.376 49.2366C172.81 51.3956 175.853 58.742 172.83 64.8183L171.873 66.7424C169.605 71.2997 170.702 76.8132 174.541 80.1559L176.161 81.5672C181.28 86.0242 181.28 93.9758 176.161 98.4328L174.541 99.8441C170.702 103.187 169.605 108.7 171.873 113.258L172.83 115.182C175.853 121.258 172.81 128.604 166.376 130.763L164.338 131.447C159.513 133.066 156.389 137.74 156.74 142.818L156.888 144.962C157.356 151.733 151.733 157.356 144.962 156.888L142.818 156.74C137.74 156.389 133.066 159.513 131.447 164.338L130.763 166.376C128.604 172.81 121.258 175.853 115.182 172.83L113.258 171.873C108.7 169.605 103.187 170.702 99.8441 174.541L98.4328 176.161C93.9758 181.28 86.0242 181.28 81.5672 176.161L80.1559 174.541C76.8132 170.702 71.2997 169.605 66.7424 171.873L64.8183 172.83C58.742 175.853 51.3956 172.81 49.2366 166.376L48.5529 164.338C46.9336 159.513 42.2596 156.389 37.1815 156.74L35.0376 156.888C28.267 157.356 22.6443 151.733 23.1118 144.962L23.2599 142.818C23.6106 137.74 20.4875 133.066 15.6618 131.447L13.6244 130.763C7.19018 128.604 4.14721 121.258 7.17019 115.182L8.12744 113.258C10.3947 108.7 9.298 103.187 5.45933 99.8441L3.83863 98.4328C-1.27954 93.9758 -1.27954 86.0242 3.83863 81.5672L5.45933 80.1559C9.298 76.8132 10.3947 71.2997 8.12744 66.7424L7.17019 64.8183C4.14721 58.742 7.19018 51.3956 13.6244 49.2366L15.6618 48.5529C20.4874 46.9336 23.6106 42.2596 23.2599 37.1815L23.1118 35.0376C22.6443 28.267 28.267 22.6443 35.0376 23.1118L37.1815 23.2599C42.2596 23.6106 46.9336 20.4875 48.5529 15.6618L49.2366 13.6244C51.3956 7.19018 58.742 4.14721 64.8183 7.17019L66.7424 8.12744C71.2997 10.3947 76.8132 9.298 80.1559 5.45933L81.5672 3.83863Z" fill="#EC95B1"/>
    <path fill-rule="evenodd" clip-rule="evenodd" d="M98.587 13.9587C94.0485 8.74685 85.9514 8.74685 81.4129 13.9587C78.278 17.5586 73.1075 18.5871 68.8336 16.4608C62.6462 13.3825 55.1654 16.4812 52.9669 23.0331C51.4483 27.5586 47.0649 30.4875 42.3027 30.1586C35.4082 29.6825 29.6826 35.4081 30.1588 42.3026C30.4876 47.0648 27.5587 51.4481 23.0332 52.9667C16.4813 55.1653 13.3827 62.646 16.461 68.8335C18.5872 73.1074 17.5587 78.2779 13.9588 81.4128C8.74697 85.9512 8.74697 94.0484 13.9588 98.5869C17.5587 101.722 18.5872 106.892 16.461 111.166C13.3827 117.354 16.4813 124.834 23.0332 127.033C27.5587 128.551 30.4876 132.935 30.1588 137.697C29.6826 144.592 35.4082 150.317 42.3027 149.841C47.0649 149.512 51.4483 152.441 52.9669 156.967C55.1654 163.518 62.6462 166.617 68.8336 163.539C73.1075 161.413 78.278 162.441 81.4129 166.041C85.9514 171.253 94.0485 171.253 98.587 166.041C101.722 162.441 106.892 161.413 111.166 163.539C117.354 166.617 124.834 163.518 127.033 156.967C128.552 152.441 132.935 149.512 137.697 149.841C144.592 150.317 150.317 144.592 149.841 137.697C149.512 132.935 152.441 128.551 156.967 127.033C163.519 124.834 166.617 117.354 163.539 111.166C161.413 106.892 162.441 101.722 166.041 98.5869C171.253 94.0484 171.253 85.9512 166.041 81.4128C162.441 78.2779 161.413 73.1074 163.539 68.8335C166.617 62.646 163.519 55.1653 156.967 52.9667C152.441 51.4481 149.512 47.0648 149.841 42.3026C150.317 35.4081 144.592 29.6825 137.697 30.1586C132.935 30.4875 128.552 27.5586 127.033 23.0331C124.834 16.4812 117.354 13.3825 111.166 16.4608C106.892 18.5871 101.722 17.5586 98.587 13.9587ZM83.7661 16.0078C87.0608 12.2243 92.939 12.2243 96.2338 16.0078C100.301 20.679 107.011 22.0135 112.556 19.2546C117.048 17.0199 122.479 19.2693 124.075 24.0257C126.045 29.8979 131.733 33.6983 137.912 33.2716C142.917 32.926 147.074 37.0825 146.728 42.0876C146.301 48.2668 150.102 53.9545 155.974 55.925C160.73 57.521 162.98 62.9518 160.745 67.4436C157.986 72.9892 159.321 79.6983 163.992 83.766C167.775 87.0607 167.775 92.9389 163.992 96.2337C159.321 100.301 157.986 107.01 160.745 112.556C162.98 117.048 160.73 122.479 155.974 124.075C150.102 126.045 146.301 131.733 146.728 137.912C147.074 142.917 142.917 147.074 137.912 146.728C131.733 146.301 126.045 150.102 124.075 155.974C122.479 160.73 117.048 162.98 112.556 160.745C107.011 157.986 100.301 159.321 96.2338 163.992C92.939 167.775 87.0608 167.775 83.7661 163.992C79.6984 159.321 72.9893 157.986 67.4438 160.745C62.9519 162.98 57.5212 160.73 55.9251 155.974C53.9547 150.102 48.267 146.301 42.0877 146.728C37.0826 147.074 32.9261 142.917 33.2717 137.912C33.6984 131.733 29.898 126.045 24.0259 124.075C19.2695 122.479 17.02 117.048 19.2547 112.556C22.0136 107.01 20.6791 100.301 16.008 96.2337C12.2244 92.9389 12.2244 87.0607 16.008 83.766C20.6791 79.6983 22.0136 72.9892 19.2547 67.4436C17.02 62.9518 19.2695 57.521 24.0259 55.925C29.898 53.9545 33.6984 48.2668 33.2717 42.0876C32.9261 37.0825 37.0826 32.926 42.0877 33.2716C48.267 33.6983 53.9547 29.8979 55.9251 24.0257C57.5212 19.2693 62.9519 17.0199 67.4438 19.2546C72.9893 22.0135 79.6984 20.679 83.7661 16.0078Z" fill="#1B1F21"/>
    <path d="M103.584 81.35L99.8783 77.6448L90.6147 86.9084L81.3511 77.6448L77.6459 81.35L86.9095 90.6136L77.6459 99.8773L81.3511 103.582L90.6147 94.3188L99.8783 103.582L103.584 99.8773L94.3199 90.6136L103.584 81.35Z" fill="#1B1F21"/>
    <path d="M112.23 91.3341C112.23 92.5278 111.262 93.4956 110.068 93.4956C108.874 93.4956 107.907 92.5278 107.907 91.3341C107.907 90.1404 108.874 89.1726 110.068 89.1726C111.262 89.1726 112.23 90.1404 112.23 91.3341Z" fill="#1B1F21"/>
    <path d="M73.3229 91.3341C73.3229 92.5278 72.3552 93.4956 71.1615 93.4956C69.9677 93.4956 69 92.5278 69 91.3341C69 90.1404 69.9677 89.1726 71.1615 89.1726C72.3552 89.1726 73.3229 90.1404 73.3229 91.3341Z" fill="#1B1F21"/>
    <path d="M93.4969 71.1615C93.4969 72.3552 92.5292 73.3229 91.3355 73.3229C90.1417 73.3229 89.174 72.3552 89.174 71.1615C89.174 69.9677 90.1417 69 91.3355 69C92.5292 69 93.4969 69.9677 93.4969 71.1615Z" fill="#1B1F21"/>
    <path d="M93.4969 110.067C93.4969 111.261 92.5292 112.228 91.3355 112.228C90.1417 112.228 89.174 111.261 89.174 110.067C89.174 108.873 90.1417 107.905 91.3355 107.905C92.5292 107.905 93.4969 108.873 93.4969 110.067Z" fill="#1B1F21"/>
    <path d="M136.35 90.8706L135.569 95.7965C134.845 100.358 137.595 103.915 141.978 104.615C146.301 105.305 149.995 102.778 150.719 98.2166L151.5 93.2906L136.35 90.8706ZM148.153 97.8068C147.703 100.645 145.407 102.19 142.418 101.713C139.408 101.232 137.684 99.0443 138.134 96.2063L138.472 94.0778L148.491 95.6783L148.153 97.8068Z" fill="#1B1F21"/>
    <path d="M133.154 105.595L132.083 108.216L146.278 114.054L147.349 111.433L133.154 105.595Z" fill="#1B1F21"/>
    <path d="M134.774 126.092C137.293 126.964 139.585 126.106 141.266 123.58C143.015 120.951 142.864 117.814 140.686 116.355C137.88 114.474 135.813 116.471 134.042 118.172C132.748 119.452 131.641 120.562 130.433 119.753C129.191 118.921 129.357 117.526 130.243 116.194C131.219 114.726 132.547 114.135 134.368 114.836L135.306 111.985C132.555 111.055 130.086 111.919 128.178 114.787C126.282 117.638 126.49 120.615 128.905 122.234C131.627 124.057 133.779 122.191 135.521 120.496C136.861 119.222 137.991 118.078 139.164 118.864C140.151 119.526 140.173 120.75 139.219 122.184C138.344 123.498 137.056 123.844 135.729 123.326L134.774 126.092Z" fill="#1B1F21"/>
    <path d="M124.267 120.46L116.461 127.28L118.127 129.199L123.804 124.239L126.557 127.413L122.747 130.742L124.412 132.662L128.223 129.333L130.546 132.011L125.023 136.836L126.689 138.756L134.34 132.071L124.267 120.46Z" fill="#1B1F21"/>
    <path d="M103.704 133.269L107.304 131.694L117.551 139.301L117.626 139.268C117.477 138.96 117.325 138.646 117.171 138.325C117.022 138.017 116.871 137.702 116.716 137.382C116.555 137.079 116.397 136.767 116.243 136.447C116.094 136.139 115.943 135.824 115.788 135.504L113.04 129.182L115.571 128.074L121.411 141.508L117.83 143.075L107.643 135.554L107.586 135.578C107.735 135.886 107.881 136.188 108.025 136.484C108.173 136.792 108.319 137.094 108.463 137.389C108.599 137.703 108.739 138.007 108.882 138.303C109.031 138.611 109.18 138.919 109.329 139.227L112.093 145.587L109.543 146.703L103.704 133.269ZM119.737 143.561C119.912 144.067 120.008 144.526 120.023 144.937C120.031 145.366 119.972 145.743 119.845 146.067C119.723 146.404 119.55 146.689 119.324 146.923C119.085 147.161 118.804 147.352 118.479 147.494C118.229 147.603 117.963 147.66 117.682 147.664C117.394 147.685 117.108 147.676 116.823 147.637C116.531 147.615 116.25 147.604 115.982 147.602C115.719 147.612 115.474 147.667 115.249 147.766C115.062 147.848 114.916 148.009 114.812 148.248C114.708 148.488 114.689 148.787 114.756 149.146L113.387 149.745C113.043 148.747 113.007 147.911 113.28 147.239C113.553 146.567 114.009 146.092 114.646 145.813C114.896 145.703 115.159 145.64 115.434 145.624C115.716 145.621 116.002 145.63 116.294 145.651C116.592 145.685 116.872 145.697 117.135 145.686C117.404 145.688 117.65 145.64 117.875 145.541C118.063 145.459 118.209 145.298 118.313 145.059C118.417 144.819 118.436 144.52 118.369 144.161L119.737 143.561Z" fill="#1B1F21"/>
    <path d="M102.745 141.645C102.482 137.096 99.0833 133.942 94.55 134.206C90.0167 134.469 87.0036 137.996 87.2663 142.545C87.5301 147.115 90.9278 150.248 95.461 149.985C99.9943 149.721 103.009 146.215 102.745 141.645ZM90.1864 142.375C90.0018 139.178 91.8006 136.977 94.7002 136.808C97.5999 136.639 99.6401 138.618 99.8247 141.815C100.009 145.012 98.2104 147.213 95.3108 147.382C92.4111 147.551 90.3709 145.572 90.1864 142.375Z" fill="#1B1F21"/>
    <path d="M78.146 140.311C77.9076 141.039 77.5993 141.586 77.2214 141.951C76.8305 142.312 76.3958 142.521 75.9174 142.579C75.4347 142.651 74.9408 142.603 74.4356 142.436C73.9303 142.27 73.511 142.016 73.1776 141.676C72.8269 141.344 72.6009 140.916 72.4995 140.393C72.3982 139.87 72.4667 139.244 72.7052 138.516C72.9394 137.801 73.252 137.263 73.6429 136.903C74.0338 136.542 74.4706 136.326 74.9533 136.254C75.423 136.179 75.9104 136.225 76.4157 136.391C76.9209 136.558 77.3467 136.814 77.6931 137.158C78.0395 137.503 78.2634 137.937 78.3647 138.46C78.4531 138.979 78.3802 139.596 78.146 140.311Z" fill="#1B1F21"/>
    <path d="M68.9959 128.796L65.097 125.703C61.4869 122.838 57.0503 123.505 54.2974 126.999C51.5826 130.445 51.9722 134.914 55.5824 137.779L59.4813 140.873L68.9959 128.796ZM57.1935 135.734C54.9472 133.952 54.727 131.186 56.6045 128.803C58.4948 126.404 61.2395 125.965 63.4858 127.748L65.1706 129.084L58.8782 137.071L57.1935 135.734Z" fill="#1B1F21"/>
    <path d="M57.7875 118.819L56.0288 116.604L44.0298 126.196L45.7885 128.411L57.7875 118.819Z" fill="#1B1F21"/>
    <path d="M39.1743 110.309C37.1902 112.093 36.8232 114.52 38.2063 117.223C39.6456 120.035 42.4508 121.427 44.7797 120.226C47.7818 118.679 47.0473 115.896 46.4269 113.516C45.9413 111.759 45.5133 110.249 46.8051 109.583C48.1333 108.898 49.2674 109.721 49.9963 111.145C50.8001 112.716 50.6694 114.167 49.1736 115.423L51.201 117.632C53.3478 115.671 53.7955 113.087 52.2254 110.019C50.6647 106.97 47.9706 105.705 45.387 107.037C42.4759 108.538 43.055 111.331 43.6843 113.684C44.1428 115.478 44.5895 117.025 43.3341 117.672C42.2788 118.216 41.2023 117.64 40.4172 116.106C39.6976 114.7 40.022 113.402 41.1191 112.491L39.1743 110.309Z" fill="#1B1F21"/>
    <path d="M49.1772 103.836L47.083 93.664L44.5991 94.1791L46.1222 101.577L42.0158 102.428L40.9935 97.4629L38.5096 97.9779L39.5319 102.943L36.0665 103.662L34.5848 96.4651L32.1009 96.9801L34.1538 106.951L49.1772 103.836Z" fill="#1B1F21"/>
    <path d="M48.108 79.5191L47.715 83.4404L36.0885 88.6829L36.0803 88.7646C36.4208 88.7852 36.7682 88.8065 37.1223 88.8285C37.4629 88.8491 37.8102 88.8704 38.1643 88.8924C38.5063 88.8994 38.8543 88.9139 39.2084 88.9359C39.549 88.9565 39.8963 88.9778 40.2504 88.9998L47.0886 89.6901L46.8122 92.4473L32.2811 90.9805L32.6721 87.0796L44.1949 81.8473L44.201 81.786C43.8604 81.7654 43.5267 81.7455 43.1997 81.7262C42.8591 81.7056 42.5253 81.6857 42.1984 81.6664C41.8592 81.6322 41.5261 81.6054 41.1991 81.5862C40.8585 81.5656 40.518 81.5449 40.1774 81.5243L33.2985 80.83L33.5769 78.0524L48.108 79.5191ZM31.3158 88.5106C30.7908 88.4163 30.3458 88.2751 29.9809 88.087C29.6038 87.8839 29.3054 87.6475 29.0858 87.3778C28.8526 87.1066 28.6899 86.8152 28.5978 86.5033C28.5071 86.1778 28.4795 85.8381 28.515 85.484C28.5423 85.2117 28.6231 84.9517 28.7576 84.704C28.8799 84.4412 29.0279 84.1949 29.2017 83.9648C29.3633 83.7198 29.5107 83.4803 29.6438 83.2461C29.7633 83.0107 29.8354 82.7704 29.86 82.5253C29.8804 82.321 29.812 82.1147 29.6547 81.9063C29.4975 81.6979 29.2465 81.535 28.902 81.4177L29.0514 79.9268C30.0879 80.1139 30.8313 80.4915 31.2814 81.0596C31.7316 81.6277 31.9219 82.2589 31.8523 82.9533C31.825 83.2256 31.7509 83.4863 31.63 83.7355C31.4955 83.9832 31.3474 84.2296 31.1858 84.4746C31.0107 84.7182 30.8633 84.9578 30.7438 85.1933C30.6107 85.4274 30.5318 85.667 30.5073 85.9121C30.4868 86.1163 30.5552 86.3226 30.7125 86.5311C30.8697 86.7395 31.1207 86.9024 31.4652 87.0197L31.3158 88.5106Z" fill="#1B1F21"/>
    <path d="M41.2707 74.5057C45.3476 76.5123 49.7551 75.0922 51.7547 71.0009C53.7542 66.9096 52.1749 62.5428 48.098 60.5362C44.0027 58.5206 39.6135 59.9497 37.614 64.041C35.6144 68.1323 37.1754 72.49 41.2707 74.5057ZM46.81 63.1716C49.6748 64.5817 50.7014 67.236 49.4224 69.853C48.1434 72.4699 45.4236 73.2803 42.5587 71.8703C39.6938 70.4602 38.6673 67.8059 39.9463 65.1889C41.2253 62.572 43.9451 61.7616 46.81 63.1716Z" fill="#1B1F21"/>
    <path d="M54.287 53.8741C53.769 53.311 53.443 52.775 53.3089 52.266C53.1848 51.7478 53.2137 51.2648 53.3956 50.8169C53.5682 50.359 53.8499 49.9491 54.2407 49.5871C54.6315 49.2251 55.0562 48.9806 55.5148 48.8538C55.9741 48.7076 56.4563 48.7173 56.9611 48.8828C57.466 49.0483 57.9774 49.4126 58.4953 49.9757C59.004 50.5287 59.3205 51.0644 59.4445 51.5826C59.5686 52.1009 59.5444 52.5889 59.3717 53.0468C59.2091 53.4955 58.9324 53.9008 58.5416 54.2628C58.1508 54.6248 57.7211 54.8738 57.2525 55.01C56.7839 55.1461 56.2972 55.1314 55.7923 54.9659C55.2975 54.7911 54.7957 54.4272 54.287 53.8741Z" fill="#1B1F21"/>
    <path d="M68.7743 51.3668L73.3664 49.4581C77.6184 47.6907 79.2007 43.4782 77.5022 39.363C75.8272 35.3046 71.7481 33.4675 67.4961 35.2348L62.904 37.1435L68.7743 51.3668ZM68.4902 37.6433C71.1358 36.5436 73.6493 37.6985 74.8077 40.5052C75.9739 43.3309 75.018 45.9499 72.3724 47.0496L70.3881 47.8743L66.5059 38.468L68.4902 37.6433Z" fill="#1B1F21"/>
    <path d="M82.9661 46.3754L85.752 45.9194L83.2824 30.7252L80.4965 31.1812L82.9661 46.3754Z" fill="#1B1F21"/>
    <path d="M99.5486 34.2463C98.9735 31.6358 97.0462 30.1231 94.0212 30.0059C90.8735 29.884 88.2877 31.6531 88.1867 34.2785C88.0565 37.6629 90.833 38.3868 93.2038 39.0127C94.9678 39.4508 96.4889 39.8179 96.4329 41.2742C96.3753 42.7715 95.104 43.3591 93.5098 43.2973C91.752 43.2292 90.5556 42.4022 90.1998 40.478L87.2871 41.1663C87.9352 44.0057 89.9593 45.6658 93.393 45.7989C96.8064 45.9311 99.2271 44.1967 99.3392 41.2841C99.4655 38.0023 96.7558 37.1372 94.4046 36.5326C92.6217 36.0527 91.0598 35.684 91.1142 34.2687C91.16 33.0791 92.1884 32.4205 93.9052 32.487C95.4791 32.548 96.4466 33.4688 96.6996 34.8754L99.5486 34.2463Z" fill="#1B1F21"/>
    <path d="M100.289 46.1303L110.158 49.2618L110.922 46.835L103.745 44.5575L105.01 40.5453L109.827 42.074L110.591 39.6471L105.774 38.1185L106.841 34.7326L113.823 36.9482L114.588 34.5214L104.915 31.4517L100.289 46.1303Z" fill="#1B1F21"/>
    <path d="M121.8 56.9531L118.582 54.6934L119.704 41.9517L119.637 41.9046C119.452 42.1928 119.264 42.4865 119.072 42.7859C118.888 43.074 118.7 43.3677 118.508 43.6671C118.334 43.9631 118.152 44.2607 117.96 44.5601C117.775 44.8482 117.587 45.142 117.395 45.4413L113.454 51.0919L111.192 49.5031L119.566 37.4955L122.767 39.7434L121.687 52.3892L121.738 52.4246C121.922 52.1364 122.102 51.8539 122.279 51.577C122.463 51.2888 122.643 51.0063 122.82 50.7294C123.015 50.4491 123.201 50.1705 123.378 49.8936C123.562 49.6054 123.746 49.3173 123.931 49.0292L127.895 43.3449L130.174 44.9455L121.8 56.9531ZM122.185 37.8567C122.523 37.443 122.864 37.1224 123.205 36.8948C123.566 36.6638 123.918 36.518 124.259 36.4574C124.609 36.3856 124.942 36.3856 125.258 36.4573C125.585 36.5369 125.894 36.6787 126.185 36.8827C126.408 37.0396 126.595 37.2374 126.745 37.4762C126.913 37.7116 127.055 37.9616 127.17 38.2262C127.304 38.4874 127.441 38.7334 127.579 38.9643C127.726 39.1841 127.899 39.3645 128.1 39.5058C128.268 39.6235 128.481 39.6644 128.739 39.6285C128.997 39.5926 129.261 39.4524 129.531 39.208L130.755 40.0671C130.086 40.8834 129.394 41.3498 128.68 41.4665C127.967 41.5831 127.325 41.4414 126.755 41.0412C126.532 40.8843 126.341 40.692 126.184 40.4645C126.034 40.2257 125.892 39.9757 125.758 39.7145C125.632 39.4421 125.495 39.1961 125.349 38.9764C125.21 38.7454 125.041 38.5594 124.839 38.4181C124.672 38.3004 124.459 38.2595 124.201 38.2954C123.943 38.3313 123.679 38.4715 123.408 38.7159L122.185 37.8567Z" fill="#1B1F21"/>
    <path d="M129.638 53.5271C125.909 56.1263 125.002 60.6817 127.592 64.4247C130.182 68.1677 134.752 68.9064 138.482 66.3072C142.228 63.6964 143.118 59.1526 140.528 55.4097C137.938 51.6667 133.385 50.9163 129.638 53.5271ZM136.813 63.8962C134.192 65.7226 131.382 65.332 129.725 62.9378C128.069 60.5437 128.686 57.7646 131.307 55.9382C133.928 54.1117 136.738 54.5024 138.395 56.8966C140.051 59.2907 139.434 62.0698 136.813 63.8962Z" fill="#1B1F21"/>
    <path d="M141.291 75.0705C142.034 74.8926 142.66 74.8695 143.168 75.0011C143.679 75.146 144.084 75.4076 144.385 75.7859C144.698 76.161 144.917 76.6081 145.04 77.1273C145.163 77.6464 145.168 78.1377 145.054 78.6011C144.956 79.0747 144.712 79.4919 144.321 79.8528C143.93 80.2137 143.364 80.4831 142.621 80.661C141.891 80.8357 141.271 80.8506 140.76 80.7056C140.249 80.5607 139.836 80.3007 139.523 79.9256C139.213 79.5638 138.996 79.1233 138.872 78.6042C138.749 78.0851 138.743 77.5871 138.854 77.1104C138.964 76.6336 139.215 76.2148 139.606 75.8539C140 75.5063 140.562 75.2452 141.291 75.0705Z" fill="#1B1F21"/>
  </symbol>
  <symbol id="marketing" viewBox="0 0 240 149">
    <path d="M100.817 5.5696C112.717 -1.18986 127.283 -1.18987 139.183 5.56959L152.288 13.014C158.143 16.34 164.759 18.0868 171.489 18.0836L198.719 18.071C210.225 18.0657 219.551 27.4229 219.535 38.9565L219.534 39.3491C219.524 46.6384 223.435 53.3671 229.767 56.9521C243.411 64.6771 243.411 84.3748 229.767 92.0998C223.435 95.6849 219.524 102.414 219.534 109.703L219.535 110.095C219.551 121.629 210.225 130.986 198.719 130.981L171.489 130.968C164.759 130.965 158.143 132.712 152.288 136.038L139.183 143.482C127.283 150.242 112.717 150.242 100.817 143.482L87.7117 136.038C81.8565 132.712 75.2408 130.965 68.5108 130.968L41.2815 130.981C29.7748 130.986 20.4486 121.629 20.4652 110.095L20.4658 109.703C20.4763 102.414 16.5649 95.6849 10.2329 92.0998C-3.41097 84.3748 -3.41097 64.6771 10.2329 56.9521C16.5649 53.3671 20.4763 46.6384 20.4658 39.3491L20.4652 38.9565C20.4486 27.4229 29.7748 18.0657 41.2815 18.071L68.5108 18.0836C75.2408 18.0868 81.8565 16.34 87.7117 13.014L100.817 5.5696Z" fill="#FFAD20"/>
    <path fill-rule="evenodd" clip-rule="evenodd" d="M75.5101 24.8339C74.7865 24.895 74.06 24.9354 73.3317 24.9548C72.989 24.964 72.646 24.9685 72.3027 24.9683L67.2384 24.9661C67.2373 27.3761 69.1901 29.3306 71.6001 29.3317L72.3008 29.332C72.6836 29.3321 73.0661 29.3271 73.4481 29.3169C75.8572 29.2526 77.758 27.2475 77.6937 24.8384C77.6915 24.7541 77.6869 24.6705 77.6799 24.5875C76.9602 24.6904 76.2366 24.7726 75.5101 24.8339ZM85.1688 22.7183C85.2027 22.7968 85.2391 22.8748 85.278 22.9522C86.3605 25.1054 88.9835 25.9733 91.1367 24.8909C91.4795 24.7185 91.82 24.5413 92.1581 24.3593L92.8326 23.9961C94.9546 22.8537 95.7486 20.2073 94.6061 18.0853L90.0895 20.5171C89.7874 20.6798 89.4831 20.8381 89.1767 20.9922C88.5266 21.319 87.867 21.6264 87.1992 21.914C86.5305 22.202 85.8534 22.4702 85.1688 22.7183ZM97.7132 16.4125C98.8557 18.5344 101.502 19.3285 103.624 18.186L104.298 17.8228C104.476 17.7273 104.654 17.6334 104.833 17.5413C106.899 16.4782 107.757 13.9946 106.828 11.8974C106.147 12.1514 105.473 12.4259 104.805 12.7208C104.142 13.014 103.485 13.3275 102.837 13.6612C102.634 13.7657 102.431 13.8722 102.23 13.9807L97.7132 16.4125ZM108.943 11.1798C109.485 13.4109 111.681 14.8577 113.968 14.4394C114.366 14.3667 114.765 14.3012 115.164 14.243C117.466 13.9079 119.085 11.8337 118.883 9.5459C118.155 9.56731 117.428 9.60964 116.703 9.67289C115.979 9.73604 115.256 9.82005 114.536 9.92491C114.084 9.99072 113.633 10.0648 113.183 10.147C112.468 10.2777 111.756 10.4293 111.049 10.6015C110.343 10.7736 109.64 10.9663 108.943 11.1798ZM121.117 9.5459C120.915 11.8337 122.534 13.9079 124.835 14.243C125.235 14.3012 125.634 14.3667 126.032 14.4394C128.319 14.8577 130.515 13.4109 131.057 11.1798C130.36 10.9663 129.657 10.7736 128.951 10.6015C128.243 10.4292 127.532 10.2777 126.817 10.147C126.367 10.0648 125.916 9.99072 125.464 9.9249C124.744 9.82004 124.021 9.73604 123.297 9.67289C122.572 9.60964 121.845 9.56731 121.117 9.5459ZM133.172 11.8974C132.243 13.9946 133.101 16.4782 135.167 17.5413C135.346 17.6334 135.524 17.7272 135.701 17.8228L136.376 18.186C138.498 19.3285 141.144 18.5344 142.287 16.4125L137.77 13.9807C137.569 13.8722 137.366 13.7657 137.163 13.6612C136.515 13.3275 135.858 13.014 135.194 12.7208C134.527 12.4259 133.853 12.1514 133.172 11.8974ZM145.394 18.0853C144.251 20.2073 145.045 22.8536 147.167 23.9961L147.842 24.3593C148.18 24.5413 148.52 24.7185 148.863 24.8908C151.016 25.9733 153.639 25.1054 154.722 22.9522C154.761 22.8748 154.797 22.7968 154.831 22.7183C154.147 22.4702 153.469 22.202 152.801 21.914C152.133 21.6264 151.473 21.319 150.823 20.9922C150.517 20.8381 150.213 20.6798 149.91 20.5171L145.394 18.0853ZM162.32 24.5875C162.313 24.6705 162.308 24.7541 162.306 24.8384C162.242 27.2475 164.143 29.2526 166.552 29.3169C166.934 29.3271 167.316 29.3321 167.699 29.332L168.4 29.3317C170.81 29.3306 172.763 27.3761 172.762 24.9661L167.697 24.9683C167.354 24.9685 167.011 24.964 166.668 24.9548C165.94 24.9354 165.213 24.895 164.49 24.8339C163.763 24.7726 163.04 24.6904 162.32 24.5875ZM175.245 24.965C175.246 27.375 177.201 29.3278 179.611 29.3267L181.012 29.3261C183.422 29.3251 185.375 27.3705 185.374 24.9606L175.245 24.965ZM187.857 24.9595C187.858 27.3695 189.813 29.3223 192.223 29.3212L192.923 29.3209C193.141 29.3208 193.357 29.325 193.571 29.3335C195.821 29.4221 197.74 27.7913 198.06 25.6129C197.36 25.4298 196.645 25.2833 195.916 25.1756C195.204 25.0704 194.479 25.0022 193.743 24.9732C193.471 24.9625 193.197 24.9571 192.921 24.9573L187.857 24.9595ZM202.152 27.1853C200.929 29.0033 201.241 31.4893 202.95 32.9419C203.273 33.2161 203.582 33.503 203.878 33.8015C205.45 35.3919 207.943 35.5196 209.664 34.1749C209.286 33.5497 208.871 32.9476 208.421 32.3714C207.974 31.7988 207.493 31.2518 206.98 30.7332C206.596 30.3448 206.194 29.9723 205.776 29.6169C205.224 29.1474 204.643 28.7078 204.036 28.3007C203.433 27.8959 202.804 27.5233 202.152 27.1853ZM211.448 38.1725C209.31 38.5369 207.728 40.4463 207.828 42.6696C207.837 42.8745 207.841 43.0809 207.841 43.2886L207.841 43.3078C207.841 43.3591 207.842 43.4101 207.843 43.461C207.841 43.5118 207.84 43.5629 207.84 43.6142L207.84 43.6333C207.84 44.0789 207.853 44.5228 207.88 44.9644C208.027 47.3699 210.097 49.2005 212.502 49.0532C212.693 49.0415 212.88 49.0178 213.063 48.9827C212.918 48.5451 212.791 48.1014 212.682 47.6522C212.618 47.3907 212.561 47.1273 212.51 46.8624C212.422 46.4107 212.353 45.9543 212.303 45.494C212.275 45.2298 212.252 44.9643 212.236 44.6977C212.214 44.3469 212.203 43.9942 212.204 43.64L212.205 43.2952C212.205 43.0199 212.199 42.746 212.187 42.4737C212.171 42.1269 212.145 41.7825 212.11 41.441C212.07 41.0585 212.018 40.6795 211.953 40.3043C211.894 39.9598 211.825 39.6186 211.746 39.2809C211.659 38.907 211.559 38.5374 211.448 38.1725ZM217.334 55.8725C217.23 56.0057 217.132 56.1464 217.041 56.2944C215.785 58.3509 216.433 61.0366 218.49 62.2932C218.859 62.5186 219.236 62.7347 219.62 62.9408C219.785 63.0292 219.946 63.1195 220.104 63.2118C222.04 64.3407 224.486 63.8115 225.796 62.0578C225.276 61.5623 224.718 61.0904 224.122 60.6456C223.551 60.2185 222.944 59.8164 222.302 59.4423C222.099 59.324 221.893 59.2085 221.683 59.0959C221.371 58.9282 221.065 58.7526 220.765 58.5696C220.138 58.1865 219.54 57.7707 218.973 57.3252C218.394 56.8707 217.847 56.3854 217.334 55.8725ZM227.496 63.9267C225.636 65.0353 224.847 67.38 225.735 69.4164C225.876 69.7384 226.002 70.0648 226.115 70.3949C226.832 72.4976 228.995 73.6973 231.116 73.2624C231.063 72.5346 230.963 71.8096 230.816 71.0919C230.671 70.3813 230.481 69.6778 230.245 68.9862C230.094 68.543 229.924 68.1046 229.735 67.6723C229.446 67.0099 229.114 66.3617 228.737 65.732C228.366 65.1109 227.952 64.5078 227.496 63.9267ZM231.116 75.7899C228.995 75.355 226.832 76.5547 226.115 78.6574C226.002 78.9875 225.876 79.3139 225.735 79.6359C224.847 81.6723 225.636 84.017 227.496 85.1256C227.952 84.5445 228.366 83.9414 228.737 83.3203C229.114 82.6906 229.446 82.0424 229.735 81.38C229.924 80.9477 230.094 80.5093 230.245 80.0662C230.481 79.3745 230.671 78.6711 230.816 77.9604C230.963 77.2427 231.063 76.5177 231.116 75.7899ZM225.796 86.9945C224.486 85.2408 222.04 84.7116 220.104 85.8406C219.946 85.9328 219.785 86.0232 219.62 86.1115C219.236 86.3177 218.859 86.5337 218.49 86.7592C216.433 88.0157 215.785 90.7014 217.041 92.7579C217.132 92.9059 217.23 93.0466 217.334 93.1799C217.847 92.6669 218.394 92.1816 218.973 91.7271C219.54 91.2816 220.138 90.8658 220.765 90.4828C221.065 90.2997 221.371 90.1242 221.683 89.9564C221.893 89.8438 222.099 89.7284 222.302 89.6101C222.944 89.236 223.551 88.8338 224.122 88.4067C224.718 87.9619 225.276 87.49 225.796 86.9945ZM213.063 100.07C212.88 100.035 212.693 100.011 212.502 99.9991C210.097 99.8518 208.027 101.682 207.88 104.088C207.853 104.529 207.84 104.973 207.84 105.419L207.84 105.438C207.84 105.489 207.841 105.54 207.843 105.591C207.842 105.642 207.841 105.693 207.841 105.745L207.841 105.764C207.841 105.971 207.837 106.178 207.828 106.383C207.728 108.606 209.31 110.515 211.448 110.88C211.559 110.515 211.659 110.145 211.746 109.771C211.825 109.434 211.894 109.092 211.953 108.748C212.018 108.373 212.07 107.994 212.11 107.611C212.145 107.27 212.171 106.925 212.187 106.579C212.199 106.306 212.205 106.032 212.205 105.757L212.204 105.412C212.203 105.058 212.214 104.705 212.236 104.355C212.252 104.088 212.275 103.823 212.303 103.558C212.353 103.098 212.422 102.642 212.51 102.19C212.561 101.925 212.618 101.662 212.682 101.4C212.791 100.951 212.918 100.507 213.063 100.07ZM209.664 114.877C207.943 113.533 205.45 113.66 203.878 115.251C203.582 115.549 203.273 115.836 202.95 116.11C201.241 117.563 200.929 120.049 202.152 121.867C202.804 121.529 203.433 121.156 204.036 120.752C204.643 120.344 205.224 119.905 205.776 119.435C206.194 119.08 206.596 118.708 206.98 118.319C207.493 117.8 207.974 117.254 208.421 116.681C208.871 116.105 209.286 115.503 209.664 114.877ZM198.06 123.439C197.74 121.261 195.821 119.63 193.571 119.719C193.357 119.727 193.141 119.732 192.923 119.731L192.223 119.731C189.813 119.73 187.858 121.683 187.857 124.093L192.921 124.095C193.197 124.095 193.471 124.09 193.743 124.079C194.479 124.05 195.204 123.982 195.916 123.877C196.645 123.769 197.36 123.623 198.06 123.439ZM185.374 124.092C185.375 121.682 183.422 119.727 181.012 119.726L179.611 119.726C177.201 119.725 175.246 121.677 175.245 124.087L185.374 124.092ZM172.762 124.086C172.763 121.676 170.81 119.722 168.4 119.721L167.699 119.72C167.316 119.72 166.934 119.725 166.552 119.735C164.143 119.8 162.242 121.805 162.306 124.214C162.308 124.298 162.313 124.382 162.32 124.465C163.04 124.362 163.763 124.28 164.49 124.218C165.213 124.157 165.94 124.117 166.668 124.097C167.011 124.088 167.354 124.084 167.697 124.084L172.762 124.086ZM154.831 126.334C154.797 126.256 154.761 126.178 154.722 126.1C153.639 123.947 151.016 123.079 148.863 124.161C148.52 124.334 148.18 124.511 147.842 124.693L147.167 125.056C145.045 126.199 144.251 128.845 145.394 130.967L149.91 128.535C150.213 128.373 150.517 128.214 150.823 128.06C151.473 127.733 152.133 127.426 152.801 127.138C153.469 126.85 154.147 126.582 154.831 126.334ZM142.287 132.64C141.144 130.518 138.498 129.724 136.376 130.866L135.701 131.229C135.524 131.325 135.346 131.419 135.167 131.511C133.101 132.574 132.243 135.058 133.172 137.155C133.853 136.901 134.527 136.626 135.194 136.332C135.858 136.038 136.515 135.725 137.163 135.391C137.366 135.287 137.569 135.18 137.77 135.072L142.287 132.64ZM131.057 137.873C130.515 135.641 128.319 134.195 126.032 134.613C125.634 134.686 125.235 134.751 124.835 134.809C122.534 135.144 120.915 137.219 121.117 139.506C121.845 139.485 122.572 139.443 123.297 139.379C124.021 139.316 124.744 139.232 125.464 139.127C125.916 139.062 126.367 138.988 126.817 138.905C127.532 138.775 128.243 138.623 128.951 138.451C129.657 138.279 130.36 138.086 131.057 137.873ZM118.883 139.506C119.085 137.219 117.466 135.144 115.164 134.809C114.765 134.751 114.366 134.686 113.968 134.613C111.681 134.195 109.485 135.641 108.943 137.873C109.64 138.086 110.343 138.279 111.049 138.451C111.756 138.623 112.468 138.775 113.183 138.905C113.633 138.988 114.084 139.062 114.536 139.127C115.256 139.232 115.979 139.316 116.703 139.379C117.428 139.443 118.155 139.485 118.883 139.506ZM106.828 137.155C107.757 135.058 106.899 132.574 104.833 131.511C104.654 131.419 104.476 131.325 104.298 131.229L103.624 130.866C101.502 129.724 98.8557 130.518 97.7132 132.64L102.23 135.072C102.431 135.18 102.634 135.287 102.837 135.391C103.485 135.725 104.142 136.038 104.805 136.332C105.473 136.626 106.147 136.901 106.828 137.155ZM94.6061 130.967C95.7486 128.845 94.9546 126.199 92.8326 125.056L92.1581 124.693C91.82 124.511 91.4795 124.334 91.1367 124.161C88.9835 123.079 86.3605 123.947 85.278 126.1C85.2391 126.178 85.2027 126.255 85.1688 126.334C85.8534 126.582 86.5304 126.85 87.1991 127.138C87.867 127.426 88.5266 127.733 89.1767 128.06C89.4831 128.214 89.7874 128.373 90.0895 128.535L94.6061 130.967ZM77.6799 124.465C77.6869 124.382 77.6915 124.298 77.6937 124.214C77.758 121.805 75.8572 119.8 73.4481 119.735C73.0661 119.725 72.6836 119.72 72.3008 119.72L71.6001 119.721C69.1901 119.722 67.2373 121.676 67.2384 124.086L72.3027 124.084C72.646 124.084 72.989 124.088 73.3317 124.097C74.06 124.117 74.7865 124.157 75.5101 124.218C76.2366 124.28 76.9602 124.362 77.6799 124.465ZM64.7549 124.087C64.7539 121.677 62.7994 119.725 60.3894 119.726L58.9881 119.726C56.5781 119.727 54.6253 121.682 54.6263 124.092L64.7549 124.087ZM52.1429 124.093C52.1419 121.683 50.1873 119.73 47.7774 119.731L47.0767 119.731C46.8593 119.732 46.6433 119.727 46.4286 119.719C44.1789 119.63 42.26 121.261 41.9399 123.439C42.6396 123.623 43.3552 123.769 44.0843 123.877C44.7963 123.982 45.5212 124.05 46.2568 124.079C46.5293 124.09 46.8033 124.095 47.0786 124.095L52.1429 124.093ZM37.8476 121.867C39.0707 120.049 38.7587 117.563 37.0496 116.11C36.727 115.836 36.4176 115.549 36.1224 115.251C34.5497 113.66 32.0567 113.533 30.3364 114.877C30.7137 115.503 31.1287 116.105 31.5785 116.681C32.0255 117.254 32.5068 117.8 33.0197 118.319C33.4038 118.708 33.8055 119.08 34.2237 119.435C34.7761 119.905 35.3571 120.344 35.9639 120.752C36.5672 121.156 37.196 121.529 37.8476 121.867ZM28.5516 110.88C30.6904 110.515 32.2724 108.606 32.1724 106.383C32.1632 106.178 32.1587 105.971 32.159 105.764L32.1591 105.745C32.1591 105.693 32.1583 105.642 32.1566 105.591C32.1585 105.541 32.1594 105.489 32.1595 105.438L32.1595 105.419C32.1602 104.973 32.1469 104.529 32.1199 104.088C31.9726 101.682 29.9031 99.8518 27.4977 99.9991C27.3069 100.011 27.1198 100.035 26.9369 100.07C27.0819 100.507 27.2092 100.951 27.3183 101.4C27.3819 101.662 27.4393 101.925 27.4904 102.19C27.5775 102.642 27.6465 103.098 27.6966 103.558C27.7254 103.823 27.7481 104.088 27.7644 104.355C27.7859 104.705 27.7965 105.058 27.7959 105.412L27.7954 105.757C27.795 106.032 27.8009 106.306 27.8132 106.579C27.8288 106.925 27.8545 107.27 27.8901 107.611C27.93 107.994 27.9823 108.373 28.0466 108.748C28.1056 109.092 28.1748 109.434 28.2537 109.771C28.3411 110.145 28.4406 110.515 28.5516 110.88ZM22.6658 93.1799C22.7702 93.0466 22.8681 92.9059 22.9585 92.7579C24.215 90.7014 23.5665 88.0157 21.51 86.7592C21.141 86.5337 20.7642 86.3177 20.38 86.1115C20.2154 86.0232 20.054 85.9328 19.8959 85.8406C17.96 84.7116 15.5139 85.2408 14.2042 86.9945C14.7242 87.49 15.282 87.9619 15.8776 88.4067C16.4494 88.8338 17.0561 89.236 17.6976 89.6101C17.9005 89.7284 18.1068 89.8438 18.3166 89.9564C18.6291 90.1242 18.9353 90.2997 19.2349 90.4828C19.8618 90.8658 20.4598 91.2816 21.0272 91.7271C21.606 92.1816 22.1529 92.6669 22.6658 93.1799ZM12.5044 85.1256C14.3637 84.017 15.1526 81.6723 14.2646 79.6359C14.1242 79.314 13.9977 78.9875 13.8851 78.6574C13.1679 76.5547 11.0044 75.355 8.88379 75.7899C8.93741 76.5177 9.03742 77.2427 9.18381 77.9604C9.32877 78.6711 9.51921 79.3745 9.75514 80.0662C9.90631 80.5093 10.0762 80.9477 10.2647 81.3801C10.5535 82.0424 10.8862 82.6906 11.2626 83.3204C11.6339 83.9414 12.0478 84.5445 12.5044 85.1256ZM8.88379 73.2624C11.0044 73.6973 13.1679 72.4976 13.8851 70.3949C13.9977 70.0648 14.1242 69.7384 14.2646 69.4164C15.1526 67.38 14.3637 65.0353 12.5044 63.9267C12.0478 64.5078 11.6339 65.1109 11.2626 65.732C10.8862 66.3617 10.5535 67.0099 10.2647 67.6723C10.0762 68.1046 9.90631 68.543 9.75514 68.9862C9.51921 69.6778 9.32877 70.3813 9.18381 71.0919C9.03742 71.8096 8.93741 72.5346 8.88379 73.2624ZM14.2042 62.0578C15.5139 63.8115 17.96 64.3407 19.8959 63.2118C20.054 63.1195 20.2154 63.0292 20.38 62.9408C20.7642 62.7347 21.141 62.5186 21.51 62.2932C23.5665 61.0366 24.215 58.3509 22.9585 56.2944C22.8681 56.1464 22.7702 56.0057 22.6658 55.8725C22.1529 56.3854 21.606 56.8707 21.0272 57.3252C20.4598 57.7707 19.8618 58.1865 19.2349 58.5696C18.9353 58.7526 18.6291 58.9282 18.3166 59.0959C18.1068 59.2085 17.9005 59.324 17.6976 59.4423C17.0561 59.8164 16.4494 60.2185 15.8776 60.6456C15.282 61.0904 14.7242 61.5623 14.2042 62.0578ZM26.9369 48.9827C27.1198 49.0178 27.3069 49.0415 27.4977 49.0532C29.9031 49.2005 31.9726 47.3699 32.1199 44.9644C32.1469 44.5228 32.1602 44.0789 32.1595 43.6333L32.1595 43.6142C32.1594 43.5629 32.1585 43.5118 32.1566 43.461C32.1583 43.4101 32.1591 43.359 32.1591 43.3077L32.159 43.2886C32.1587 43.0809 32.1632 42.8745 32.1724 42.6696C32.2724 40.4463 30.6904 38.5369 28.5516 38.1725C28.4406 38.5374 28.3411 38.907 28.2537 39.2809C28.1747 39.6186 28.1056 39.9598 28.0466 40.3043C27.9823 40.6795 27.93 41.0585 27.8901 41.441C27.8545 41.7825 27.8288 42.1269 27.8132 42.4737C27.8009 42.746 27.795 43.0199 27.7954 43.2952L27.7959 43.64C27.7965 43.9942 27.7859 44.3469 27.7644 44.6977C27.7481 44.9643 27.7254 45.2298 27.6966 45.494C27.6465 45.9543 27.5775 46.4107 27.4904 46.8624C27.4393 47.1273 27.3819 47.3907 27.3183 47.6522C27.2092 48.1013 27.0819 48.5451 26.9369 48.9827ZM30.3364 34.1749C32.0567 35.5196 34.5497 35.3919 36.1224 33.8015C36.4176 33.503 36.727 33.2161 37.0496 32.9419C38.7587 31.4893 39.0707 29.0033 37.8476 27.1853C37.196 27.5233 36.5672 27.8959 35.9639 28.3007C35.3571 28.7078 34.7761 29.1475 34.2237 29.6169C33.8055 29.9723 33.4038 30.3448 33.0197 30.7332C32.5068 31.2518 32.0255 31.7988 31.5785 32.3714C31.1287 32.9475 30.7137 33.5497 30.3364 34.1749ZM41.9399 25.6129C42.26 27.7913 44.1789 29.4221 46.4286 29.3335C46.6433 29.325 46.8593 29.3208 47.0767 29.3209L47.7774 29.3212C50.1873 29.3223 52.1419 27.3695 52.1429 24.9595L47.0786 24.9573C46.8033 24.9571 46.5293 24.9625 46.2568 24.9732C45.5212 25.0022 44.7963 25.0704 44.0843 25.1756C43.3552 25.2833 42.6396 25.4298 41.9399 25.6129ZM54.6263 24.9606C54.6253 27.3705 56.5781 29.3251 58.9881 29.3261L60.3894 29.3267C62.7994 29.3278 64.7539 27.375 64.7549 24.965L54.6263 24.9606Z" fill="#1B1F21"/>
    <path d="M113.386 108.073C113.386 106.797 113.659 105.692 114.204 104.757C114.772 103.801 115.547 103.06 116.53 102.536C117.512 102.012 118.626 101.75 119.87 101.75C121.137 101.75 122.25 102.012 123.211 102.536C124.193 103.037 124.957 103.766 125.503 104.723C126.071 105.657 126.355 106.774 126.355 108.073C126.355 109.348 126.071 110.465 125.503 111.422C124.957 112.356 124.193 113.085 123.211 113.609C122.25 114.133 121.137 114.395 119.87 114.395C118.626 114.395 117.512 114.144 116.53 113.643C115.547 113.119 114.772 112.379 114.204 111.422C113.659 110.465 113.386 109.348 113.386 108.073ZM117.185 108.073C117.185 108.87 117.436 109.508 117.938 109.986C118.44 110.442 119.084 110.67 119.87 110.67C120.634 110.67 121.268 110.431 121.77 109.952C122.294 109.474 122.556 108.847 122.556 108.073C122.556 107.275 122.294 106.649 121.77 106.193C121.268 105.714 120.634 105.475 119.87 105.475C119.084 105.475 118.44 105.714 117.938 106.193C117.436 106.649 117.185 107.275 117.185 108.073Z" fill="#1B1F21"/>
    <path d="M113.386 41.3225C113.386 40.0466 113.659 38.9416 114.204 38.0075C114.772 37.0505 115.547 36.3101 116.53 35.786C117.512 35.262 118.626 35 119.87 35C121.137 35 122.25 35.262 123.211 35.786C124.193 36.2873 124.957 37.0164 125.503 37.9733C126.071 38.9074 126.355 40.0238 126.355 41.3225C126.355 42.5984 126.071 43.7148 125.503 44.6717C124.957 45.6059 124.193 46.3349 123.211 46.859C122.25 47.383 121.137 47.645 119.87 47.645C118.626 47.645 117.512 47.3944 116.53 46.8931C115.547 46.3691 114.772 45.6286 114.204 44.6717C113.659 43.7148 113.386 42.5984 113.386 41.3225ZM117.185 41.3225C117.185 42.1199 117.436 42.7579 117.938 43.2363C118.44 43.692 119.084 43.9199 119.87 43.9199C120.634 43.9199 121.268 43.6806 121.77 43.2022C122.294 42.7237 122.556 42.0972 122.556 41.3225C122.556 40.5251 122.294 39.8985 121.77 39.4428C121.268 38.9644 120.634 38.7251 119.87 38.7251C119.084 38.7251 118.44 38.9644 117.938 39.4428C117.436 39.8985 117.185 40.5251 117.185 41.3225Z" fill="#1B1F21"/>
    <path d="M190.797 64.25C185.105 64.25 180.937 68.6599 180.937 74.6357C180.937 80.6614 185.076 85.1275 190.771 85.1275C193.475 85.1275 195.759 84.1997 197.367 82.5632C198.976 80.927 199.892 78.5993 199.892 75.8295V73.8801H188.762V77.5402H195.783C195.587 79.8003 193.531 81.3348 190.797 81.3348C189.008 81.3348 187.576 80.6759 186.587 79.5231C185.595 78.3666 185.032 76.6921 185.032 74.6357C185.032 72.609 185.618 70.9683 186.622 69.8374C187.624 68.709 189.058 68.0692 190.797 68.0692C192.044 68.0692 193.071 68.3963 193.867 68.9896C194.664 69.583 195.244 70.4543 195.577 71.5695L195.641 71.7846L199.483 70.6505L199.425 70.4378C198.402 66.6974 195.172 64.25 190.797 64.25Z" fill="#1B1F21"/>
    <path d="M44.1687 64.5153H40.1084V84.8622H43.9228V70.4394L49.2679 77.6993H50.2098L55.5542 70.3655V84.8622H59.3941V64.5153H55.3323L49.8129 72.2098L44.1687 64.5153Z" fill="#1B1F21"/>
    <path fill-rule="evenodd" clip-rule="evenodd" d="M73.2585 64.5153H69.1209L61.6664 84.8622H65.7162L67.8062 78.9197H74.4202L76.5102 84.8622H80.7129L73.2585 64.5153ZM73.1143 75.2331H69.1121L71.1132 69.5797L73.1143 75.2331Z" fill="#1B1F21"/>
    <path fill-rule="evenodd" clip-rule="evenodd" d="M90.637 64.5153H82.995V84.8622H86.9624V76.9565H89.6703L94.5385 84.8622H99.0683L93.6964 76.1258C95.7823 75.2497 97.1576 73.379 97.1576 70.7359C97.1576 68.8625 96.4861 67.3022 95.3248 66.2112C94.1649 65.1215 92.5329 64.5153 90.637 64.5153ZM86.9624 73.2169V68.2549H90.5861C91.4051 68.2549 92.0527 68.5111 92.4942 68.9378C92.9351 69.364 93.1902 69.9791 93.1902 70.7359C93.1902 71.5068 92.9347 72.1212 92.4948 72.5434C92.054 72.9664 91.4066 73.2169 90.5861 73.2169H86.9624Z" fill="#1B1F21"/>
    <path d="M105.357 64.5153H101.389V84.8622H105.357V76.0811H107.054L113.222 84.8622H117.95L110.406 74.0323L117.747 64.5153H112.946L107.16 72.2088H105.357V64.5153Z" fill="#1B1F21"/>
    <path d="M132.975 64.5153H119.883V84.8622H133.23V81.1226H123.85V76.1341H130.146V72.3945H123.85V68.2549H132.975V64.5153Z" fill="#1B1F21"/>
    <path d="M149.759 64.5153H134.653V68.3345H140.209V84.8622H144.177V68.3345H149.759V64.5153Z" fill="#1B1F21"/>
    <path d="M156.507 64.5153H152.54V84.8622H156.507V64.5153Z" fill="#1B1F21"/>
    <path d="M165.099 64.5153H161.002V84.8622H164.766V70.7797L173.541 84.8622H177.637V64.5153H173.848V78.4947L165.099 64.5153Z" fill="#1B1F21"/>
  </symbol>
  <symbol id="software" viewBox="0 0 180 181">
    <path d="M180 90.5C180 140.206 139.706 180.5 90 180.5C40.2944 180.5 0 140.206 0 90.5C0 40.7944 40.2944 0.5 90 0.5C139.706 0.5 180 40.7944 180 90.5ZM49.8808 90.5C49.8808 112.657 67.8428 130.619 90 130.619C112.157 130.619 130.119 112.657 130.119 90.5C130.119 68.3428 112.157 50.3808 90 50.3808C67.8428 50.3808 49.8808 68.3428 49.8808 90.5Z" fill="#ACD6DE"/>
    <path d="M162.001 103.379C164.588 102.962 166.178 101.155 166.464 98.1906C166.762 95.1063 165.178 92.4666 162.615 92.2187C159.311 91.8992 158.445 94.5849 157.698 96.8778C157.169 98.5854 156.724 100.058 155.302 99.921C153.84 99.7796 153.338 98.4978 153.489 96.9357C153.655 95.2132 154.532 94.0852 156.435 93.8447L155.927 90.9452C153.112 91.4209 151.373 93.3146 151.048 96.6793C150.724 100.024 152.284 102.5 155.127 102.775C158.331 103.084 159.331 100.472 160.057 98.1976C160.627 96.4738 161.077 94.9607 162.459 95.0943C163.62 95.2067 164.206 96.2539 164.043 97.9362C163.894 99.4784 162.938 100.377 161.548 100.545L162.001 103.379Z" fill="#1B1F21"/>
    <path d="M158.016 105.188C153.79 103.745 149.666 105.676 148.224 109.903C146.781 114.131 148.864 118.18 153.091 119.623C157.337 121.072 161.441 119.135 162.884 114.907C164.326 110.68 162.262 106.637 158.016 105.188ZM154.02 116.899C151.05 115.886 149.719 113.433 150.642 110.728C151.564 108.024 154.117 106.897 157.087 107.911C160.057 108.925 161.388 111.378 160.466 114.082C159.543 116.786 156.99 117.913 154.02 116.899Z" fill="#1B1F21"/>
    <path d="M144.598 119.247L143.133 121.606L148.517 124.949L145.885 129.188L148.004 130.505L150.636 126.265L153.832 128.25L150.266 133.994L152.386 135.31L157.416 127.207L144.598 119.247Z" fill="#1B1F21"/>
    <path d="M136.432 130.896L134.549 132.936L143.759 141.439L140.77 144.677L142.648 146.41L150.494 137.909L148.616 136.176L145.642 139.399L136.432 130.896Z" fill="#1B1F21"/>
    <path d="M130.265 149.794L129.385 142.422L137.726 150.715L140.051 149.162L129.148 138.298L126.705 139.929L127.44 146.068L121.987 143.08L119.561 144.7L125.412 158.938L127.704 157.407L123.216 146.517L129.78 150.118L130.265 149.794Z" fill="#1B1F21"/>
    <path d="M117.18 146.126L114.518 147.046L114.43 151.845L109.258 153.632L106.228 149.911L103.451 150.87L113.817 163.255L116.669 162.269L117.18 146.126ZM114.376 154.461L114.268 159.756L110.915 155.657L114.376 154.461Z" fill="#1B1F21"/>
    <path d="M102.413 150.903L99.6534 151.203L100.299 157.164L97.8992 157.424L93.4334 151.877L90.2934 152.217L95.1577 158.268C93.5427 159.05 92.5723 160.551 92.789 162.552C93.0859 165.292 95.3188 166.852 98.2188 166.537L104.039 165.907L102.413 150.903ZM97.9901 164.053C96.6301 164.2 95.6812 163.473 95.549 162.253C95.4146 161.012 96.1879 160.119 97.5479 159.972L100.568 159.644L101.01 163.725L97.9901 164.053Z" fill="#1B1F21"/>
    <path d="M88.2722 151.991L78.1481 150.933L77.8889 153.414L85.2519 154.184L84.8234 158.286L79.8814 157.77L79.6222 160.251L84.5642 160.768L84.2026 164.23L77.0396 163.481L76.7804 165.963L86.7045 167L88.2722 151.991Z" fill="#1B1F21"/>
    <path d="M69.6731 155.454C69.4039 156.155 69.0144 156.703 68.5043 157.096C67.9769 157.497 67.3763 157.733 66.7023 157.805C66.0283 157.877 65.3345 157.776 64.6208 157.502C63.8946 157.223 63.3113 156.834 62.8709 156.334C62.4132 155.843 62.1287 155.274 62.0175 154.627C61.889 153.989 61.9617 153.313 62.2357 152.599C62.5048 151.898 62.903 151.346 63.4304 150.945C63.9404 150.552 64.5325 150.32 65.2064 150.248C65.8679 150.171 66.5617 150.272 67.2879 150.551C68.0016 150.825 68.5873 151.208 69.045 151.7C69.4979 152.204 69.7862 152.782 69.9099 153.433C70.0211 154.079 69.9422 154.753 69.6731 155.454ZM67.4944 154.618C67.6626 154.179 67.6532 153.773 67.4661 153.4C67.2743 153.039 66.9529 152.772 66.5022 152.599C66.064 152.431 65.6504 152.423 65.2615 152.575C64.8601 152.723 64.5777 153.01 64.4143 153.435C64.2461 153.874 64.2642 154.276 64.4686 154.642C64.6556 155.015 64.9683 155.286 65.4065 155.454C65.8573 155.627 66.2771 155.638 66.666 155.485C67.0501 155.345 67.3262 155.056 67.4944 154.618Z" fill="#1B1F21"/>
    <path d="M42.7809 145.872C41.8267 148.313 42.5763 150.6 44.9841 152.352C47.4894 154.175 50.5673 154.15 52.082 152.067C54.0346 149.382 52.1608 147.272 50.5651 145.464C49.3628 144.142 48.3202 143.01 49.1604 141.855C50.0243 140.667 51.3835 140.884 52.6524 141.808C54.0515 142.826 54.5779 144.154 53.819 145.916L56.5743 146.95C57.5936 144.283 56.8455 141.823 54.1124 139.834C51.3956 137.858 48.4715 137.945 46.7911 140.255C44.8977 142.859 46.6398 145.047 48.2311 146.827C49.426 148.194 50.5012 149.349 49.6846 150.472C48.9983 151.416 47.7988 151.389 46.4322 150.395C45.1796 149.483 44.8913 148.204 45.452 146.92L42.7809 145.872Z" fill="#1B1F21"/>
    <path d="M43.2166 141.477C46.6062 138.568 47.0384 134.035 44.1305 130.645C41.2226 127.255 36.6773 126.993 33.2878 129.901C29.8829 132.823 29.466 137.343 32.3739 140.733C35.2819 144.124 39.8118 144.399 43.2166 141.477ZM35.1609 132.085C37.5427 130.041 40.3314 130.14 42.1914 132.309C44.0514 134.477 43.7254 137.249 41.3435 139.293C38.9617 141.337 36.173 141.238 34.313 139.069C32.453 136.901 32.779 134.129 35.1609 132.085Z" fill="#1B1F21"/>
    <path d="M37.954 122.847L36.6582 120.392L31.054 123.35L28.7253 118.937L26.5192 120.101L28.8478 124.515L25.5209 126.271L22.3659 120.292L20.1598 121.456L24.6105 129.891L37.954 122.847Z" fill="#1B1F21"/>
    <path d="M32.0574 109.988L31.2505 107.331L19.2586 110.975L17.978 106.759L15.5335 107.502L18.8958 118.572L21.3404 117.829L20.0656 113.632L32.0574 109.988Z" fill="#1B1F21"/>
    <path d="M18.8935 95.0574L25.6837 98.0554L14.2995 101.009L14.4504 103.801L29.3523 99.9527L29.1937 97.0192L23.5386 94.5241L28.8874 91.3532L28.7298 88.4399L13.5 86.2208L13.6488 88.9734L25.3041 90.6604L18.862 94.4748L18.8935 95.0574Z" fill="#1B1F21"/>
    <path d="M28.683 85.5585L29.2424 82.7976L25.1535 80.2853L26.2403 74.9213L30.9844 74.1994L31.5677 71.3202L15.6377 73.9631L15.0384 76.9212L28.683 85.5585ZM22.9279 78.9104L18.4216 76.1287L23.6551 75.3212L22.9279 78.9104Z" fill="#1B1F21"/>
    <path d="M31.9854 70.5036L33.1332 67.9753L27.6747 65.4962L28.6728 63.2976L35.7199 62.2775L37.0258 59.4011L29.3427 60.5081C29.4918 58.7195 28.6937 57.1195 26.862 56.2876C24.3526 55.1478 21.874 56.2761 20.6679 58.9327L18.2475 64.2641L31.9854 70.5036ZM22.9226 60.0009C23.4882 58.7551 24.5969 58.3084 25.7142 58.8159C26.8499 59.3317 27.2249 60.4522 26.6593 61.6981L25.4034 64.4646L21.6667 62.7674L22.9226 60.0009Z" fill="#1B1F21"/>
    <path d="M38.156 57.8197L44.2337 49.6522L42.2327 48.1625L37.8125 54.1024L34.5042 51.6396L37.4711 47.6527L35.47 46.163L32.5032 50.1498L29.7113 48.0714L34.0114 42.2929L32.0103 40.8032L26.0527 48.8092L38.156 57.8197Z" fill="#1B1F21"/>
    <path d="M44.5308 40.0642C44.0629 39.4766 43.7887 38.8633 43.7084 38.2241C43.6301 37.5662 43.731 36.9284 44.0108 36.311C44.2907 35.6936 44.7296 35.1467 45.3275 34.6702C45.9359 34.1855 46.567 33.8799 47.2207 33.7534C47.8766 33.6082 48.5112 33.6514 49.1244 33.8831C49.7397 34.096 50.2855 34.5014 50.7619 35.0995C51.2298 35.687 51.5029 36.3098 51.5811 36.9678C51.6615 37.6069 51.5617 38.2352 51.2819 38.8526C51.0125 39.4617 50.5736 40.0086 49.9652 40.4934C49.3673 40.9698 48.7404 41.2807 48.0845 41.426C47.4203 41.5608 46.7763 41.5165 46.1526 41.2931C45.5394 41.0614 44.9988 40.6517 44.5308 40.0642ZM46.3561 38.6099C46.6486 38.9771 47.0032 39.1748 47.4199 39.2029C47.8283 39.2205 48.2213 39.0788 48.599 38.7779C48.9661 38.4854 49.1826 38.1329 49.2484 37.7203C49.3246 37.2994 49.2207 36.9105 48.9366 36.5538C48.6441 36.1866 48.2885 35.9983 47.8696 35.9891C47.4528 35.961 47.0609 36.0932 46.6937 36.3857C46.3161 36.6866 46.0944 37.0433 46.0286 37.4559C45.9545 37.858 46.0636 38.2426 46.3561 38.6099Z" fill="#1B1F21"/>
    <path d="M66.4362 21.6196C64.8143 19.5612 62.4626 19.0506 59.7336 20.2413C56.894 21.4803 55.358 24.1482 56.3876 26.5089C57.7148 29.552 60.4822 29.0031 62.8487 28.5413C64.5977 28.1734 66.1013 27.8466 66.6724 29.156C67.2596 30.5024 66.3841 31.5649 64.9459 32.1924C63.3601 32.8843 61.9481 32.6662 60.8129 31.12L58.5267 32.9736C60.3109 35.2027 62.811 35.8021 65.9088 34.4505C68.9881 33.107 70.3927 30.5403 69.2505 27.9214C67.9635 24.9705 65.1951 25.3662 62.8551 25.8384C61.0716 26.1775 59.5311 26.5204 58.9761 25.2478C58.5096 24.1781 59.1396 23.1568 60.6885 22.481C62.1083 21.8615 63.3577 22.2603 64.1812 23.3938L66.4362 21.6196Z" fill="#1B1F21"/>
    <path d="M70.0141 24.1816C70.8004 28.5788 74.4868 31.2511 78.8831 30.4646C83.2793 29.6781 85.811 25.8933 85.0246 21.4961C84.2347 17.0791 80.5518 14.4266 76.1556 15.2131C71.7594 15.9997 69.2242 19.7647 70.0141 24.1816ZM82.1928 22.0027C82.7454 25.0926 81.2452 27.446 78.4332 27.9491C75.6212 28.4522 73.3985 26.7649 72.8459 23.675C72.2933 20.5851 73.7935 18.2317 76.6055 17.7286C79.4175 17.2255 81.6402 18.9128 82.1928 22.0027Z" fill="#1B1F21"/>
    <path d="M89.0157 29.0721L91.7884 29.2113L92.1061 22.8811L97.0889 23.1313L97.214 20.6394L92.2312 20.3891L92.4198 16.6312L99.1707 16.9702L99.2958 14.4782L89.7722 14L89.0157 29.0721Z" fill="#1B1F21"/>
    <path d="M102.861 30.4788L105.558 31.1336L108.514 18.9514L112.795 19.9905L113.398 17.5071L102.157 14.7789L101.554 17.2623L105.816 18.2966L102.861 30.4788Z" fill="#1B1F21"/>
    <path d="M122.757 26.8345L116.712 31.1431L119.987 19.8448L117.509 18.5485L113.208 33.3291L115.811 34.6907L120.843 31.1016L120.838 37.3206L123.422 38.6728L133.107 26.7087L130.665 25.4311L123.263 34.5929L123.274 27.105L122.757 26.8345Z" fill="#1B1F21"/>
    <path d="M125.801 40.0245L127.891 41.9126L132.135 39.6734L136.196 43.3416L134.4 47.7925L136.58 49.7614L142.423 34.7046L140.183 32.6817L125.801 40.0245ZM134.452 38.4584L139.141 35.9972L137.17 40.9129L134.452 38.4584Z" fill="#1B1F21"/>
    <path d="M137.018 50.4623L138.618 52.7315L143.517 49.2755L144.908 51.2486L142.224 57.8453L144.044 60.4268L146.975 53.2375C148.443 54.2708 150.226 54.3914 151.87 53.2317C154.122 51.6429 154.403 48.9335 152.722 46.5493L149.348 41.7643L137.018 50.4623ZM150.66 47.9544C151.448 49.0726 151.273 50.2551 150.27 50.9625C149.251 51.6816 148.095 51.4384 147.306 50.3203L145.555 47.8374L148.909 45.4715L150.66 47.9544Z" fill="#1B1F21"/>
    <path d="M144.878 62.2692L148.843 71.6464L151.141 70.6744L148.257 63.8547L152.055 62.2478L153.991 66.8252L156.288 65.8532L154.352 61.2758L157.558 59.9198L160.363 66.5542L162.661 65.5823L158.774 56.3904L144.878 62.2692Z" fill="#1B1F21"/>
    <path d="M156.947 76.8377C157.691 76.7338 158.359 76.81 158.95 77.0661C159.556 77.3336 160.053 77.745 160.442 78.3002C160.831 78.8554 161.078 79.5116 161.184 80.2689C161.292 81.0394 161.233 81.7383 161.009 82.3655C160.801 83.0042 160.44 83.5285 159.929 83.9385C159.433 84.36 158.806 84.6236 158.049 84.7293C157.305 84.8331 156.63 84.7512 156.024 84.4837C155.433 84.2276 154.943 83.8219 154.554 83.2667C154.167 82.7248 153.92 82.0686 153.812 81.298C153.706 80.5407 153.758 79.8428 153.967 79.2041C154.189 78.5637 154.555 78.0317 155.064 77.6084C155.576 77.1984 156.204 76.9415 156.947 76.8377ZM157.27 79.1493C156.805 79.2142 156.455 79.4189 156.218 79.7635C155.995 80.1061 155.917 80.5166 155.984 80.9949C156.049 81.4598 156.242 81.8256 156.564 82.0923C156.887 82.3722 157.275 82.4806 157.726 82.4176C158.191 82.3527 158.534 82.1423 158.755 81.7863C158.992 81.4418 159.077 81.0371 159.012 80.5721C158.946 80.0938 158.751 79.7213 158.43 79.4547C158.122 79.1862 157.735 79.0844 157.27 79.1493Z" fill="#1B1F21"/>
  </symbol>
</svg>
