<svg xmlns="http://www.w3.org/2000/svg" width="288" height="498" fill="none"><g clip-path="url(#a)"><path fill="#000" d="M59.1 2C31.5 8.7 9.3 31.1 2 59.4c-2 7.8-2 10.5-2 189.3 0 204.5-.6 187.9 8 205.9 7.7 15.9 20.8 28.7 37.3 36.5 20.2 9.4 46.3 9.4 66.6-.1 11.2-5.3 24.1-15.9 30.4-25l1.7-2.4 1.7 2.4c3.4 5 11.9 13.3 17.9 17.6 13.7 9.8 28.3 14.4 45.6 14.4 14.1 0 22.9-2 35.4-8 20.5-9.9 35.5-28.5 41.4-51.4 2-7.8 2-10.5 2-189.3 0-204.5.6-187.9-8-205.9-7.7-15.9-20.8-28.7-37.3-36.5-20.2-9.4-46.3-9.4-66.6.1-11.2 5.3-24.1 15.9-30.4 25l-1.7 2.4-1.7-2.4c-9.4-13.7-27-25.5-44.7-30C87.3-.6 69.7-.6 59.1 2Z"/></g><defs><clipPath id="a"><path fill="#fff" d="M0 0h288v498H0z"/></clipPath></defs></svg>