<svg xmlns="http://www.w3.org/2000/svg" width="1208" height="518" fill="none"><path fill="#000" d="M0 97.97C0 43.862 39.21 0 87.58 0h1032.84c48.37 0 87.58 43.862 87.58 97.97 0 33.358-14.9 62.823-37.67 80.515C1193.1 196.177 1208 225.641 1208 259s-14.9 62.823-37.67 80.515c22.77 17.692 37.67 47.157 37.67 80.515 0 54.108-39.21 97.97-87.58 97.97H87.58C39.21 518 0 474.138 0 420.03c0-33.358 14.904-62.823 37.67-80.515C14.904 321.823 0 292.359 0 259s14.904-62.823 37.67-80.515C14.904 160.793 0 131.328 0 97.97Z"/></svg>