<svg xmlns="http://www.w3.org/2000/svg" width="304" height="400" fill="none"><g clip-path="url(#a)"><path fill="#000" d="M80.1 1.5c-3.5.8-8.7 2.2-11.5 3.1C34.6 15.7 8.7 45 1.5 80.5.1 87.6 0 101 .2 203.5l.3 115 2.8 8.8c3.7 12 7.5 20 13.8 29.3 10.7 16 28.7 30.2 46.7 37 14.3 5.3 23.3 6.7 40.1 6.1 16.6-.5 26.6-2.9 40.4-9.6l7.9-3.8 7.6 3.8c4.3 2.1 11.8 5 16.7 6.6 8.3 2.5 10.3 2.7 27 2.7 19.5.1 23-.5 38.8-6.6 23.8-9.1 46-31.9 55.3-56.6 6.7-18 6.5-12.4 6.2-139.7l-.3-115-2.8-8.8c-3.7-12-7.5-20-13.8-29.3-10.7-16-28.7-30.2-46.7-37-14.3-5.3-23.3-6.7-40.1-6.1-16.6.5-26.6 2.9-40.4 9.6l-7.9 3.8-7.6-3.8c-14.1-7-23.5-9.1-41.7-9.5C91.1.1 84.7.5 80.1 1.5Z"/></g><defs><clipPath id="a"><path fill="#fff" d="M0 0h304v400H0z"/></clipPath></defs></svg>