<?xml version="1.0" encoding="utf-8"?>
<svg xmlns="http://www.w3.org/2000/svg" xmlns:xlink="http://www.w3.org/1999/xlink">
  <symbol id="error" viewBox="0 0 29 29">
    <path d="M14.5 15.75C14.8542 15.75 15.1513 15.63 15.3913 15.39C15.6304 15.1508 15.75 14.8542 15.75 14.5V9.46875C15.75 9.11458 15.6304 8.82292 15.3913 8.59375C15.1513 8.36458 14.8542 8.25 14.5 8.25C14.1458 8.25 13.8492 8.36958 13.61 8.60875C13.37 8.84875 13.25 9.14583 13.25 9.5V14.5312C13.25 14.8854 13.37 15.1771 13.61 15.4062C13.8492 15.6354 14.1458 15.75 14.5 15.75ZM14.5 20.75C14.8542 20.75 15.1513 20.63 15.3913 20.39C15.6304 20.1508 15.75 19.8542 15.75 19.5C15.75 19.1458 15.6304 18.8487 15.3913 18.6087C15.1513 18.3696 14.8542 18.25 14.5 18.25C14.1458 18.25 13.8492 18.3696 13.61 18.6087C13.37 18.8487 13.25 19.1458 13.25 19.5C13.25 19.8542 13.37 20.1508 13.61 20.39C13.8492 20.63 14.1458 20.75 14.5 20.75ZM14.5 27C12.7708 27 11.1458 26.6717 9.625 26.015C8.10417 25.3592 6.78125 24.4688 5.65625 23.3438C4.53125 22.2188 3.64083 20.8958 2.985 19.375C2.32833 17.8542 2 16.2292 2 14.5C2 12.7708 2.32833 11.1458 2.985 9.625C3.64083 8.10417 4.53125 6.78125 5.65625 5.65625C6.78125 4.53125 8.10417 3.64042 9.625 2.98375C11.1458 2.32792 12.7708 2 14.5 2C16.2292 2 17.8542 2.32792 19.375 2.98375C20.8958 3.64042 22.2188 4.53125 23.3438 5.65625C24.4688 6.78125 25.3592 8.10417 26.015 9.625C26.6717 11.1458 27 12.7708 27 14.5C27 16.2292 26.6717 17.8542 26.015 19.375C25.3592 20.8958 24.4688 22.2188 23.3438 23.3438C22.2188 24.4688 20.8958 25.3592 19.375 26.015C17.8542 26.6717 16.2292 27 14.5 27Z" fill="#FCFAF9"/>
  </symbol>
  <symbol id="success" viewBox="0 0 29 29">
    <path fill-rule="evenodd" clip-rule="evenodd" d="M14.4997 1.20825C7.15905 1.20825 1.20801 7.15929 1.20801 14.4999C1.20801 21.8405 7.15905 27.7916 14.4997 27.7916C21.8403 27.7916 27.7913 21.8405 27.7913 14.4999C27.7913 7.15929 21.8403 1.20825 14.4997 1.20825ZM20.261 12.2524C20.3671 12.1312 20.4479 11.9899 20.4986 11.837C20.5492 11.684 20.5688 11.5225 20.5562 11.3619C20.5435 11.2012 20.4989 11.0448 20.4248 10.9017C20.3508 10.7585 20.2489 10.6317 20.1251 10.5285C20.0014 10.4254 19.8582 10.348 19.7041 10.301C19.55 10.254 19.388 10.2383 19.2277 10.2548C19.0675 10.2713 18.9121 10.3197 18.7708 10.3972C18.6295 10.4746 18.5052 10.5795 18.405 10.7058L13.2092 16.9395L10.5206 14.2498C10.2927 14.0297 9.98751 13.9079 9.67069 13.9106C9.35387 13.9134 9.0508 14.0405 8.82677 14.2645C8.60273 14.4885 8.47565 14.7916 8.4729 15.1084C8.47015 15.4253 8.59194 15.7305 8.81205 15.9584L12.437 19.5834C12.5558 19.702 12.6979 19.7946 12.8544 19.8553C13.0109 19.916 13.1784 19.9434 13.346 19.9358C13.5137 19.9282 13.678 19.8857 13.8283 19.8111C13.9787 19.7365 14.1119 19.6313 14.2193 19.5024L20.261 12.2524Z" fill="#FCFAF9"/>
  </symbol>
</svg>
