<svg xmlns="http://www.w3.org/2000/svg" width="120" height="120" fill="none"><circle cx="60" cy="60" r="60" fill="#FE6D44"/><path fill="#FCFAF9" d="m105.658 34.548-7.654 6.923 1.125 2.516 10.265-1.079-.874-1.956-7.92.908 5.964-5.285-.906-2.027ZM105.452 46.3c-2.87.531-4.593 3.002-4.061 5.865.532 2.863 3.029 4.552 5.899 4.021 2.87-.531 4.593-3.002 4.061-5.865-.532-2.863-3.03-4.552-5.899-4.02Zm1.444 7.768c-1.866.345-3.296-.546-3.613-2.253-.318-1.708.697-3.051 2.563-3.396 1.866-.346 3.296.545 3.613 2.252.318 1.708-.697 3.051-2.563 3.397ZM107.389 57.83c-2.901-.167-5.167 1.612-5.34 4.597-.131 2.268 1.002 3.982 2.992 4.698l.692-1.987c-1.196-.396-1.839-1.296-1.764-2.587.101-1.747 1.505-2.673 3.295-2.57 1.79.103 3.075 1.237 2.975 2.97-.074 1.265-.823 1.98-2.043 2.224l.47 2.068c2.013-.355 3.363-1.938 3.493-4.18.169-2.92-1.909-5.068-4.77-5.233ZM100.213 73.229l1.373-5.19 9.035 2.381-1.373 5.189-1.569-.413.868-3.283-1.986-.523-.809 3.055-1.569-.413.808-3.056-2.328-.613-.869 3.282-1.581-.416Zm12.196 1.687a8.264 8.264 0 0 0-.753.288 23.544 23.544 0 0 0-1.525.8l-.164-.044.331-1.25c.192-.183.412-.381.658-.596.255-.212.525-.397.811-.556a5.007 5.007 0 0 1-.421-.867c-.11-.3-.208-.577-.293-.834l.33-1.25.165.044c.118.202.257.428.416.677.166.26.339.512.517.757.185.256.355.467.509.634l-.581 2.197ZM98.384 77.927 95.04 83.84l1.63.917 2.315-4.094 1.983 1.116-1.53 2.707 1.63.917 1.53-2.706 1.676.943-2.251 3.98 1.631.918 3.279-5.8-8.55-4.812ZM95.423 94.867c1.615.707 3.152.3 4.436-1.2 1.36-1.588 1.541-3.65.168-4.82-1.652-1.408-3.213-.248-4.462.748-.866.67-1.57 1.29-2.236.722-.607-.518-.426-1.291.186-2.006.688-.804 1.521-1.073 2.52-.531l.918-2.017c-1.696-.793-3.35-.349-4.779 1.32-1.488 1.737-1.584 3.698-.131 4.937 1.582 1.348 3.142.29 4.375-.667.91-.701 1.658-1.353 2.294-.81.528.45.437 1.18-.21 1.934-.628.734-1.41.823-2.173.448l-.906 1.942ZM87.146 92.295l-1.642 1.297 4.9 6.172-2.195 1.735 1.195 1.505 6.032-4.768-1.194-1.504-2.196 1.735-4.9-6.172ZM77.275 98.483l1.62 1.666 3.029-1.548-.409-2.285 1.899-.97 1.343 9.833-2.155 1.101-7.226-6.826 1.9-.97Zm4.394 4.547c.106.112.242.253.408.423.165.169.333.343.502.52.17.178.314.334.432.469a15.23 15.23 0 0 1-.135-.664 40.658 40.658 0 0 1-.148-.746 6.75 6.75 0 0 1-.093-.496l-.396-2.233-2.167 1.108 1.597 1.619Zm.782 6.364c.053-.164.13-.369.228-.615.1-.247.21-.508.332-.786a14.779 14.779 0 0 1 .677-1.432l1.153-.589.077.151-.168.732c-.067.288-.129.579-.185.872-.051.3-.088.563-.109.789l-1.945.994-.06-.116ZM71.392 100.558l-2.034.496 2.334 9.513 2.034-.497-2.334-9.512ZM67.28 101.715l-1.947.117.412 6.817-4.71-6.558-2.22.133.59 9.776 1.96-.118-.41-6.765 4.695 6.507 2.22-.133-.59-9.776ZM48.473 108.18c.229 1.745 1.373 2.847 3.323 3.168 2.066.34 3.928-.57 4.222-2.348.354-2.139-1.448-2.873-2.949-3.424-1.022-.394-1.918-.673-1.775-1.537.13-.786.887-1.031 1.817-.878 1.046.172 1.707.744 1.758 1.878l2.205-.259c-.196-1.859-1.433-3.042-3.602-3.399-2.26-.373-3.993.559-4.304 2.44-.34 2.049 1.375 2.834 2.834 3.392 1.073.415 2.018.716 1.881 1.541-.113.683-.786.982-1.767.82-.956-.157-1.437-.779-1.509-1.624l-2.134.23ZM47.12 105.385c1.074-2.694.095-5.4-2.69-6.504-2.116-.839-4.103-.305-5.412 1.354l1.673 1.281c.753-1.008 1.812-1.333 3.016-.856 1.63.646 2.07 2.267 1.407 3.93-.662 1.662-2.145 2.522-3.763 1.881-1.18-.468-1.624-1.403-1.471-2.635l-2.115-.206c-.297 2.018.784 3.795 2.876 4.625 2.725 1.08 5.422-.212 6.48-2.87ZM39.28 96.794l-1.71-1.182-2.05 2.951-1.302-.9.2-4.23-1.936-1.34-.211 4.843c-1.086-.179-2.142.219-2.82 1.195-1.09 1.567-.646 3.336.957 4.444l3.28 2.269 5.592-8.05Zm-7.752 4.283c-.656-.453-.79-1.133-.357-1.755.425-.612 1.099-.734 1.744-.288l1.539 1.064-1.41 2.028-1.516-1.049ZM31.808 91.233l-1.507-1.45-6.815 7.048 1.507 1.45 6.815-7.048ZM27.383 86.568l-1.275-1.657-6.26 4.794-1.706-2.217-1.526 1.169 4.685 6.09 1.526-1.168-1.705-2.217 6.26-4.794ZM19.582 84.461c2.647-1.227 3.7-4.047 2.47-6.688-1.229-2.64-4.069-3.657-6.716-2.43-2.646 1.227-3.7 4.047-2.47 6.688 1.23 2.64 4.07 3.657 6.716 2.43Zm-3.336-7.164c1.721-.798 3.329-.29 4.062 1.285.733 1.575.085 3.128-1.636 3.925-1.72.798-3.328.29-4.061-1.285-.734-1.575-.086-3.128 1.635-3.925ZM18.677 69.226l-.212-1.934-6.804.74 6.338-5.01-.241-2.207L8 61.875l.213 1.948 6.752-.734-6.287 4.991.24 2.207 9.759-1.06ZM17.628 59.783l.258-2.073-2.495-1.256.434-3.486 2.727-.61.269-2.164-10.199 2.474-.277 2.228 9.283 4.887Zm-4.035-4.25-2.842-1.43 3.107-.695-.265 2.125ZM19.854 46.568l.818-1.766-6.214-2.865 8.02-1.035.934-2.015-8.91-4.108-.824 1.778 6.166 2.843-7.967 1.044-.934 2.015 8.91 4.11ZM24.58 37.055l4.123-5.402-1.489-1.132-2.854 3.74-1.812-1.376 1.887-2.473-1.49-1.13-1.886 2.472-1.53-1.163 2.774-3.636-1.489-1.132-4.044 5.299 7.81 5.933ZM28.494 22.454l1.12 4.668-5.71-4.618-1.612 1.314 7.773 6.31 1.712-1.397-.885-3.68 3.5 1.548 1.712-1.396-4.662-8.847-1.59 1.297 3.429 6.496-4.433-1.984-.354.289ZM41.812 13.904c-1.19-1.3-2.76-1.548-4.543-.697-1.889.902-2.892 2.713-2.112 4.339.938 1.955 2.837 1.526 4.383 1.12 1.064-.262 1.959-.544 2.337.245.345.718-.134 1.352-.984 1.758-.956.457-1.827.366-2.52-.534l-1.658 1.473c1.228 1.411 2.921 1.674 4.904.727 2.066-.987 2.951-2.741 2.126-4.461-.898-1.873-2.754-1.537-4.27-1.16-1.118.273-2.065.567-2.427-.187-.3-.625.08-1.255.977-1.683.874-.417 1.625-.182 2.17.47l1.617-1.41ZM46.403 20.041l6.262-1.604-.478-1.86-4.234 1.086-1.963-7.627-2.028.52 2.441 9.486ZM54.06 18.199l6.791-.434-.12-1.863-4.701.3-.146-2.268 3.109-.198-.12-1.864-3.108.199-.123-1.916 4.571-.292L60.093 8l-6.66.425.626 9.774ZM64.06 18.075l2.079.257.972-7.814 2.78.345.237-1.905-7.637-.947-.237 1.905 2.78.345-.973 7.814ZM71.807 19.546l1.995.635 2.4-7.5 2.669.85.585-1.83-7.331-2.334-.585 1.828 2.668.85-2.4 7.501ZM77.14 21.354l6 3.205.884-1.646-4.154-2.22 1.075-2.002 2.746 1.467.884-1.646-2.746-1.467.908-1.693 4.038 2.157.883-1.646-5.884-3.143-4.633 8.634ZM84.099 25.146l1.597 1.331 2.307-2.756 1.216 1.013-.58 4.195 1.809 1.507.645-4.804c1.065.275 2.153-.027 2.916-.939 1.225-1.463.942-3.264-.555-4.511l-3.064-2.553-6.291 7.517Zm8.105-3.573c.613.51.685 1.2.198 1.781-.478.572-1.16.633-1.763.13l-1.436-1.196 1.585-1.895 1.416 1.18ZM96.707 30.582c.394-.29.756-.459 1.088-.508.337-.043.641.01.912.156.278.142.518.349.72.622.202.273.327.56.375.86.06.302.02.607-.12.915-.14.31-.407.608-.8.898-.386.284-.748.447-1.085.49a1.56 1.56 0 0 1-.923-.149 1.967 1.967 0 0 1-.712-.611 2.041 2.041 0 0 1-.383-.87 1.55 1.55 0 0 1 .13-.924c.146-.302.412-.595.798-.879Z"/><path fill="#FCFAF9" fill-rule="evenodd" d="M46.575 41.82c-.252 0-.501.025-.555.056-.108.062 12.244 21.55 12.554 21.84.232.215.905.396 1.214.324.41-.094 21.854-12.528 21.792-12.635-.03-.053-.25-.206-.487-.34-.383-.219-2.291-.744-17.245-4.746-14.566-3.898-16.876-4.5-17.273-4.5Zm-3.083 1.646c-.24.352-.398.916-3.244 11.538s-2.991 11.19-2.96 11.614c.019.246.057.453.086.461.028.008 3.47-1.96 7.65-4.373l7.597-4.387-4.386-7.598c-2.413-4.178-4.41-7.604-4.439-7.611-.029-.008-.166.152-.304.356Zm31.747 14.491-7.597 4.387 4.386 7.598c2.412 4.179 4.41 7.604 4.439 7.612.028.008.165-.153.304-.356.24-.353.398-.916 3.244-11.538s2.99-11.19 2.96-11.615c-.019-.245-.057-.453-.086-.46-.028-.008-3.471 1.96-7.65 4.372Zm-29.066 6.849c-4.891 2.824-7.526 4.39-7.49 4.453.03.052.25.206.486.34.384.218 2.3.746 17.209 4.74 14.91 3.996 16.832 4.497 17.273 4.5.273.002.54-.022.593-.052.062-.036-1.44-2.714-4.274-7.623l-4.369-7.568-2.342 1.338c-2.143 1.224-2.401 1.35-3.042 1.476l-.7.138-.98-.263-.982-.263-.536-.47c-.49-.43-.656-.675-1.886-2.779-.741-1.268-1.363-2.31-1.381-2.316-.018-.004-3.429 1.952-7.58 4.349Z" clip-rule="evenodd"/></svg>